<svg width="236" height="236" viewBox="0 0 236 236" fill="none" xmlns="http://www.w3.org/2000/svg">
<path d="M160.729 137.401C153.947 132.39 137.111 132.914 126.663 134.015C125.368 134.22 124.227 134.384 123.287 134.502L127.207 163.266C138.071 161.857 154.188 158.497 160.776 150.676C163.037 148.001 163.908 145.052 163.448 141.676C163.217 139.982 162.324 138.578 160.729 137.401Z" fill="url(#paint0_linear_108_2548)"/>
<path d="M188.743 124.549C184.778 95.4786 156.581 74.6452 127.526 78.6096C109.364 81.0857 94.3356 92.9047 86.5922 108.508C81.925 117.871 79.8872 128.61 81.3772 139.518C85.3399 168.587 113.426 189.938 142.495 185.977C157.479 183.938 170.355 175.405 178.776 163.639C186.69 152.563 190.668 138.632 188.743 124.549ZM145.082 172.467C145.279 173.86 144.295 175.151 142.903 175.335C141.511 175.53 140.218 174.547 140.021 173.155L139.107 166.379C138.222 166.576 137.335 166.758 136.466 166.942C136.774 169.176 137.253 171.697 137.59 174.102C137.801 175.51 136.83 176.106 135.424 176.106C135.424 176.106 135.424 176.106 135.411 176.106C134.018 177.522 132.741 176.209 132.543 174.819L131.812 170.022C131.686 169.106 131.546 168.417 131.433 167.601C130.504 167.758 129.592 168.011 128.719 168.124C122.113 169.024 117.207 169.277 116.672 169.285C115.268 169.329 114.072 168.264 114.031 166.858C113.989 165.437 115.113 164.269 116.49 164.228C116.575 164.228 118.754 164.136 122.127 163.827L118.289 135.618L114.451 107.453C114.422 107.326 114.437 107.212 114.437 107.087C112.202 107.438 110.262 107.803 108.772 108.112C107.437 108.408 106.045 107.537 105.75 106.158C105.455 104.783 106.34 103.419 107.719 103.121C108.971 102.87 113.849 101.858 120.076 101.125L118.825 91.9474C118.643 90.5551 119.626 89.2606 121.018 89.0802C122.41 88.883 123.703 89.8657 123.885 91.258L125.164 100.635C126.599 100.523 128.075 100.439 129.552 100.382L128.483 92.5525C128.301 91.145 129.27 89.8522 130.676 89.6702C132.066 89.4747 133.346 90.459 133.543 91.8631L134.696 100.34C141.654 100.493 148.332 101.634 152.492 104.699C155.177 106.681 156.696 109.295 156.975 112.471C157.299 116.111 156.217 119.455 153.743 122.395C151.718 124.799 148.878 126.754 145.716 128.342C152.703 128.776 159.49 130.125 163.765 133.289C166.492 135.298 168.08 137.899 168.503 140.992C169.164 145.812 167.884 150.171 164.678 153.965C163.596 155.26 162.319 156.426 160.884 157.51C156.343 160.937 150.272 163.384 144.086 165.129L145.082 172.467Z" fill="url(#paint1_linear_108_2548)"/>
<path d="M149.837 119.11C151.422 117.225 152.087 115.204 151.89 112.941C151.734 111.233 150.965 109.915 149.458 108.809C143.729 104.587 129.987 105.089 119.415 106.392C119.45 106.512 119.487 106.637 119.506 106.772L122.585 129.358C123.442 129.247 124.477 129.12 125.66 128.99C132.759 127.837 144.835 125.065 149.837 119.11Z" fill="url(#paint2_linear_108_2548)"/>
<path d="M162.359 134.231C158.09 131.07 151.288 129.719 144.305 129.277C147.476 127.696 150.314 125.741 152.335 123.34C154.808 120.396 155.898 117.057 155.57 113.416C155.285 110.237 153.773 107.623 151.086 105.634C146.918 102.568 140.246 101.442 133.292 101.28L132.136 92.7967C131.947 91.4028 130.661 90.4167 129.267 90.6055C127.868 90.7976 126.89 92.0922 127.082 93.4861L128.149 101.322C126.663 101.374 125.196 101.459 123.76 101.57L122.482 92.2034C122.292 90.8044 121.006 89.8234 119.607 90.0139C118.215 90.201 117.232 91.4921 117.422 92.8911L118.675 102.069C112.445 102.802 107.559 103.798 106.31 104.066C104.931 104.36 104.049 105.715 104.344 107.1C104.641 108.472 106.03 109.352 107.372 109.057C108.85 108.745 110.795 108.383 113.027 108.029C113.028 108.147 113.023 108.272 113.042 108.393L120.726 164.771C117.35 165.09 115.174 165.176 115.091 165.177C113.711 165.223 112.577 166.406 112.622 167.817C112.674 169.226 113.856 170.325 115.265 170.281C115.801 170.261 120.706 170.07 127.308 169.174C128.185 169.052 129.103 168.916 130.032 168.769C130.142 169.575 130.276 170.488 130.401 171.404L131.133 176.657C131.333 178.045 132.618 179.016 134.007 178.827C134.017 178.823 134.022 178.823 134.022 178.823C135.424 178.623 136.392 177.332 136.191 175.934C135.852 173.534 135.372 170.113 135.067 167.876C135.935 167.701 136.815 167.517 137.698 167.318L138.622 174.089C138.812 175.486 140.1 176.464 141.5 176.273C142.896 176.084 143.874 174.797 143.683 173.398L142.684 166.061C150.816 163.78 158.754 160.281 163.279 154.911C166.475 151.115 167.758 146.748 167.102 141.925C166.679 138.836 165.09 136.243 162.359 134.231ZM118.102 107.705C118.083 107.574 118.044 107.449 118.011 107.329C128.582 106.025 142.323 105.524 148.054 109.747C149.561 110.852 150.329 112.17 150.486 113.878C150.685 116.14 150.019 118.161 148.431 120.045C143.429 126.002 131.355 128.773 124.256 129.926C123.072 130.056 122.037 130.184 121.181 130.297L118.102 107.705ZM159.372 151.615C152.782 159.438 136.666 162.794 125.801 164.203L121.881 135.439C122.821 135.325 123.961 135.159 125.257 134.952C135.706 133.853 152.539 133.329 159.322 138.338C160.918 139.517 161.811 140.919 162.04 142.615C162.502 145.991 161.631 148.939 159.372 151.615Z" fill="#ECAF1F"/>
<path d="M200.073 124.028C195.419 89.8973 161.333 64.1305 127.202 68.7843C107.045 71.5249 90.1488 84.3738 80.6592 101.469C74.0535 113.316 71.0162 127.207 72.9293 141.19C77.5814 175.321 111.093 200.637 145.224 195.985C164.075 193.412 180.239 182.139 190.162 166.817C198.216 154.405 202.153 139.307 200.073 124.028ZM181.364 164.412C172.676 176.895 158.998 185.85 142.776 188.07C112.007 192.259 83.5701 170.64 79.3663 139.87C77.7634 128.061 79.9563 116.603 85.0028 106.722C93.1271 90.8514 108.604 79.0593 127.566 76.472C158.322 72.2834 186.759 93.9039 190.963 124.66C192.945 139.208 189.164 153.223 181.364 164.412Z" fill="#FFF48A"/>
<path d="M163.766 133.292C159.495 130.135 152.696 128.778 145.711 128.34C148.881 126.757 151.72 124.804 153.741 122.402C156.214 119.457 157.304 116.118 156.974 112.477C156.689 109.3 155.179 106.686 152.492 104.697C148.324 101.631 141.65 100.503 134.698 100.341L133.541 91.8579C133.351 90.4623 132.065 89.4779 130.671 89.6683C129.274 89.8588 128.296 91.1533 128.486 92.5473L129.553 100.382C128.067 100.437 126.599 100.522 125.164 100.631L123.888 91.2629C123.698 89.8656 122.412 88.8863 121.013 89.0751C119.62 89.2638 118.638 90.5533 118.828 91.954L120.079 101.13C113.849 101.863 108.964 102.863 107.715 103.129C106.337 103.421 105.455 104.776 105.75 106.161C106.047 107.535 107.437 108.413 108.777 108.118C110.256 107.805 112.201 107.444 114.431 107.09C114.434 107.21 114.429 107.331 114.446 107.458L122.13 163.831C118.752 164.149 116.576 164.237 116.495 164.238C115.115 164.286 113.981 165.469 114.026 166.88C114.078 168.287 115.262 169.388 116.671 169.342C117.207 169.322 122.112 169.132 128.714 168.233C129.59 168.115 130.507 167.977 131.438 167.832C131.546 168.638 131.682 169.551 131.805 170.465L132.535 175.719C132.737 177.108 134.02 178.075 135.411 177.886C135.421 177.885 135.426 177.885 135.426 177.885C136.828 177.684 137.794 176.396 137.595 174.997C137.255 172.597 136.776 169.175 136.471 166.939C137.339 166.763 138.217 166.58 139.102 166.379L140.024 173.152C140.214 174.549 141.502 175.527 142.903 175.336C144.298 175.146 145.278 173.861 145.086 172.462L144.084 165.125C152.217 162.843 160.156 159.342 164.68 153.973C167.876 150.179 169.16 145.81 168.501 140.986C168.085 137.898 166.495 135.306 163.766 133.292ZM119.508 106.772C119.489 106.637 119.452 106.514 119.416 106.392C129.987 105.089 143.729 104.587 149.46 108.809C150.966 109.915 151.735 111.233 151.892 112.941C152.089 115.204 151.423 117.225 149.839 119.11C144.834 125.065 132.761 127.837 125.661 128.99C124.478 129.12 123.443 129.247 122.587 129.358L119.508 106.772ZM160.778 150.677C154.189 158.497 138.072 161.857 127.209 163.266L123.288 134.502C124.227 134.384 125.368 134.221 126.664 134.015C137.113 132.914 153.948 132.39 160.731 137.401C162.327 138.578 163.219 139.982 163.45 141.677C163.908 145.054 163.037 148.003 160.778 150.677Z" fill="#FEF6A1"/>
<path d="M202.208 123.128C197.246 86.7355 163.594 61.1506 127.202 66.1145C106.046 68.9934 88.5454 81.576 78.5788 98.7399C71.3815 111.11 68.1082 125.884 70.173 141.121C75.1352 177.529 108.787 203.112 145.195 198.15C165.549 195.367 182.516 183.629 192.65 167.449C200.649 154.7 204.401 139.181 202.208 123.128ZM190.162 166.817C180.239 182.139 164.075 193.41 145.223 195.986C111.093 200.638 77.5826 175.321 72.9289 141.19C71.0175 127.205 74.0531 113.316 80.6588 101.469C90.1467 84.374 107.044 71.5251 127.202 68.7844C161.33 64.1307 195.419 89.8975 200.073 124.028C202.153 139.308 198.215 154.405 190.162 166.817Z" fill="#EAC421"/>
<path d="M190.964 124.66C186.761 93.9038 158.324 72.2834 127.568 76.472C108.605 79.0593 93.1288 90.8513 85.0045 106.722C79.9579 116.603 77.765 128.061 79.368 139.87C83.5717 170.64 112.009 192.259 142.778 188.07C159 185.85 172.676 176.895 181.365 164.412C189.164 153.223 192.945 139.208 190.964 124.66ZM178.776 163.638C170.355 175.403 157.479 183.937 142.495 185.977C113.424 189.939 85.3399 168.589 81.3772 139.518C79.8871 128.607 81.925 117.869 86.5922 108.507C94.3373 92.9043 109.364 81.0836 127.526 78.6092C156.581 74.6448 184.778 95.4781 188.743 124.549C190.668 138.631 186.69 152.562 178.776 163.638Z" fill="#EEAF10"/>
<path opacity="0.6" d="M192.65 167.449C182.515 183.629 165.548 195.367 145.195 198.15C108.787 203.112 75.1355 177.529 70.1733 141.121C68.1068 125.884 71.3818 111.11 78.5791 98.74C79.2112 99.5979 79.9005 100.511 80.659 101.467C81.9232 103.097 83.3711 104.855 85.0027 106.723C85.5083 107.314 86.0427 107.903 86.5905 108.508C93.7877 116.492 104.118 126.137 118.289 135.625C120.102 136.847 121.985 138.07 123.927 139.264C132.909 144.846 143.269 150.299 155.175 155.234C157.044 156.008 158.941 156.78 160.882 157.513C166.519 159.691 172.479 161.759 178.776 163.64C179.634 163.922 180.49 164.176 181.363 164.414C184.231 165.257 187.155 166.059 190.162 166.819C190.978 167.04 191.807 167.251 192.65 167.449Z" fill="url(#paint3_linear_108_2548)"/>
<path opacity="0.3" d="M135.416 81.1477C135.416 81.1477 195.392 88.1764 180.866 154.713C180.866 154.713 185.552 106.92 135.416 81.1477Z" fill="#FFF48A"/>
<path d="M94.125 108.054L94.0087 121.272L93.7558 150.164L93.1794 215.396H40.0814L35.3046 131.082L34 108.054C34.4602 108.09 47.599 107.271 62.3997 107.031C66.2293 106.962 70.1734 106.935 74.0333 106.974C81.4834 107.041 88.6402 107.346 94.125 108.054Z" fill="url(#paint4_linear_108_2548)"/>
<g opacity="0.37">
<path d="M89.7627 210.415L45.792 212.006L40.0409 114.107L40.2179 113.989C40.7926 113.608 57.6885 112.47 71.7055 112.47C79.041 112.47 84.6235 112.773 88.298 113.373L88.6115 113.426L88.6165 113.743L89.7627 210.415ZM46.4797 211.253L88.9975 209.663L87.8648 114.07C84.2274 113.508 78.9668 113.486 71.8791 113.486C58.3004 113.486 43.4811 114.68 41.2494 115.015L46.4797 211.253Z" fill="#8A92A1"/>
</g>
<path opacity="0.41" d="M94.1249 108.054L94.0086 121.272C77.6655 117.417 74.281 110.7 74.0332 106.973C81.4833 107.041 88.6401 107.346 94.1249 108.054Z" fill="url(#paint5_linear_108_2548)"/>
<path d="M116.197 214.397C115.973 215.683 115.56 216.627 114.904 216.949C114.893 216.952 114.886 216.961 114.874 216.964C113.001 217.815 109.526 213.844 108.847 211.939C108.771 211.725 108.729 211.538 108.729 211.385C108.729 210.554 109.399 208.757 110.136 207.174C110.738 205.87 111.39 204.713 111.754 204.353L115.774 204.402C116.349 207.409 116.688 211.668 116.197 214.397Z" fill="#6F4532"/>
<path d="M112.444 204.466C112.467 204.569 113.484 207.923 113.553 209.745C113.553 209.745 114.76 205.344 115.373 204.353L112.444 204.466Z" fill="#502E21"/>
<path d="M116.256 214.398C116.029 215.682 115.617 216.626 114.963 216.948C114.952 216.952 114.943 216.96 114.931 216.963C113.06 217.815 109.586 213.844 108.904 211.939C108.973 211.885 109.025 211.846 109.025 211.846C109.291 211.846 114.099 212.197 116.256 214.398Z" fill="#6B3E2D"/>
<path opacity="0.3" d="M114.904 216.948C116.406 213.606 115.82 206.811 113.411 206.53C111.993 206.361 110.881 206.746 110.138 207.172C110.739 205.868 111.392 204.711 111.756 204.351L115.776 204.4C116.622 208.822 116.951 215.945 114.904 216.948Z" fill="#6F4532"/>
<path d="M110.166 59.8477C109.418 61.69 108.314 63.2929 106.881 64.4492C106.726 64.5723 106.569 64.697 106.409 64.8116C105.288 65.5954 103.985 66.1162 102.511 66.2814C100.328 66.5291 98.3169 66.1314 96.6213 65.5212C96.296 65.4066 95.9791 65.2836 95.6757 65.1521C93.1086 64.043 91.4787 62.5648 91.4787 62.5648C91.4787 62.5648 91.1567 62.9288 90.3831 63.0552C89.5201 63.1985 88.0941 63.0418 85.9316 61.7456C81.8357 59.2881 82.7796 56.8289 84.0387 55.885C84.0572 55.8698 84.0775 55.8563 84.096 55.8445C84.4061 55.6389 84.7837 55.5748 85.1798 55.6035C85.3972 55.6355 87.998 56.5777 88.384 57.016C88.3233 56.8474 86.3698 51.543 86.2468 47.9444C86.1187 44.285 86.058 42.0821 87.4418 42.3366C88.7599 42.5759 93.9497 42.4748 98.5209 41.1635C98.7467 41.1045 98.9608 41.0337 99.1715 40.9662C99.19 40.9595 99.2069 40.9544 99.2237 40.9477C103.8 39.4846 104.621 37.2125 104.67 37.0642C104.687 37.0844 104.709 37.0979 104.729 37.1181C105.049 37.4519 106.826 39.3279 107.641 40.4656C107.68 40.5162 107.712 40.5651 107.744 40.6106C109.814 43.7912 110.878 47.6814 111.264 52.1667C111.498 54.818 111.117 57.5233 110.166 59.8477Z" fill="url(#paint6_linear_108_2548)"/>
<path d="M121.055 206.107C120.903 207.323 120.618 208.553 120.229 209.573C120.071 209.996 119.894 210.387 119.697 210.722C119.697 210.722 118.887 209.15 118.03 207.309C117.204 205.538 116.334 203.517 116.105 202.406C115.7 200.462 116.192 196.825 116.341 195.825V195.819C116.366 195.657 116.381 195.564 116.381 195.564L117.507 196.565L117.778 196.808C117.778 196.808 119.587 199.171 120.63 201.157C120.635 201.162 120.637 201.17 120.64 201.175C121.195 202.224 121.293 204.159 121.055 206.107Z" fill="#6F4532"/>
<path d="M120.63 201.155C119.42 200.189 117.872 199.282 117.358 198.868C117.358 198.868 117.365 196.742 117.498 196.577C117.502 196.574 117.507 196.57 117.507 196.563L117.778 196.806C117.778 196.806 119.587 199.169 120.63 201.155Z" fill="#502E21"/>
<path d="M121.055 206.107C120.903 207.323 120.618 208.553 120.229 209.573C120.071 209.996 119.894 210.387 119.696 210.722C119.696 210.722 118.887 209.15 118.029 207.309C118.899 206.571 120.259 206.185 121.055 206.107Z" fill="#6B3E2D"/>
<path opacity="0.3" d="M120.229 209.572C120.071 209.996 119.894 210.387 119.697 210.722C119.697 210.722 116.577 204.673 116.105 202.406C115.7 200.462 116.192 196.825 116.341 195.825L117.762 198.163C117.355 199.522 117.419 204.496 120.229 209.572Z" fill="#6F4532"/>
<path d="M116.526 190.672L116.236 197.312C116.324 195.351 116.423 193.098 116.526 190.672Z" fill="#183A49"/>
<path d="M138.558 130.497C135.738 122.892 133.233 118.201 131.559 115.528C131.325 115.159 131.116 114.835 130.919 114.543C130.845 114.43 130.774 114.326 130.698 114.223C130.698 114.646 119.968 115.373 112.658 115.573C108.968 115.676 106.15 115.644 106.027 115.373C105.984 115.737 105.946 116.148 105.905 116.6C105.861 117.041 105.824 117.522 105.787 118.039C105.145 126.571 104.69 144.785 107.077 155.06C107.077 155.06 102.634 163.156 103.674 173.856C104.712 184.561 111.614 204.347 111.614 204.617C111.614 204.701 111.983 204.829 112.509 204.942C113.713 205.2 115.71 205.355 115.867 204.617C115.894 204.497 116.039 201.622 116.233 197.327L117.259 198.869L117.542 199.292C117.542 199.292 138.827 166.844 145.932 156.975C145.932 156.975 143.663 144.263 138.558 130.497ZM116.691 190.157C116.58 190.491 116.522 190.673 116.522 190.673C116.978 179.981 117.49 165.991 117.49 159.561C117.49 158.949 117.487 158.399 117.475 157.933C117.286 149.028 120.689 128.07 120.689 128.07C120.689 128.07 120.693 128.073 120.698 128.085C120.698 128.085 120.703 128.097 120.708 128.105C121.242 129.096 132.663 150.334 133.954 153.758C133.954 153.758 128.412 156.156 123.998 168.506C120.32 178.803 117.397 187.927 116.691 190.157Z" fill="url(#paint7_linear_108_2548)"/>
<path d="M130.718 114.365C130.722 114.395 130.723 114.424 130.725 114.447C130.723 114.429 130.72 114.398 130.718 114.365Z" fill="url(#paint8_linear_108_2548)"/>
<path d="M130.701 114.245C130.708 114.291 130.711 114.331 130.718 114.365C130.713 114.318 130.708 114.272 130.701 114.245Z" fill="url(#paint9_linear_108_2548)"/>
<path d="M130.699 114.218C130.699 114.218 130.701 114.228 130.701 114.247C130.701 114.233 130.701 114.227 130.699 114.218Z" fill="url(#paint10_linear_108_2548)"/>
<path d="M130.725 114.448C130.728 114.474 130.728 114.486 130.732 114.493C130.727 114.488 130.727 114.471 130.725 114.448Z" fill="url(#paint11_linear_108_2548)"/>
<path d="M146.782 76.2751C146.782 76.2751 146.111 76.0273 145.236 75.6127C143.63 74.8643 141.315 73.5664 141.098 72.2247C141.098 72.2247 139.658 82.7999 139.958 88.9605C139.958 88.9605 132.564 81.0183 127.555 75.6953C122.545 70.3724 120.42 69.5296 120.42 69.5296C120.42 69.5296 112.589 67.9822 107.549 68.4255C107.549 68.4255 107.36 70.8949 103.485 71.3769C99.6082 71.8573 98.8548 69.5296 98.8548 69.5296C97.1305 69.8987 91.2884 70.6134 88.3876 74.2693C85.0957 78.4124 78.8693 93.0362 76.0646 102.177C75.3128 104.623 74.8088 106.672 74.6689 108.031C74.6689 108.031 75.2892 110.81 85.0603 113.204C95.5275 115.771 100.995 115.157 100.995 115.157L101.803 114.291L104.237 111.693C105 113.178 105.61 114.473 106.025 115.373C106.396 116.182 106.386 117.069 106.386 117.069C106.386 117.069 117.62 117.955 118.421 117.96L119.933 115.747L122.107 117.045C122.107 117.045 128.888 115.108 130.725 114.449C130.725 114.437 130.72 114.427 130.72 114.411C130.72 114.394 130.715 114.379 130.712 114.367C130.712 114.341 130.708 114.321 130.705 114.296C130.516 112.528 130.115 108.89 129.597 104.845C128.83 98.8445 127.801 91.954 126.833 88.9605C126.833 88.9605 135.874 100.788 142.463 100.597C149.052 100.409 146.864 88.1548 146.782 76.2751ZM102.929 109.3C101.346 108.373 98.9829 107.121 96.0281 105.966C96.0248 105.961 96.0214 105.961 96.0163 105.961C93.601 105.012 90.7912 104.127 87.6965 103.532L87.7757 103.342L92.7481 91.7164C92.5374 92.2692 96.2995 99.3957 99.9858 104.574C101.061 106.077 102.066 107.729 102.959 109.319C102.959 109.315 102.949 109.308 102.929 109.3Z" fill="url(#paint12_linear_108_2548)"/>
<path opacity="0.3" d="M104.966 50.8385C104.242 50.7104 103.989 47.1859 106.195 45.4212C108.403 43.6547 110.224 47.9899 109.92 48.7198C109.92 48.7198 106.731 51.1554 104.966 50.8385Z" fill="#E47553"/>
<path d="M95.1599 63.0281C95.1599 63.0281 95.165 63.0399 95.1919 63.0584C95.1768 63.0399 95.165 63.0314 95.1599 63.0281Z" fill="url(#paint13_linear_108_2548)"/>
<path d="M104.838 71.5113C101.435 72.6457 99.3553 70.0635 99.1665 69.9995C99.1126 69.9776 98.7721 69.4061 98.3187 68.5887C97.8265 67.7105 97.1927 66.5542 96.6213 65.521C98.317 66.1311 100.328 66.5289 102.511 66.2811C103.985 66.1159 105.288 65.5951 106.409 64.8114C106.571 64.6984 106.726 64.572 106.881 64.449L107.331 67.1306L107.55 68.4268C107.55 68.4268 108.241 70.377 104.838 71.5113Z" fill="url(#paint14_linear_108_2548)"/>
<path d="M104.587 31.3634C104.609 31.301 104.789 31.0701 104.943 30.7751C104.649 30.996 104.548 31.478 104.587 31.3634Z" fill="url(#paint15_linear_108_2548)"/>
<path d="M99.1748 40.9626C99.1933 40.9575 99.2102 40.9508 99.2271 40.9457C103.803 39.481 104.622 37.2089 104.673 37.0622C104.52 36.9257 104.368 36.7909 104.21 36.6577C104.21 36.6577 103.203 39.6108 99.1748 40.9626Z" fill="url(#paint16_linear_108_2548)"/>
<path d="M104.73 37.113C105.069 37.4653 106.987 39.4947 107.748 40.6072C106.913 39.3245 105.914 38.1581 104.73 37.113Z" fill="url(#paint17_linear_108_2548)"/>
<path d="M107.918 40.8716C107.871 40.7924 107.812 40.7013 107.747 40.6086C106.987 39.4928 105.071 37.4668 104.734 37.1162C104.7 37.0825 104.676 37.0538 104.676 37.0538C104.676 37.0538 104.676 37.0589 104.675 37.0622C104.624 37.2106 103.803 39.4827 99.2287 40.9458C99.2136 40.9525 99.195 40.9575 99.1765 40.9643C98.9607 41.0317 98.745 41.0974 98.5259 41.1615C93.9547 42.4729 88.7649 42.574 87.4468 42.3346C86.063 42.0818 86.1237 44.2831 86.2518 47.9425C86.3731 51.5411 88.3283 56.8455 88.389 57.014C88.003 56.5758 85.4022 55.6335 85.1848 55.6015C84.9876 55.583 83.2869 55.192 81.3367 47.8767C80.644 45.2827 80.6153 42.6667 81.1479 40.2918C81.4193 39.0731 81.8356 37.9202 82.3834 36.8617C82.4593 36.7201 82.5351 36.5819 82.6144 36.4403C83.0121 35.7425 83.4656 35.0918 83.9796 34.5019C84.0791 34.3856 84.1802 34.2727 84.2864 34.1631C84.9202 33.4822 85.6365 32.8872 86.4237 32.4001C86.5821 32.3023 86.749 32.2079 86.9159 32.1169C87.5395 31.7764 88.2019 31.505 88.9014 31.3045C93.9884 29.8482 96.8993 30.0656 98.8579 30.2931C99.013 30.31 99.1613 30.3285 99.3029 30.347C99.5507 30.374 99.7765 30.3993 99.9923 30.4229C99.9923 30.4229 100.372 29.4116 100.938 29.7268C101.418 29.9948 101.582 30.4853 101.732 30.669C101.762 30.7044 101.789 30.7297 101.819 30.7381C101.959 30.7853 101.996 29.5784 102.859 29.1334C103.158 28.9834 103.556 28.9228 104.088 29.0357C104.388 29.0998 104.614 29.1874 104.776 29.2936C104.956 29.4082 105.066 29.5464 105.128 29.6947C105.268 30.0453 105.125 30.4515 104.949 30.7769C104.939 30.7853 104.928 30.7988 104.917 30.8055C104.649 31.0364 104.558 31.4781 104.596 31.3685C104.614 31.3112 104.762 31.1157 104.907 30.8578C104.923 30.8308 104.938 30.8055 104.949 30.7769C105.133 30.642 105.386 30.6033 105.727 30.8729C105.748 30.8915 105.767 30.9067 105.791 30.9252C106.736 31.7444 105.791 34.8306 105.791 34.8306C107.237 37.1634 107.918 40.8716 107.918 40.8716Z" fill="url(#paint18_linear_108_2548)"/>
<path d="M91.1634 49.1645C90.5347 48.9151 91.605 46.8807 93.8737 46.5183C96.7611 46.0581 98.5359 46.8351 98.3472 47.8431C98.1584 48.8493 96.9128 48.347 94.6373 48.2847C92.3601 48.2189 91.1634 49.1645 91.1634 49.1645Z" fill="url(#paint19_linear_108_2548)"/>
<path opacity="0.3" d="M93.0243 54.4335C92.4428 54.3172 91.9827 51.0169 94.3475 49.4207C96.7106 47.8279 100.051 50.7135 99.9873 53.0429C99.9873 53.0429 96.0482 55.0285 93.0243 54.4335Z" fill="#E47553"/>
<path d="M108.857 43.3629C108.123 42.5673 105.944 42.7123 104.447 43.8366C102.843 45.04 102.312 46.6278 103.544 46.7542C104.296 46.8317 105.073 45.5457 106.234 44.7282C107.127 44.0995 108.857 43.3629 108.857 43.3629Z" fill="url(#paint20_linear_108_2548)"/>
<path d="M99.9874 53.0449C99.9874 53.0449 98.5766 54.5298 96.018 54.7473C95.2662 54.813 94.4133 54.7658 93.4694 54.5399C93.3329 54.5096 93.198 54.4776 93.0565 54.4338C92.1867 54.1843 93.1812 50.6531 95.8932 50.2115C98.6002 49.7665 99.6284 51.988 99.9874 53.0449Z" fill="white"/>
<path d="M109.883 49.0094C109.836 49.5286 108.858 50.2466 107.869 50.7404C106.851 51.2562 105.7 51.5091 105.091 50.9647C104.641 50.5601 104.646 49.7898 104.921 48.9909C105.373 47.6677 106.552 46.2586 107.606 46.3007C109.305 46.3614 109.954 48.224 109.883 49.0094Z" fill="white"/>
<path d="M98.9592 69.7537C98.9289 70.197 106.512 85.2186 112.939 93.2401C112.939 93.2401 109.903 74.8727 107.552 68.4238C107.552 68.4238 106.986 70.3251 104.243 70.9606C101.499 71.5994 98.9592 69.7537 98.9592 69.7537Z" fill="#CDEEF3"/>
<path opacity="0.3" d="M84.9236 57.6462C84.9236 57.6462 88.2626 58.2749 89.4627 60.4189C89.4627 60.4189 88.9571 61.555 87.6356 60.9229C86.3108 60.2942 87.1923 59.1582 87.1923 59.1582L84.9236 57.6462Z" fill="#E47553"/>
<path d="M117.384 84.6171L117.626 85.6638L123.258 85.3789L123.101 84.1519L117.384 84.6171Z" fill="#0E2934"/>
<path d="M96.5522 53.5015C96.5522 53.9937 96.3432 54.4387 96.0162 54.7454C95.2644 54.8112 94.4116 54.764 93.4677 54.5381C93.2452 54.2516 93.1171 53.8908 93.1171 53.5015C93.1171 52.5525 93.889 51.7856 94.8363 51.7856C95.7819 51.7873 96.5522 52.5542 96.5522 53.5015Z" fill="#593828"/>
<path d="M108.098 49.8946C108.098 50.2031 108.016 50.4913 107.871 50.7407C106.852 51.2565 105.701 51.5094 105.093 50.9649C104.643 50.5604 104.648 49.7901 104.923 48.9911C105.224 48.5023 105.765 48.1787 106.382 48.1787C107.326 48.1787 108.098 48.9473 108.098 49.8946Z" fill="#593828"/>
<path d="M103.441 56.9179C102.962 56.9179 102.576 56.7814 102.342 56.6954C102.305 56.6819 102.259 56.6684 102.226 56.6566C102.195 56.6701 102.158 56.6718 102.123 56.6651C102.022 56.6448 101.954 56.5454 101.976 56.4409C101.985 56.387 102.032 56.3246 102.081 56.2993C102.184 56.2403 102.291 56.2774 102.47 56.3398C102.849 56.4746 103.554 56.7257 104.41 56.3094C105.416 55.8172 105.727 55.1784 105.802 54.9761C105.649 54.6795 104.995 53.4339 103.859 51.5663C102.699 49.6583 102.767 49.0178 102.811 48.593C102.816 48.529 102.824 48.4683 102.824 48.411C102.824 48.3065 102.907 48.2239 103.014 48.2239C103.117 48.2239 103.202 48.3081 103.202 48.411C103.202 48.4851 103.195 48.5543 103.188 48.6318C103.149 49.006 103.089 49.5723 104.184 51.3691C105.494 53.5266 106.17 54.8649 106.177 54.8767C106.197 54.9155 106.202 54.9644 106.19 55.0082C106.182 55.0453 105.932 55.9875 104.577 56.6499C104.164 56.8522 103.78 56.9179 103.441 56.9179Z" fill="#E47553"/>
<path d="M102.738 60.631C102.017 60.631 101.476 60.5147 101.304 60.4338C101.209 60.3917 101.167 60.2754 101.213 60.1843C101.257 60.0883 101.369 60.0478 101.464 60.0916C101.784 60.2417 103.655 60.5198 105.418 59.6517C107.112 58.8191 107.137 58.0673 107.137 58.0606C107.139 57.9578 107.223 57.8684 107.326 57.8684H107.609C107.714 57.8684 107.796 57.9527 107.796 58.0555C107.796 58.1617 107.714 58.246 107.609 58.246H107.488C107.404 58.578 107.045 59.2741 105.587 59.9888C104.577 60.486 103.542 60.631 102.738 60.631Z" fill="#DF5939"/>
<path d="M92.9198 54.3444C92.527 54.0023 92.4242 52.5292 93.7541 51.1538C95.6908 49.1547 99.3568 49.5457 99.9855 53.0432C99.9855 53.0432 98.9017 50.525 96.9297 50.3666C94.9576 50.2065 92.3045 52.9505 93.7912 54.6091C93.7912 54.6091 93.154 54.5484 92.9198 54.3444Z" fill="#46312F"/>
<path d="M109.485 47.4371C108.921 46.6398 108.401 46.0718 107.125 46.2994C105.096 46.6635 103.599 50.7475 105.489 51.1908C105.489 51.1908 104.681 49.5137 106.195 47.6545C107.707 45.7988 109.485 47.4371 109.485 47.4371Z" fill="#46312F"/>
<path d="M96.3246 52.5289C96.3246 52.9402 95.9909 53.2756 95.5796 53.2756C95.17 53.2756 94.8363 52.9402 94.8363 52.5289C94.8363 52.1193 95.17 51.7856 95.5796 51.7856C95.9909 51.7856 96.3246 52.1193 96.3246 52.5289Z" fill="white"/>
<path d="M107.869 48.5175C107.869 48.9304 107.535 49.2625 107.126 49.2625C106.714 49.2625 106.381 48.9304 106.381 48.5175C106.381 48.1079 106.714 47.7742 107.126 47.7742C107.535 47.7742 107.869 48.1079 107.869 48.5175Z" fill="white"/>
<path opacity="0.21" d="M107.173 180.2C104.904 165.546 108.779 155.809 108.779 155.809C106.986 146.828 108.213 128.07 108.213 128.07C110.517 126.167 112.575 121.763 112.278 118.275C111.908 113.948 108.611 110.52 105.953 109.011C101.147 106.279 95.2628 93.2246 93.5149 89.5366L92.4716 86.5549C92.4716 86.5549 91.8597 87.4247 91.526 88.4461C91.4687 88.6265 87.6037 99.7898 86.3295 103.623C86.3295 103.623 86.8436 103.393 87.7773 103.336L92.7497 91.711C92.539 92.2638 96.3011 99.3903 99.9874 104.568C101.063 106.072 102.067 107.724 102.961 109.313L105.157 110.712C105.157 110.712 106.099 115.529 106.028 115.371C105.302 121.987 104.402 143.525 107.078 155.059C107.078 155.059 102.635 163.154 103.675 173.854C104.714 184.559 111.616 204.346 111.616 204.615C111.616 204.7 111.985 204.828 112.511 204.941C112.722 204.782 109.44 194.854 107.173 180.2Z" fill="#183A49"/>
<path opacity="0.2" d="M110.166 59.8477C109.418 61.69 108.314 63.2929 106.881 64.4492C106.726 64.5723 106.569 64.697 106.409 64.8116C105.288 65.5954 103.985 66.1162 102.511 66.2814C100.328 66.5291 98.317 66.1314 96.6214 65.5212C96.296 65.4066 95.9792 65.2835 95.6758 65.1521C93.1087 64.043 91.4788 62.5648 91.4788 62.5648C91.4788 62.5648 91.1568 62.9288 90.3832 63.0552C89.4511 61.4826 86.9548 57.5671 84.0978 55.8428C84.4079 55.6372 84.7855 55.5731 85.1816 55.6018C85.399 55.6338 87.9998 56.576 88.3858 57.0143C88.3251 56.8457 86.3716 51.5413 86.2485 47.9427C86.1204 44.2834 86.0598 42.0803 87.4436 42.3349C88.7617 42.5742 93.9515 42.4731 98.5226 41.1618C98.7485 41.1028 98.9626 41.032 99.1733 40.9645C99.1918 40.9578 99.2087 40.9528 99.2255 40.946C103.802 39.483 104.623 37.2108 104.672 37.0625C104.688 37.0827 104.71 37.0962 104.731 37.1165C105.051 37.4502 106.827 39.3262 107.643 40.4639C106.637 39.7054 105.354 38.8037 104.761 38.5323C104.761 38.5323 102.489 41.7989 97.3394 42.4596C92.1884 43.1203 89.3027 43.2248 87.8852 43.0715C87.8852 43.0715 86.7036 46.5555 87.8852 51.7874C89.0651 57.0176 90.4371 61.5551 96.3668 64.011C96.3668 64.011 101.73 66.1954 105.28 64.4492C107.414 63.3991 109.088 61.9462 110.166 59.8477Z" fill="#E47553"/>
<path opacity="0.35" d="M107.33 67.1292C105.988 67.1646 102.347 67.4377 98.3187 68.5872C97.8265 67.709 97.1927 66.5527 96.6213 65.5195C98.317 66.1297 100.328 66.5275 102.511 66.2797C103.985 66.1145 105.288 65.5937 106.409 64.8099C106.571 64.697 106.726 64.5706 106.881 64.4475L107.33 67.1292Z" fill="#E47553"/>
<path opacity="0.33" d="M93.7221 54.5249C93.9733 54.6867 93.6851 51.2769 96.2707 50.869C98.858 50.4611 99.9873 53.045 99.9873 53.045C99.9873 53.045 99.2406 49.6604 96.1106 50.2116C92.3602 50.8689 93.1288 54.144 93.7221 54.5249Z" fill="#715650"/>
<path opacity="0.33" d="M105.489 51.1924C104.966 50.8385 104.555 48.9793 105.853 47.5297C107.325 45.8914 109.755 46.1122 109.883 49.0097C109.883 49.0097 109.772 46.7123 107.446 47.3713C105.118 48.0337 105.489 51.1924 105.489 51.1924Z" fill="#715650"/>
<path opacity="0.23" d="M107.918 40.8717C107.871 40.7925 107.812 40.7014 107.747 40.6087C106.987 39.4929 105.071 37.4669 104.734 37.1163C104.7 37.0826 104.676 37.0539 104.676 37.0539C104.676 37.0539 104.676 37.059 104.675 37.0623C104.624 37.2107 103.803 39.4828 99.2287 40.9459C99.2136 40.9526 99.195 40.9576 99.1765 40.9644C98.9607 41.0318 98.745 41.0975 98.5259 41.1616C93.9547 42.4729 88.7649 42.574 87.4468 42.3347C86.063 42.0819 86.1237 44.2832 86.2518 47.9425C86.3731 51.5412 88.3283 56.8456 88.389 57.0141C88.003 56.5759 85.4022 55.6336 85.1848 55.6016C84.9876 55.5831 83.2869 55.1921 81.3367 47.8768C80.644 45.2828 80.6153 42.6668 81.1479 40.2919C82.5773 41.5459 85.7646 41.1616 85.7646 41.1616C88.0334 42.178 95.6419 41.2779 101.032 38.9063C105.344 37.0101 105.801 33.0389 105.725 30.8713C105.747 30.8899 105.765 30.9051 105.789 30.9236C106.734 31.7428 105.789 34.829 105.789 34.829C107.237 37.1635 107.918 40.8717 107.918 40.8717Z" fill="url(#paint21_linear_108_2548)"/>
<path d="M104.24 70.9606L106.558 72.8062C106.558 72.8062 107.83 72.0309 108.021 69.8414L107.55 68.4238C107.55 68.4238 107.077 69.9189 104.24 70.9606Z" fill="#E2FBFF"/>
<path d="M103.952 71.0194L103.257 73.2326L104.763 73.9372C104.763 73.9372 106.649 84.2746 106.748 84.4347C107.178 85.1275 110.955 91.0319 112.939 93.24C112.939 93.24 111.751 85.8792 111.333 83.7723L105.518 73.9388L106.131 72.4656L104.242 70.9604L103.952 71.0194Z" fill="#1B2828"/>
<path d="M98.059 68.1216C98.059 68.1216 97.0511 72.7552 97.786 77.2926L100.648 77.7662L99.6536 83.2005C99.6536 83.2005 108.683 91.2658 112.936 93.2379C112.936 93.2379 102.812 78.6579 98.9001 69.6335C98.8833 69.5998 98.8698 69.5627 98.8529 69.5273L98.059 68.1216Z" fill="#13323B"/>
<path d="M107.33 67.1289C107.33 67.1289 111.946 71.7169 113.551 75.1672L111.945 76.2763L115.159 81.0279L112.936 93.2379C112.936 93.2379 107.626 68.8869 107.33 67.1289Z" fill="#13323B"/>
<path opacity="0.21" d="M131.561 115.528L122.865 119.029L120.502 117.067L118.516 119.686C116.234 119.516 108.016 118.358 105.787 118.038C105.824 117.518 105.861 117.038 105.905 116.598L108.875 116.954C112.656 117.899 118.422 117.96 118.422 117.96L119.934 115.747L122.108 117.045C123.905 116.667 130.727 114.449 130.727 114.449L130.919 114.543C131.116 114.835 131.325 115.159 131.561 115.528Z" fill="#183A49"/>
<path opacity="0.46" d="M96.0281 105.964C98.9828 107.119 101.346 108.373 102.929 109.298C102.588 109.13 99.2508 107.459 96.0281 105.964Z" fill="#183A49"/>
<path opacity="0.21" d="M101.804 114.29L100.997 115.157C100.997 115.157 95.5291 115.77 85.0619 113.203C75.2908 110.81 74.6705 108.03 74.6705 108.03C74.8104 106.672 75.3144 104.622 76.0662 102.177C75.9043 104.531 76.1673 106.906 76.5887 107.879C76.5887 107.879 90.1994 114.237 101.804 114.29Z" fill="#183A49"/>
<path opacity="0.21" d="M142.466 100.599C135.878 100.788 126.836 88.9618 126.836 88.9618C127.804 91.9537 128.834 98.8458 129.601 104.846C127.211 95.3989 123.757 84.1529 123.757 84.1529C123.757 84.1529 138.748 98.2374 142.964 97.103C146.839 96.0596 145.64 78.9211 145.237 75.6157C146.112 76.0287 146.783 76.2781 146.783 76.2781C146.864 88.1544 149.052 100.408 142.466 100.599Z" fill="#183A49"/>
<path opacity="0.21" d="M112.764 92.4327C112.278 90.2078 119.334 110.884 119.934 115.747L119.55 116.307C119.55 116.307 113.78 97.1 112.764 92.4327Z" fill="#183A49"/>
<path opacity="0.21" d="M136.761 154.108C136.761 154.108 129.103 161.577 123.433 173.3C118.474 183.546 117.34 194.812 117.261 198.87L116.234 197.327C116.234 197.327 116.261 196.426 116.34 194.947C116.411 193.697 116.517 192.031 116.689 190.159C117.396 187.929 120.317 178.805 123.998 168.506C128.412 156.156 133.954 153.758 133.954 153.758C132.663 150.334 121.242 129.097 120.708 128.105C121.34 128.925 133.265 144.716 136.761 154.108Z" fill="#183A49"/>
<path d="M110.7 118.022C110.574 122.246 106.859 126.027 106.859 126.027C106.859 126.027 105.765 127.325 104.995 127.347C104.911 127.347 104.831 127.335 104.761 127.308C104.002 126.991 105.313 124.677 105.376 124.42C105.437 124.184 104.172 125.9 103.432 125.772C103.368 125.76 103.311 125.733 103.259 125.696C102.564 125.194 103.581 123.001 103.517 122.812C103.508 122.785 103.478 122.802 103.432 122.851L103.429 122.855C103.195 123.097 102.539 124.102 101.947 123.942C101.841 123.913 101.738 123.847 101.641 123.731C100.884 122.853 102.635 116.888 102.635 116.888C101.437 116.448 100.997 115.155 100.997 115.155L105.157 110.712C105.298 110.779 105.44 110.855 105.588 110.931C107.828 112.097 110.822 114.059 110.7 118.022Z" fill="url(#paint22_linear_108_2548)"/>
<g opacity="0.2">
<path d="M103.722 116.717C103.722 116.717 101.73 122.045 101.946 123.942C101.84 123.913 101.737 123.847 101.639 123.731C100.882 122.853 102.634 116.888 102.634 116.888C101.435 116.448 100.995 115.155 100.995 115.155L105.155 110.712C105.297 110.779 105.438 110.855 105.587 110.931C104.929 111.673 102.811 114.123 102.254 115.674C102.254 115.674 103.057 117.044 103.722 116.717Z" fill="#E47553"/>
<path d="M105.701 118.806C104.688 120.672 103.464 124.208 103.432 125.772C103.368 125.761 103.311 125.734 103.259 125.697C102.564 125.194 103.581 123.001 103.517 122.813C103.508 122.786 103.478 122.803 103.432 122.851C104.447 120.694 105.619 118.931 105.701 118.806Z" fill="#E47553"/>
<path d="M107.645 121.68C106.227 123.993 105.248 126.162 104.995 127.347C104.911 127.347 104.832 127.335 104.761 127.308C104.002 126.991 105.314 124.677 105.376 124.421C106.748 122.626 107.645 121.68 107.645 121.68Z" fill="#E47553"/>
</g>
<path d="M146.801 76.2751V76.774C146.301 76.8802 145.826 76.9139 145.382 76.8971C142.522 76.774 140.796 74.4412 140.796 74.4412L140.99 73.0793C141.935 74.8862 143.982 75.6835 145.379 76.0256C146.205 76.2296 146.801 76.2751 146.801 76.2751Z" fill="#C6EAED"/>
<path d="M146.802 76.2751V76.774C146.301 76.8802 145.826 76.9139 145.382 76.8971C145.382 76.6038 145.379 76.292 145.379 76.0256C146.205 76.2296 146.802 76.2751 146.802 76.2751Z" fill="#C6EAED"/>
<path d="M105.519 110.899C105.519 110.899 103.773 112.619 102.462 114.321C102.037 114.869 101.659 115.413 101.398 115.902C101.334 116.022 101.091 115.6 100.997 115.157C100.997 115.157 100.683 115.339 100.319 115.203L101.364 114.112L104.81 110.495L105.157 110.714L105.519 110.899Z" fill="#C6EAED"/>
<path opacity="0.4" d="M102.46 114.321C102.035 114.869 101.658 115.413 101.396 115.902C101.332 116.022 101.089 115.6 100.995 115.157C100.995 115.157 100.682 115.339 100.318 115.203L101.363 114.112C101.666 114.163 102.101 114.249 102.46 114.321Z" fill="#ABD7D9"/>
<path d="M146.802 76.2745C144.411 76.1515 141.148 74.7659 140.85 72.5225C140.573 70.4695 139.201 62.9671 140.423 62.1985C140.53 62.1261 140.661 62.1075 140.816 62.1564C142.819 62.7817 142.421 68.4789 142.421 68.4789L142.603 68.4705C142.529 68.5733 142.492 68.6862 142.498 68.8076C142.532 69.4329 144.61 69.8256 146.544 69.8357L146.545 69.8964C144.406 69.8796 142.153 70.3549 142.364 71.26C142.47 71.7354 143.579 72.0438 144.932 72.1635C143.813 72.3051 142.94 72.6472 142.962 73.1546C142.977 73.5658 144.13 73.9451 145.465 74.1356C144.464 74.0934 143.604 74.2047 143.527 74.5266C143.503 74.6227 143.515 74.7137 143.56 74.8098V74.8149C143.849 75.4216 145.443 75.9408 146.791 76.0352L146.802 76.2745Z" fill="url(#paint23_linear_108_2548)"/>
<path d="M148.764 75.2582V75.2936C148.775 75.9189 147.86 76.111 146.792 76.0335C145.435 75.9391 143.835 75.4149 143.559 74.8047C143.517 74.712 143.506 74.621 143.528 74.525C143.604 74.2131 144.398 74.1002 145.347 74.1271C145.347 74.1271 145.352 74.1339 145.357 74.1271C145.357 74.1271 145.357 74.1271 145.361 74.1271C145.367 74.1271 145.371 74.1271 145.379 74.1339H145.465C145.564 74.1474 145.667 74.1592 145.768 74.1693C146.03 74.203 146.298 74.2249 146.566 74.2418C146.615 74.2485 146.668 74.2569 146.719 74.2687C147.794 74.4525 148.73 74.7963 148.764 75.2582Z" fill="url(#paint24_linear_108_2548)"/>
<path d="M147.032 69.8275C146.987 69.8326 146.938 69.8326 146.889 69.8326C146.766 69.8377 146.638 69.8377 146.51 69.8377C144.59 69.8259 142.532 69.4314 142.498 68.8095C142.497 68.7319 142.507 68.6646 142.535 68.5971C142.55 68.555 142.572 68.5112 142.603 68.4724C143.442 67.2689 149.106 67.1729 149.749 68.619C149.763 68.6477 149.776 68.6763 149.785 68.7083C149.999 69.4298 148.637 69.7753 147.032 69.8275Z" fill="url(#paint25_linear_108_2548)"/>
<path d="M147.41 72.1755C147.157 72.1401 146.899 72.1148 146.635 72.1047C146.062 72.071 145.467 72.098 144.934 72.1637C143.58 72.044 142.47 71.7356 142.365 71.2602C142.345 71.1844 142.345 71.1085 142.365 71.0411C142.539 70.2809 144.593 69.8815 146.547 69.8967C148.305 69.9135 149.985 70.259 150.157 70.9669C150.159 70.9754 150.164 70.9872 150.164 70.9956C150.287 71.6681 148.984 72.0508 147.41 72.1755Z" fill="url(#paint26_linear_108_2548)"/>
<path d="M147.698 74.252C147.39 74.2689 147.058 74.2689 146.721 74.252C146.67 74.252 146.616 74.2487 146.567 74.2453C146.456 74.2251 146.341 74.2099 146.225 74.1998H146.196C145.949 74.1694 145.702 74.1475 145.465 74.1374C144.13 73.947 142.977 73.5677 142.962 73.1564V73.1362C142.962 72.6912 143.665 72.3744 144.615 72.2142C144.716 72.194 144.821 72.1788 144.932 72.1653C145.465 72.0996 146.06 72.0727 146.633 72.1064C146.898 72.1165 147.157 72.1417 147.408 72.1771C147.519 72.1923 147.632 72.2125 147.74 72.2344C148.674 72.403 149.412 72.7485 149.54 73.2845C149.546 73.2896 149.546 73.293 149.546 73.2963C149.69 73.9116 148.834 74.1947 147.698 74.252Z" fill="url(#paint27_linear_108_2548)"/>
<path opacity="0.3" d="M147.032 69.8273C146.987 69.8324 146.938 69.8324 146.889 69.8324C146.766 69.8375 146.638 69.8375 146.51 69.8375C144.59 69.8257 142.532 69.4312 142.498 68.8093C142.497 68.7317 142.507 68.6643 142.535 68.5969C145.38 69.4633 148.91 69.1363 149.749 68.6188C149.763 68.6475 149.776 68.6761 149.785 68.7081C149.999 69.4295 148.637 69.7751 147.032 69.8273Z" fill="#E47553"/>
<path opacity="0.3" d="M147.41 72.1753C147.521 72.1905 147.634 72.2107 147.742 72.2327C147.302 72.2596 146.803 72.2765 146.225 72.2832C145.606 72.2916 145.074 72.2647 144.617 72.2124C144.718 72.1922 144.823 72.1771 144.934 72.1636C143.58 72.0439 142.47 71.7354 142.365 71.2601C142.345 71.1843 142.345 71.1084 142.365 71.041C144.868 71.7118 148.962 71.3275 150.157 70.9668C150.159 70.9752 150.164 70.987 150.164 70.9954C150.287 71.668 148.984 72.0506 147.41 72.1753Z" fill="#E47553"/>
<path opacity="0.3" d="M147.698 74.2521C147.278 74.2403 146.795 74.2218 146.225 74.1999H146.196C146.048 74.1931 145.906 74.1847 145.77 74.1729C145.632 74.1611 145.499 74.1493 145.381 74.1375H145.467C144.132 73.947 142.979 73.5678 142.964 73.1565V73.1396C144.861 73.9908 148.268 73.6992 149.542 73.2846C149.547 73.2897 149.547 73.2931 149.547 73.2964C149.69 73.9117 148.834 74.1948 147.698 74.2521Z" fill="#E47553"/>
<path opacity="0.3" d="M148.764 75.2955C148.775 75.9208 147.86 76.1129 146.791 76.0354C145.435 75.941 143.835 75.4168 143.559 74.8066C145.403 75.7725 147.857 75.6107 148.764 75.2955Z" fill="#E47553"/>
<path opacity="0.3" d="M146.802 76.2747C144.411 76.1517 141.148 74.7661 140.85 72.5227C140.573 70.4697 139.201 62.9673 140.423 62.1987C140.037 63.2101 140.267 67.107 141.347 67.1323C141.347 67.1323 140.59 67.2705 140.429 66.5862C140.429 66.5862 140.803 71.4777 141.796 73.2981C142.124 73.8964 142.775 74.4071 143.562 74.8116V74.8167C143.85 75.4235 145.445 75.9427 146.793 76.0371L146.802 76.2747Z" fill="#E47553"/>
<g opacity="0.29">
<path d="M105.121 29.6936C105.069 30.0661 104.997 30.4353 104.911 30.8027C104.911 30.8212 104.906 30.8381 104.901 30.855C104.479 32.6821 103.707 34.4772 102.642 35.8897C100.894 38.2006 97.9225 39.3332 95.1211 39.7141C90.8062 40.3007 86.0799 39.3012 82.3801 36.8605C82.456 36.719 82.5318 36.5807 82.611 36.4392C86.2417 38.8343 90.7573 39.9383 95.0571 39.2877C97.8062 38.8714 100.823 37.8314 102.453 35.4396C103.692 33.6192 104.439 31.4702 104.771 29.2908C104.951 29.4071 105.061 29.5453 105.121 29.6936Z" fill="#78402B"/>
<path d="M102.853 29.1304C101.277 32.547 99.5761 36.149 95.5747 37.108C91.3271 38.1295 87.6341 36.3462 83.9764 34.4988C84.0759 34.3825 84.177 34.2696 84.2832 34.16C87.6341 35.8658 91.0254 37.6339 94.9089 36.8367C97.186 36.3681 99.0182 35.1359 100.309 33.1959C100.847 32.3868 101.3 31.5357 101.727 30.6659C101.757 30.7013 101.784 30.7266 101.815 30.735C101.953 30.7839 101.99 29.5754 102.853 29.1304Z" fill="#78402B"/>
<path d="M99.2981 30.3459C97.7406 32.259 95.6961 33.6293 93.0851 33.7558C90.7524 33.8653 88.6083 33.0445 86.4188 32.3972C86.5773 32.2994 86.7441 32.2051 86.911 32.114C88.8207 32.7276 90.7001 33.4675 92.7194 33.3732C95.305 33.2518 97.2906 32.0989 98.8531 30.2903C99.0065 30.3071 99.1548 30.3274 99.2981 30.3459Z" fill="#78402B"/>
</g>
<path opacity="0.31" d="M93.7541 150.164L93.1793 215.396H47.0106C63.5374 198.848 84.2982 165.467 93.7541 150.164Z" fill="url(#paint28_linear_108_2548)"/>
<path opacity="0.4" d="M79.2534 142.805C79.2534 136.341 73.9928 131.083 67.5287 131.083C61.0647 131.083 55.8058 136.341 55.8058 142.805C55.8058 149.269 61.0647 154.528 67.5287 154.528C70.347 154.528 72.9343 153.528 74.9569 151.866C75.1255 151.856 75.2907 151.795 75.4238 151.674C75.557 151.554 75.6311 151.401 75.6581 151.239C77.8712 149.104 79.2534 146.115 79.2534 142.805ZM76.9829 142.805C76.9829 145.345 75.9733 147.652 74.3383 149.353L69.9643 144.537C70.2964 144.062 70.4919 143.482 70.4919 142.855C70.4919 142.67 70.4734 142.486 70.4397 142.306L74.9198 136.917C76.2093 138.534 76.9829 140.58 76.9829 142.805ZM73.8765 135.803L69.6913 140.838C69.1519 140.258 68.3833 139.892 67.5287 139.892C66.8276 139.892 66.182 140.138 65.6746 140.548C64.1846 138.933 62.3575 136.954 61.24 135.752C62.9137 134.261 65.115 133.349 67.527 133.349C69.9694 133.349 72.1977 134.279 73.8765 135.803ZM60.1949 136.848C61.3023 138.036 63.1177 140.005 64.7661 141.795C64.6397 142.124 64.5672 142.479 64.5672 142.855C64.5672 143.118 64.606 143.376 64.6701 143.619L58.8246 146.494C58.3425 145.358 58.0745 144.113 58.0745 142.803C58.0745 140.548 58.8718 138.473 60.1949 136.848ZM59.5308 147.833L65.4218 144.935C65.9595 145.48 66.7045 145.817 67.5304 145.817C67.9923 145.817 68.4271 145.709 68.8165 145.522L73.2107 150.356C71.628 151.548 69.6593 152.259 67.5304 152.259C64.1644 152.261 61.2046 150.489 59.5308 147.833Z" fill="url(#paint29_linear_108_2548)"/>
<path opacity="0.21" d="M62.3997 107.031C54.5788 109.996 42.0384 116.881 35.3046 131.082L34 108.054C34.4602 108.09 47.599 107.272 62.3997 107.031Z" fill="url(#paint30_linear_108_2548)"/>
<path d="M76.5262 134.989C75.0396 132.665 72.7523 130.893 70.052 130.074C68.975 129.747 67.8322 129.57 66.6456 129.57C60.4259 129.57 55.317 134.443 54.9462 140.572C54.931 140.809 54.9226 141.047 54.9226 141.291C54.9226 144.634 56.3267 147.651 58.5752 149.788C60.6821 151.786 63.5222 153.014 66.6439 153.014C69.4621 153.014 72.0528 152.015 74.0771 150.353C74.2423 150.344 74.4092 150.279 74.544 150.157C74.6738 150.041 74.748 149.888 74.7766 149.722C76.988 147.59 78.3685 144.598 78.3685 141.291C78.3668 138.975 77.6943 136.815 76.5262 134.989ZM66.005 131.861C66.2174 131.844 66.4281 131.837 66.6439 131.837C69.0896 131.837 71.3145 132.768 72.9933 134.291L68.8081 139.326C68.267 138.746 67.5001 138.382 66.6439 138.382C65.9444 138.382 65.2988 138.628 64.7915 139.038C63.5442 137.681 62.0609 136.075 60.9619 134.883C60.7445 134.65 60.5422 134.435 60.3618 134.236C61.8839 132.88 63.8425 132.004 66.005 131.861ZM57.9431 144.983C57.4593 143.847 57.1913 142.601 57.1913 141.293C57.1913 139.776 57.5504 138.342 58.1942 137.071C58.5027 136.452 58.8786 135.871 59.3134 135.338C59.4466 135.476 59.5865 135.633 59.7365 135.793C60.8507 136.99 62.4317 138.706 63.8846 140.282C63.7565 140.612 63.6824 140.969 63.6824 141.344C63.6824 141.61 63.7211 141.864 63.7869 142.109L57.9431 144.983ZM66.6439 150.746C64.36 150.746 62.2615 149.928 60.6298 148.575C59.8545 147.936 59.1853 147.172 58.6477 146.323L64.5403 143.424C65.0763 143.968 65.823 144.305 66.6456 144.305H66.6995C67.1411 144.297 67.5574 144.189 67.9316 144.01L72.3258 148.843C70.7431 150.038 68.7761 150.746 66.6439 150.746ZM73.4551 147.841L69.0828 143.026C69.307 142.704 69.4688 142.331 69.5481 141.932C69.5885 141.741 69.6087 141.546 69.6087 141.344C69.6087 141.158 69.5902 140.971 69.5548 140.797L74.0316 135.405C74.3687 135.825 74.6687 136.275 74.9283 136.749C75.6733 138.099 76.0981 139.65 76.0981 141.293C76.0998 143.831 75.0935 146.139 73.4551 147.841Z" fill="#666E7B"/>
<path opacity="0.48" d="M78.3668 141.291C78.3668 144.598 76.9864 147.59 74.7749 149.723C74.748 149.888 74.6721 150.039 74.5423 150.157C74.4075 150.279 74.2406 150.345 74.0754 150.353C72.0511 152.015 69.4604 153.014 66.6422 153.014C63.5189 153.014 60.6787 151.786 58.5735 149.788C59.273 149.394 59.9573 148.989 60.6282 148.573C62.2615 149.927 64.3583 150.744 66.6422 150.744C68.7744 150.744 70.7414 150.036 72.3225 148.843L67.9283 144.01C67.5541 144.187 67.1377 144.297 66.6961 144.305C67.7007 143.506 68.6547 142.711 69.5464 141.93C69.4671 142.33 69.3037 142.704 69.0812 143.024L73.4535 147.84C75.0901 146.137 76.0981 143.83 76.0981 141.29C76.0981 139.645 75.6733 138.094 74.9283 136.746C75.5368 136.098 76.0711 135.508 76.5245 134.988C77.6943 136.815 78.3668 138.976 78.3668 141.291Z" fill="#666E7B"/>
<path opacity="0.21" d="M66.0052 131.861C63.8427 132.005 61.8841 132.88 60.3603 134.237C60.5407 134.436 60.7429 134.652 60.9604 134.884C60.5474 135.178 60.1378 135.481 59.735 135.793C59.585 135.631 59.4434 135.476 59.3119 135.338C58.8771 135.87 58.5029 136.452 58.1927 137.071C56.9859 138.136 55.8734 139.306 54.943 140.573C55.3138 134.443 60.4227 129.572 66.6423 129.572C67.8307 129.572 68.9735 129.747 70.0488 130.076C68.9886 130.46 67.5761 131.062 66.0052 131.861Z" fill="url(#paint31_linear_108_2548)"/>
<path opacity="0.21" d="M112.521 155.841C112.521 155.841 114.901 155.966 116.236 155.335C116.236 155.335 115.681 156.974 113.979 156.974C112.277 156.974 112.521 155.841 112.521 155.841Z" fill="#183A49"/>
<path opacity="0.21" d="M141.834 155.779C141.834 155.779 144.106 156.974 145.556 156.657C145.556 156.657 144.986 157.552 143.695 157.54C141.706 157.523 141.834 155.779 141.834 155.779Z" fill="#183A49"/>
<path d="M95.4533 53.8907C95.4533 54.2311 95.1752 54.5076 94.8364 54.5076C94.4959 54.5076 94.2195 54.2311 94.2195 53.8907C94.2195 53.5519 94.4959 53.2771 94.8364 53.2771C95.1752 53.2754 95.4533 53.5502 95.4533 53.8907Z" fill="#301E16"/>
<path d="M106.998 50.1525C106.998 50.4913 106.719 50.7695 106.381 50.7695C106.04 50.7695 105.764 50.4913 105.764 50.1525C105.764 49.8104 106.04 49.5356 106.381 49.5356C106.719 49.5356 106.998 49.8104 106.998 50.1525Z" fill="#301E16"/>
<path d="M103.952 71.0193L103.257 73.9454C103.257 73.9454 100.886 73.1937 100.129 72.2902C100.129 72.2902 99.2389 71.0294 98.8563 69.5293C98.8563 69.5293 101.016 71.4053 103.952 71.0193Z" fill="#E2FBFF"/>
<path opacity="0.46" d="M103.257 73.9455L103.952 71.0194L104.242 70.9604L106.559 72.8061C106.559 72.8061 105.234 72.5685 104.498 71.7375C104.498 71.7375 103.905 73.7551 103.257 73.9455Z" fill="#B0CCCD"/>
<path d="M54.1237 84.775C54.1221 84.775 54.1221 84.775 54.1237 84.775C46.4191 85.8453 41.2058 85.8436 39.0179 82.5265C37.6425 80.4381 37.7993 78.6177 38.1735 77.4564C38.5881 76.172 39.4376 75.1843 40.0191 74.8219C39.8169 73.5223 39.141 66.9285 45.7719 64.7323C46.4815 64.4963 47.1793 64.3311 47.8434 64.2384C52.5427 63.5861 54.8199 66.6942 55.516 67.901C56.052 67.1779 57.3482 65.7773 59.5091 65.4772C59.8765 65.4267 60.2574 65.4098 60.6417 65.4317C63.7735 65.5834 64.3685 68.8062 64.478 69.8765C64.5657 69.8613 64.6516 69.8479 64.7359 69.8394C66.8091 69.5512 68.4728 69.9777 69.683 71.1103C71.1258 72.4638 71.8405 74.8303 71.6399 77.6047C71.3281 81.9366 66.4569 82.899 57.8741 84.2222C56.7262 84.3975 55.3963 84.5997 54.1237 84.775ZM47.9226 64.8199C47.2922 64.9041 46.6315 65.0643 45.9556 65.2868C39.1292 67.5521 40.5652 74.6179 40.6293 74.9196C40.6596 75.0595 40.5838 75.2028 40.4473 75.2534C40.1304 75.3747 39.1814 76.2327 38.7297 77.6351C38.396 78.6734 38.2594 80.3083 39.5067 82.2012C41.5159 85.252 46.7697 85.2031 54.0395 84.1935C55.307 84.0199 56.6369 83.816 57.7797 83.6423C66.8041 82.2501 70.7853 81.2539 71.0517 77.5626C71.2404 74.9652 70.5932 72.7689 69.2785 71.5385C68.1036 70.4378 66.4097 70.0889 64.264 70.512C64.1797 70.5288 64.092 70.5069 64.0229 70.4513C63.9555 70.3973 63.9167 70.3147 63.9151 70.2288C63.9117 70.0636 63.8004 66.1717 60.6097 66.0132C60.2625 65.9981 59.917 66.0132 59.5849 66.0588C57.0043 66.4178 55.7503 68.5972 55.7368 68.6208C55.6829 68.7168 55.5767 68.7742 55.4654 68.7691C55.3542 68.759 55.2547 68.6916 55.2109 68.5905C55.1368 68.4034 53.2405 64.0782 47.9226 64.8199Z" fill="#767676"/>
<path d="M146.333 45.5257L147.761 30.0524C147.776 29.8704 147.658 29.7001 147.486 29.6529L146.764 29.449C147.327 28.1275 148.885 23.9305 147.54 20.9538C146.931 19.6088 145.815 18.6969 144.223 18.2435C142.628 17.7884 141.178 17.9721 139.916 18.7879C137.13 20.5914 136.102 24.9452 135.837 26.3341L134.617 25.9885C134.43 25.9346 134.232 26.029 134.16 26.2077C131.906 31.6975 128.49 39.987 128.272 40.4151C128.215 40.5129 128.203 40.6325 128.244 40.7387C128.286 40.8517 128.38 40.9393 128.498 40.9747L145.846 45.9184H145.849C146.051 45.9757 146.264 45.8594 146.321 45.6571C146.329 45.6099 146.336 45.5661 146.333 45.5257ZM140.329 19.4267C141.399 18.7356 142.638 18.584 144.012 18.975C145.382 19.3627 146.333 20.1347 146.844 21.264C148.079 23.9996 146.501 28.1123 146.024 29.2332L136.575 26.5397C136.804 25.3329 137.774 21.0836 140.329 19.4267ZM129.125 40.3595C129.933 38.4902 132.842 31.4227 134.735 26.8111L146.97 30.2951L145.61 45.0571L129.125 40.3595Z" fill="#767676"/>
<path d="M140.488 31.7664C139.303 31.4664 138.332 34.9403 138.224 35.3364C137.856 36.6966 137.617 38.3754 138.539 38.64C138.991 38.7665 139.424 38.4749 139.828 37.7686C140.103 37.2832 140.383 36.5803 140.609 35.7864C140.784 35.1729 141.605 32.0833 140.488 31.7664ZM139.512 36.6612C139.144 37.5748 138.847 37.8579 138.751 37.8984C138.687 37.8141 138.583 37.4163 138.756 36.4353C139.056 34.7481 139.859 32.9513 140.272 32.5687C140.418 33.1148 140.15 35.07 139.512 36.6612Z" fill="#767676"/>
<path d="M163.471 119.31C162.964 118.53 161.932 117.891 160.812 117.39C161.43 117.323 162.015 117.176 162.494 116.907C163.079 116.578 163.461 116.096 163.63 115.479C163.776 114.94 163.691 114.419 163.372 113.928C162.88 113.168 161.853 112.575 160.724 112.123L161.054 110.663C161.107 110.422 160.957 110.181 160.714 110.129C160.475 110.073 160.233 110.225 160.181 110.466L159.878 111.818C159.632 111.735 159.386 111.659 159.141 111.589L159.507 109.974C159.561 109.733 159.409 109.495 159.168 109.44C158.929 109.386 158.688 109.537 158.636 109.777L158.278 111.359C157.211 111.098 156.347 110.963 156.127 110.931C155.883 110.896 155.659 111.063 155.622 111.305C155.585 111.552 155.76 111.779 155.998 111.816C156.257 111.852 156.598 111.916 156.985 111.993C156.982 112.012 156.97 112.03 156.965 112.052L154.772 121.769C154.201 121.613 153.839 121.493 153.823 121.488C153.594 121.412 153.338 121.537 153.259 121.771C153.179 122.009 153.308 122.256 153.542 122.337C153.628 122.368 154.447 122.637 155.58 122.892C155.733 122.927 155.892 122.961 156.055 122.995C156.023 123.133 155.989 123.29 155.954 123.45L155.752 124.353C155.701 124.593 155.851 124.83 156.09 124.884C156.333 124.936 156.572 124.783 156.623 124.547C156.712 124.129 156.846 123.537 156.933 123.157C157.087 123.178 157.243 123.202 157.398 123.224L157.137 124.39C157.082 124.631 157.235 124.869 157.474 124.923C157.715 124.979 157.955 124.829 158.005 124.589L158.292 123.322C159.767 123.448 161.282 123.36 162.356 122.755C163.109 122.329 163.588 121.69 163.776 120.861C163.894 120.33 163.793 119.807 163.471 119.31ZM162.624 114.419C162.802 114.69 162.848 114.955 162.769 115.243C162.662 115.627 162.43 115.915 162.054 116.13C160.869 116.799 158.72 116.514 157.486 116.268C157.284 116.215 157.108 116.173 156.958 116.14L157.837 112.248C157.842 112.224 157.842 112.202 157.848 112.182C159.659 112.615 161.944 113.375 162.624 114.419ZM161.916 121.975C160.355 122.855 157.506 122.417 155.639 121.983L156.76 117.026C156.916 117.065 157.117 117.107 157.341 117.153C159.123 117.611 161.916 118.557 162.72 119.794C162.908 120.085 162.969 120.369 162.903 120.662C162.772 121.247 162.45 121.677 161.916 121.975Z" fill="#767676"/>
<path d="M163.527 108.696C162.592 107.865 161.509 107.186 160.303 106.704C159.77 106.493 159.214 106.32 158.639 106.186C156.953 105.806 155.273 105.838 153.694 106.212C153.662 106.217 153.633 106.224 153.596 106.232C152.708 106.451 151.85 106.78 151.047 107.21C151.015 107.221 150.983 107.238 150.955 107.258C150.092 107.727 149.288 108.31 148.576 108.995C148.571 108.996 148.571 109.003 148.565 109.003C148.549 109.018 148.534 109.033 148.519 109.049C147.794 109.75 147.166 110.554 146.655 111.447C146.635 111.472 146.619 111.499 146.608 111.526V111.53C146.154 112.329 145.797 113.193 145.557 114.117C145.522 114.245 145.487 114.378 145.458 114.513C145.261 115.388 145.175 116.259 145.19 117.122C145.19 117.126 145.19 117.127 145.19 117.129C145.205 118.186 145.375 119.219 145.686 120.207C145.686 120.212 145.686 120.212 145.689 120.214C145.689 120.217 145.689 120.22 145.692 120.222C145.699 120.254 145.708 120.281 145.718 120.31C145.987 121.146 146.355 121.946 146.81 122.685C146.81 122.688 146.815 122.691 146.815 122.698C146.818 122.706 146.822 122.717 146.828 122.725C146.84 122.75 146.855 122.771 146.872 122.791C146.876 122.796 146.879 122.801 146.879 122.806C147.334 123.529 147.87 124.195 148.48 124.798C148.48 124.798 148.48 124.802 148.484 124.805C148.487 124.807 148.489 124.81 148.494 124.813C148.5 124.825 148.509 124.834 148.519 124.844C148.524 124.852 148.531 124.854 148.539 124.861C148.546 124.869 148.554 124.874 148.563 124.886C148.563 124.886 148.565 124.886 148.566 124.888C149.969 126.239 151.747 127.241 153.781 127.701C154.638 127.893 155.494 127.979 156.337 127.969C157.621 127.955 158.877 127.716 160.053 127.271H160.057C163.424 126.015 166.116 123.135 166.966 119.372C167.879 115.324 166.428 111.278 163.527 108.696ZM154.624 106.935C155.273 106.832 155.932 106.793 156.601 106.819C156.03 106.937 155.472 107.1 154.927 107.309C154.815 107.169 154.713 107.043 154.624 106.935ZM153.613 107.151H153.616C153.727 107.262 153.898 107.462 154.073 107.68C153.604 107.909 153.147 108.172 152.709 108.469L151.974 107.746C152.499 107.499 153.048 107.304 153.613 107.151ZM149.583 109.286C150.068 108.87 150.589 108.497 151.14 108.177L151.983 109.006C151.568 109.34 151.175 109.706 150.816 110.095L149.583 109.286ZM148.918 109.918L150.235 110.785C149.975 111.113 149.739 111.457 149.522 111.82L147.725 111.413C148.076 110.876 148.475 110.373 148.918 109.918ZM146.554 113.884C146.736 113.301 146.968 112.745 147.25 112.221L149.075 112.634C148.811 113.163 148.591 113.723 148.414 114.307L146.554 113.886V113.884ZM146.321 114.751L148.194 115.172C148.079 115.717 148.003 116.261 147.975 116.799V116.802L146.082 116.718C146.097 116.069 146.176 115.411 146.321 114.751ZM146.439 119.608C146.264 118.963 146.146 118.297 146.1 117.614V117.613L147.963 117.695C147.973 118.231 148.023 118.766 148.116 119.29L146.441 119.61C146.442 119.61 146.442 119.61 146.439 119.608ZM146.717 120.468L148.31 120.165C148.406 120.525 148.521 120.878 148.649 121.223L147.386 121.913C147.125 121.452 146.904 120.969 146.717 120.468ZM148.833 123.885C148.833 123.883 148.829 123.883 148.829 123.883C148.475 123.5 148.153 123.096 147.862 122.673L148.999 122.049C149.173 122.415 149.362 122.771 149.576 123.113L148.833 123.885ZM150.459 125.282C150.112 125.044 149.781 124.783 149.473 124.505L150.095 123.866C150.329 124.19 150.584 124.497 150.857 124.786L150.459 125.282ZM151.223 125.759L151.494 125.42C151.934 125.825 152.411 126.194 152.92 126.519C152.32 126.319 151.754 126.064 151.223 125.759ZM156.438 127.072C154.611 126.629 153.021 125.702 151.774 124.458C149.905 122.59 148.814 120.011 148.853 117.287C148.863 116.61 148.94 115.922 149.095 115.234C150.232 110.193 155.044 106.91 160.075 107.575C164.557 109.421 167.196 114.291 166.096 119.174C165.051 123.799 160.979 126.973 156.438 127.072Z" fill="#767676"/>
<defs>
<linearGradient id="paint0_linear_108_2548" x1="156.786" y1="84.5275" x2="130.078" y2="194.641" gradientUnits="userSpaceOnUse">
<stop stop-color="#FFD83B"/>
<stop offset="1" stop-color="#F4C62F"/>
</linearGradient>
<linearGradient id="paint1_linear_108_2548" x1="147.154" y1="82.1886" x2="120.446" y2="192.301" gradientUnits="userSpaceOnUse">
<stop stop-color="#FFD83B"/>
<stop offset="1" stop-color="#F4C62F"/>
</linearGradient>
<linearGradient id="paint2_linear_108_2548" x1="142.799" y1="81.1352" x2="116.091" y2="191.247" gradientUnits="userSpaceOnUse">
<stop stop-color="#FFD83B"/>
<stop offset="1" stop-color="#F4C62F"/>
</linearGradient>
<linearGradient id="paint3_linear_108_2548" x1="138.973" y1="113.389" x2="118.819" y2="196.479" gradientUnits="userSpaceOnUse">
<stop stop-color="#FFD83B"/>
<stop offset="1" stop-color="#F4C62F"/>
</linearGradient>
<linearGradient id="paint4_linear_108_2548" x1="63.8705" y1="103.711" x2="68.9121" y2="217.91" gradientUnits="userSpaceOnUse">
<stop stop-color="#9BA5B5"/>
<stop offset="1" stop-color="#959AA4"/>
</linearGradient>
<linearGradient id="paint5_linear_108_2548" x1="84.0175" y1="106.117" x2="84.7135" y2="121.882" gradientUnits="userSpaceOnUse">
<stop stop-color="#9BA5B5"/>
<stop offset="1" stop-color="#959AA4"/>
</linearGradient>
<linearGradient id="paint6_linear_108_2548" x1="108.588" y1="37.4045" x2="91.3818" y2="61.2922" gradientUnits="userSpaceOnUse">
<stop stop-color="#F0B885"/>
<stop offset="1" stop-color="#F18E68"/>
</linearGradient>
<linearGradient id="paint7_linear_108_2548" x1="139.536" y1="110.637" x2="117.856" y2="151.477" gradientUnits="userSpaceOnUse">
<stop stop-color="#183A49"/>
<stop offset="1" stop-color="#0F3142"/>
</linearGradient>
<linearGradient id="paint8_linear_108_2548" x1="113.734" y1="66.3709" x2="131.169" y2="115.783" gradientUnits="userSpaceOnUse">
<stop stop-color="#183A49"/>
<stop offset="1" stop-color="#0F3142"/>
</linearGradient>
<linearGradient id="paint9_linear_108_2548" x1="113.276" y1="64.9341" x2="131.249" y2="115.801" gradientUnits="userSpaceOnUse">
<stop stop-color="#183A49"/>
<stop offset="1" stop-color="#0F3142"/>
</linearGradient>
<linearGradient id="paint10_linear_108_2548" x1="111.942" y1="61.1029" x2="131.312" y2="115.915" gradientUnits="userSpaceOnUse">
<stop stop-color="#183A49"/>
<stop offset="1" stop-color="#0F3142"/>
</linearGradient>
<linearGradient id="paint11_linear_108_2548" x1="113.531" y1="65.8015" x2="131.185" y2="115.795" gradientUnits="userSpaceOnUse">
<stop stop-color="#183A49"/>
<stop offset="1" stop-color="#0F3142"/>
</linearGradient>
<linearGradient id="paint12_linear_108_2548" x1="102.527" y1="68.9437" x2="120.427" y2="119.617" gradientUnits="userSpaceOnUse">
<stop stop-color="#183A49"/>
<stop offset="1" stop-color="#0F3142"/>
</linearGradient>
<linearGradient id="paint13_linear_108_2548" x1="99.3404" y1="75.131" x2="95.4712" y2="63.9069" gradientUnits="userSpaceOnUse">
<stop stop-color="#F0B885"/>
<stop offset="1" stop-color="#F18E68"/>
</linearGradient>
<linearGradient id="paint14_linear_108_2548" x1="104.595" y1="73.2358" x2="100.751" y2="62.0811" gradientUnits="userSpaceOnUse">
<stop stop-color="#F0B885"/>
<stop offset="1" stop-color="#F18E68"/>
</linearGradient>
<linearGradient id="paint15_linear_108_2548" x1="112.098" y1="52.3681" x2="103.795" y2="28.2745" gradientUnits="userSpaceOnUse">
<stop stop-color="#58290D"/>
<stop offset="1" stop-color="#5F2203"/>
</linearGradient>
<linearGradient id="paint16_linear_108_2548" x1="109.815" y1="32.8096" x2="83.3467" y2="54.3625" gradientUnits="userSpaceOnUse">
<stop stop-color="#F0B885"/>
<stop offset="1" stop-color="#F18E68"/>
</linearGradient>
<linearGradient id="paint17_linear_108_2548" x1="111.377" y1="34.6784" x2="84.7806" y2="56.3351" gradientUnits="userSpaceOnUse">
<stop stop-color="#F0B885"/>
<stop offset="1" stop-color="#F18E68"/>
</linearGradient>
<linearGradient id="paint18_linear_108_2548" x1="84.818" y1="53.6901" x2="101.551" y2="29.5361" gradientUnits="userSpaceOnUse">
<stop stop-color="#58290D"/>
<stop offset="1" stop-color="#5F2203"/>
</linearGradient>
<linearGradient id="paint19_linear_108_2548" x1="95.2004" y1="49.7833" x2="94.118" y2="46.6423" gradientUnits="userSpaceOnUse">
<stop stop-color="#58290D"/>
<stop offset="1" stop-color="#5F2203"/>
</linearGradient>
<linearGradient id="paint20_linear_108_2548" x1="106.334" y1="46.4206" x2="105.48" y2="43.4671" gradientUnits="userSpaceOnUse">
<stop stop-color="#58290D"/>
<stop offset="1" stop-color="#5F2203"/>
</linearGradient>
<linearGradient id="paint21_linear_108_2548" x1="99.3017" y1="56.0496" x2="92.7423" y2="37.0165" gradientUnits="userSpaceOnUse">
<stop stop-color="#58290D"/>
<stop offset="1" stop-color="#5F2203"/>
</linearGradient>
<linearGradient id="paint22_linear_108_2548" x1="108.957" y1="128.329" x2="103.551" y2="112.645" gradientUnits="userSpaceOnUse">
<stop stop-color="#F0B885"/>
<stop offset="1" stop-color="#F18E68"/>
</linearGradient>
<linearGradient id="paint23_linear_108_2548" x1="146.269" y1="78.7191" x2="140.971" y2="63.3472" gradientUnits="userSpaceOnUse">
<stop stop-color="#F0B885"/>
<stop offset="1" stop-color="#F18E68"/>
</linearGradient>
<linearGradient id="paint24_linear_108_2548" x1="154.004" y1="75.6784" x2="142.166" y2="74.7879" gradientUnits="userSpaceOnUse">
<stop stop-color="#F0B885"/>
<stop offset="1" stop-color="#F18E68"/>
</linearGradient>
<linearGradient id="paint25_linear_108_2548" x1="159.691" y1="68.5349" x2="144.494" y2="68.7165" gradientUnits="userSpaceOnUse">
<stop stop-color="#F0B885"/>
<stop offset="1" stop-color="#F18E68"/>
</linearGradient>
<linearGradient id="paint26_linear_108_2548" x1="159.753" y1="70.3184" x2="143.078" y2="71.238" gradientUnits="userSpaceOnUse">
<stop stop-color="#F0B885"/>
<stop offset="1" stop-color="#F18E68"/>
</linearGradient>
<linearGradient id="paint27_linear_108_2548" x1="168.617" y1="74.4802" x2="138.089" y2="72.6694" gradientUnits="userSpaceOnUse">
<stop stop-color="#F0B885"/>
<stop offset="1" stop-color="#F18E68"/>
</linearGradient>
<linearGradient id="paint28_linear_108_2548" x1="68.9127" y1="149.478" x2="71.9022" y2="217.19" gradientUnits="userSpaceOnUse">
<stop stop-color="#9BA5B5"/>
<stop offset="1" stop-color="#959AA4"/>
</linearGradient>
<linearGradient id="paint29_linear_108_2548" x1="55.8061" y1="142.805" x2="79.253" y2="142.805" gradientUnits="userSpaceOnUse">
<stop stop-color="#9BA5B5"/>
<stop offset="1" stop-color="#959AA4"/>
</linearGradient>
<linearGradient id="paint30_linear_108_2548" x1="48.1656" y1="106.779" x2="49.225" y2="130.771" gradientUnits="userSpaceOnUse">
<stop stop-color="#9BA5B5"/>
<stop offset="1" stop-color="#959AA4"/>
</linearGradient>
<linearGradient id="paint31_linear_108_2548" x1="54.9454" y1="135.071" x2="70.0519" y2="135.071" gradientUnits="userSpaceOnUse">
<stop stop-color="#9BA5B5"/>
<stop offset="1" stop-color="#959AA4"/>
</linearGradient>
</defs>
</svg>
