<svg width="236" height="236" viewBox="0 0 236 236" fill="none" xmlns="http://www.w3.org/2000/svg">
<path d="M73.2931 193.368H80.6912L80.9206 182.387L8.20288 144.819V152.722C8.20288 156.857 10.5029 160.65 14.1699 162.56L73.2931 193.368Z" fill="#C0BAC4"/>
<path d="M80.9206 182.387L80.6912 193.368H87.2557L219.093 117.698C224.463 114.617 227.778 108.902 227.789 102.712L227.797 98.0854L80.9206 182.387Z" fill="#E2DFE8"/>
<path d="M64.977 182.497L13.3719 152.703C5.70988 148.279 6.67984 140.481 15.527 135.373L141.007 62.9271C149.854 57.8191 163.361 57.2594 171.023 61.6829L222.628 91.477C230.29 95.9006 229.32 103.699 220.473 108.807L94.9934 181.253C86.1462 186.361 72.639 186.921 64.977 182.497Z" fill="#EDE8EC"/>
<path d="M202.062 90.1049L175.239 74.6181C174.606 74.2528 174.686 73.6089 175.417 73.187C176.148 72.765 177.263 72.7188 177.896 73.0841L204.719 88.5709C205.352 88.9362 205.272 89.58 204.541 90.002C203.811 90.4244 202.695 90.4702 202.062 90.1049Z" fill="#A7ADAD"/>
<path d="M94.3849 174.044L28.0132 135.724L146.11 67.5408L212.482 105.861L94.3849 174.044Z" fill="url(#paint0_linear_108_751)"/>
<path d="M49.9649 166.837C55.1948 166.837 59.4346 164.39 59.4346 161.37C59.4346 158.351 55.1948 155.903 49.9649 155.903C44.7349 155.903 40.4951 158.351 40.4951 161.37C40.4951 164.39 44.7349 166.837 49.9649 166.837Z" fill="#A7ADAD"/>
<path d="M95.0345 77.3636C100.38 64.8029 98.9524 52.169 91.8463 49.145C84.7402 46.1209 74.6464 53.8518 69.3011 66.4125C63.9558 78.9731 65.3832 91.607 72.4893 94.6311C79.5954 97.6551 89.6892 89.9242 95.0345 77.3636Z" fill="#F7F072"/>
<path d="M98.1822 78.056C103.528 65.4953 102.1 52.8614 94.994 49.8374C87.8879 46.8133 77.7941 54.5442 72.4488 67.1048C67.1035 79.6655 68.5309 92.2994 75.637 95.3235C82.7431 98.3475 92.8369 90.6166 98.1822 78.056Z" fill="#FCD947"/>
<path d="M101.407 63.2856C101.407 75.1408 94.1994 88.9128 85.3079 94.0463V51.1151C94.1994 45.9816 101.407 51.4308 101.407 63.2856Z" fill="#FAD733"/>
<path d="M96.1686 77.199C100.677 66.6039 99.4735 55.947 93.4795 53.3962C87.4854 50.8454 78.9712 57.3665 74.4623 67.9616C69.9535 78.5567 71.1575 89.2136 77.1515 91.7644C83.1455 94.3152 91.6598 87.7941 96.1686 77.199Z" fill="#FE9B00"/>
<path d="M99.5368 64.366C99.5368 76.2604 92.8084 86.3574 85.3083 90.6875V54.4955C91.9503 49.9082 99.5368 53.4453 99.5368 64.366Z" fill="#E17900"/>
<path d="M89.2048 63.4951C89.2048 63.4951 89.1491 63.5126 89.1014 63.4951C88.9542 63.6056 88.7385 63.5687 88.5851 63.6721C89.0047 63.9478 89.0868 66.776 89.0868 66.8926C89.0868 67.0106 89.6768 71.3766 84.3276 73.5006L84.3531 74.3856C84.3531 74.3856 88.2457 72.55 88.9849 71.0197C88.9849 71.0197 90.0695 69.7581 90.0705 67.7176C90.0714 65.6776 90.3291 63.9662 89.2048 63.4951Z" fill="#FFEE58"/>
<path d="M89.8855 71.8884C89.8855 71.8884 89.8222 71.9083 89.7679 71.8884C89.6004 72.0145 89.3545 71.9724 89.1798 72.09C89.658 72.4043 89.7514 75.6267 89.7514 75.7598C89.7514 75.8943 90.4235 80.8692 84.3281 83.2896L84.3569 84.2978C84.3569 84.2978 88.7923 82.2063 89.6348 80.4623C89.6348 80.4623 90.871 79.0246 90.8719 76.6995C90.8729 74.3744 91.1665 72.4251 89.8855 71.8884Z" fill="#FFEE58"/>
<path d="M92.2858 72.0336C91.5712 71.5838 90.4993 71.571 89.0706 71.9944C90.226 70.8626 91.0912 69.7302 91.6656 68.5974C92.24 67.4642 92.527 66.3238 92.527 65.1764C92.527 63.801 92.1154 62.8962 91.2913 62.461C90.4672 62.0258 89.3179 62.2023 87.7659 63.0982L85.5565 64.4056V60.8765L83.838 61.8686V65.3978L79.8198 67.7176V68.7428L81.1532 67.973C81.4817 67.7832 81.7314 67.7375 81.9023 67.8352C82.0732 67.9329 82.1586 68.1726 82.1586 68.5554V84.7601C82.1586 84.9702 82.0717 85.2066 81.8971 85.4714C81.7225 85.7362 81.4473 85.9774 81.0716 86.1945L79.8203 86.9172V87.9428L83.8384 85.623V88.9864L85.557 87.9943V84.6308L87.4917 83.5136C88.6953 82.8188 89.7701 81.9291 90.7169 80.844C91.6637 79.7588 92.341 78.7115 92.7479 77.7004C93.1548 76.6899 93.3582 75.6831 93.3582 74.6796C93.3577 73.3651 93.0004 72.4834 92.2858 72.0336ZM88.6552 63.9902C89.1305 63.9662 89.493 64.155 89.7427 64.5566C89.9919 64.9593 90.117 65.647 90.117 66.6207C90.117 68.1953 89.8555 69.4796 89.3325 70.4732C88.8095 71.4672 88.1067 72.2186 87.225 72.7274L84.3534 74.3856V67.1772C84.3534 66.7765 84.4525 66.4395 84.6507 66.1657C84.849 65.8919 85.362 65.5162 86.1895 65.0381C87.3577 64.3636 88.1799 64.0143 88.6552 63.9902ZM89.9938 79.9693C89.4123 81.021 88.5136 81.8975 87.2963 82.6003L85.4607 83.6599C85.0434 83.9006 84.7546 83.9766 84.5941 83.8869C84.4332 83.7973 84.3529 83.5702 84.3529 83.2054V75.4112L87.4709 73.611C88.5306 72.9993 89.3613 72.9186 89.9631 73.3689C90.5644 73.8196 90.8656 74.7377 90.8656 76.123C90.8656 77.6362 90.5748 78.9187 89.9938 79.9693Z" fill="#FDD43A"/>
<path d="M92.2859 71.9984C91.5713 71.5486 90.4994 71.5354 89.0706 71.9592C90.2261 70.8274 91.0913 69.695 91.6657 68.5622C92.2401 67.429 92.5271 66.2886 92.5271 65.1412C92.5271 63.7658 92.1155 62.861 91.2914 62.4258C90.8307 62.1822 90.2554 62.1478 89.5672 62.3205V58.5256L87.8486 59.5178V63.0493C87.808 63.0719 87.7684 63.0932 87.7273 63.1168L86.5889 63.7743V64.7777C87.547 64.2505 88.2361 63.9763 88.6553 63.955C89.1306 63.931 89.4931 64.1198 89.7428 64.5214C89.992 64.9241 90.1171 65.6118 90.1171 66.5855C90.1171 68.1601 89.8556 69.4444 89.3326 70.438C88.8096 71.432 88.1068 72.1834 87.2251 72.6927L86.5893 73.0599V74.0851L87.4715 73.5758C88.5311 72.9641 89.3619 72.8834 89.9637 73.3337C90.565 73.7844 90.8661 74.7025 90.8661 76.0878C90.8661 77.6015 90.5754 78.8839 89.9943 79.9346C89.4128 80.9858 88.5142 81.8627 87.2969 82.5655L86.5893 82.9738V83.9995L87.4918 83.4784C87.6122 83.4085 87.7306 83.3358 87.8486 83.2622V86.6361L89.5672 85.6439V81.9737C89.9693 81.614 90.3526 81.2265 90.717 80.8092C91.6638 79.7241 92.3407 78.6767 92.748 77.6657C93.1549 76.6552 93.3583 75.6484 93.3583 74.6449C93.3578 73.3304 93.0005 72.4482 92.2859 71.9984Z" fill="#FFBF03"/>
<path d="M83.8376 61.8687L82.4788 61.3967V64.6115L83.8376 65.3979V61.8687Z" fill="#FFEE58"/>
<path d="M83.8376 65.3979L82.4787 64.6116L78.5063 66.9716L79.8195 67.7178L83.8376 65.3979Z" fill="#F4DF45"/>
<path d="M78.5063 66.9714V68.0334L79.8195 68.7433V67.7177L78.5063 66.9714Z" fill="#FFEE58"/>
<path d="M81.1528 67.9734L81.1722 84.981L81.8967 85.4719C81.8967 85.4719 82.1912 85.2821 82.1582 84.7606C82.1251 84.239 82.1582 68.5559 82.1582 68.5559C82.1582 68.5559 82.2233 67.3056 81.1528 67.9734Z" fill="#FFEE58"/>
<path d="M79.8194 86.9173L78.9778 86.636C78.9778 86.636 81.1721 85.4867 81.1716 84.9807L82.0963 85.1974C82.0963 85.1974 81.6564 86.2693 79.8194 86.9173Z" fill="#F4DF45"/>
<path d="M79.8194 87.943L78.9783 87.6413V86.636L79.8194 86.9173V87.943Z" fill="#FFEE58"/>
<path d="M82.4788 61.3967L84.5055 60.4414L85.5567 60.8761L83.8376 61.8687L82.4788 61.3967Z" fill="#F4DF45"/>
<path d="M86.5889 59.1443L88.2819 58.2239L89.5587 58.5359L87.8401 59.528L86.5889 59.1443Z" fill="#F4DF45"/>
<path d="M85.5076 62.9987L86.5889 62.4087L87.8482 63.0492L85.5567 64.4057L85.5076 62.9987Z" fill="#F4DF45"/>
<path d="M87.8482 59.5176L86.5889 59.1443V62.4086L87.8482 63.0491V59.5176Z" fill="#F4DF45"/>
<path d="M83.8376 85.623V88.9865L82.9507 88.7227V86.1352L83.8376 85.623Z" fill="#FFEE58"/>
<path d="M87.8482 86.6361L87.0415 86.4416V83.7734L87.8482 83.2622V86.6361Z" fill="#FFEE58"/>
<path d="M76.2862 95.5695L73.9653 95.0989L74.9523 94.9941L76.2862 95.5695Z" fill="#F7F072"/>
<path d="M89.6555 48.5588L93.5911 49.3886C93.5911 49.3886 92.2879 49.1819 91.9263 49.1833C91.5643 49.1842 89.6555 48.5588 89.6555 48.5588Z" fill="#F7F072"/>
<path d="M148.648 71.5025C153.993 58.9419 152.566 46.308 145.46 43.2839C138.354 40.2598 128.26 47.9907 122.915 60.5514C117.569 73.112 118.997 85.7459 126.103 88.77C133.209 91.7941 143.303 84.0631 148.648 71.5025Z" fill="#F7F072"/>
<path d="M151.796 72.1951C157.141 59.6345 155.713 47.0006 148.607 43.9765C141.501 40.9524 131.407 48.6834 126.062 61.244C120.717 73.8046 122.144 86.4386 129.25 89.4626C136.356 92.4867 146.45 84.7558 151.796 72.1951Z" fill="#FCD947"/>
<path d="M155.018 57.4272C155.018 69.2825 147.81 83.0545 138.919 88.188V45.2567C147.81 40.1233 155.018 45.572 155.018 57.4272Z" fill="#FAD733"/>
<path d="M149.782 71.3379C154.291 60.7428 153.087 50.0859 147.093 47.5351C141.099 44.9843 132.585 51.5054 128.076 62.1005C123.567 72.6956 124.771 83.3525 130.765 85.9033C136.759 88.4541 145.274 81.933 149.782 71.3379Z" fill="#FE9B00"/>
<path d="M153.148 58.5076C153.148 70.402 146.42 80.499 138.919 84.8291V48.6371C145.561 44.0492 153.148 47.5869 153.148 58.5076Z" fill="#E17900"/>
<path d="M142.816 57.6367C142.816 57.6367 142.76 57.6542 142.713 57.6367C142.565 57.7472 142.35 57.7108 142.196 57.8137C142.616 58.0894 142.698 60.9176 142.698 61.0342C142.698 61.1522 143.288 65.5182 137.939 67.6422L137.964 68.5272C137.964 68.5272 141.857 66.6916 142.596 65.1613C142.596 65.1613 143.681 63.8992 143.682 61.8592C143.682 59.8188 143.94 58.1078 142.816 57.6367Z" fill="#FFEE58"/>
<path d="M143.497 66.03C143.497 66.03 143.433 66.0499 143.379 66.03C143.211 66.1561 142.966 66.114 142.791 66.2316C143.269 66.5459 143.362 69.7683 143.362 69.9014C143.362 70.0359 144.035 75.0108 137.939 77.4312L137.968 78.4394C137.968 78.4394 142.403 76.348 143.246 74.6039C143.246 74.6039 144.482 73.1657 144.483 70.8411C144.483 68.5165 144.778 66.5667 143.497 66.03Z" fill="#FFEE58"/>
<path d="M145.897 66.1752C145.183 65.7254 144.111 65.7126 142.682 66.136C143.837 65.0042 144.703 63.8723 145.277 62.739C145.851 61.6058 146.138 60.4654 146.138 59.318C146.138 57.9426 145.727 57.0378 144.903 56.6026C144.079 56.1674 142.929 56.3439 141.377 57.2398L139.168 58.5472V55.0181L137.449 56.0102V59.5394L133.431 61.8592V62.8844L134.764 62.1146C135.093 61.9248 135.342 61.8791 135.513 61.9768C135.684 62.0745 135.769 62.3142 135.769 62.697V78.9017C135.769 79.1118 135.683 79.3482 135.508 79.613C135.333 79.8778 135.058 80.119 134.682 80.3361L133.431 81.0588V82.0844L137.449 79.7646V83.128L139.168 82.1359V78.7724L141.103 77.6552C142.306 76.9604 143.381 76.0707 144.328 74.9856C145.275 73.9004 145.952 72.8531 146.359 71.842C146.766 70.8319 146.97 69.8247 146.97 68.8212C146.969 67.5067 146.612 66.625 145.897 66.1752ZM142.267 58.1319C142.742 58.1078 143.104 58.2966 143.354 58.6982C143.603 59.1009 143.728 59.7886 143.728 60.7623C143.728 62.3369 143.467 63.6212 142.944 64.6148C142.421 65.6088 141.718 66.3602 140.836 66.8695L137.965 68.5277V61.3193C137.965 60.9185 138.064 60.5815 138.262 60.3078C138.46 60.034 138.973 59.6583 139.801 59.1802C140.969 58.5052 141.791 58.1559 142.267 58.1319ZM143.605 74.1109C143.024 75.1626 142.124 76.0391 140.908 76.7419L139.072 77.8015C138.655 78.0422 138.366 78.1182 138.205 78.0285C138.044 77.9389 137.964 77.7118 137.964 77.347V69.5524L141.082 67.7522C142.142 67.1404 142.973 67.0597 143.574 67.51C144.176 67.9608 144.477 68.8783 144.477 70.2641C144.477 71.7778 144.186 73.0603 143.605 74.1109Z" fill="#FDD43A"/>
<path d="M145.897 66.14C145.182 65.6902 144.11 65.6774 142.682 66.1008C143.837 64.969 144.702 63.8371 145.277 62.7038C145.851 61.5706 146.138 60.4302 146.138 59.2828C146.138 57.9074 145.727 57.0026 144.902 56.5674C144.441 56.3243 143.866 56.2894 143.178 56.4621V52.6672L141.46 53.6594V57.1909C141.419 57.2135 141.379 57.2348 141.338 57.2584L140.2 57.9159V58.9193C141.158 58.3921 141.847 58.1179 142.266 58.0967C142.742 58.0726 143.104 58.2614 143.354 58.6631C143.603 59.0657 143.728 59.7529 143.728 60.7271C143.728 62.3017 143.467 63.586 142.944 64.5796C142.421 65.5736 141.718 66.325 140.836 66.8343L140.2 67.2015V68.2267L141.083 67.7174C142.142 67.1057 142.973 67.025 143.575 67.4753C144.176 67.926 144.477 68.8436 144.477 70.2294C144.477 71.7431 144.186 73.0255 143.605 74.0762C143.024 75.1274 142.125 76.0043 140.908 76.7071L140.2 77.1159V78.1415L141.103 77.6205C141.223 77.5511 141.342 77.4779 141.46 77.4043V80.7781L143.178 79.786V76.1157C143.58 75.7561 143.964 75.3685 144.328 74.9508C145.275 73.8657 145.952 72.8183 146.359 71.8073C146.766 70.7968 146.969 69.79 146.969 68.7865C146.969 67.472 146.612 66.5898 145.897 66.14Z" fill="#FFBF03"/>
<path d="M137.449 56.0103L136.09 55.5383V58.7531L137.449 59.5395V56.0103Z" fill="#FFEE58"/>
<path d="M137.449 59.5395L136.09 58.7532L132.117 61.1132L133.431 61.8594L137.449 59.5395Z" fill="#F4DF45"/>
<path d="M132.117 61.113V62.175L133.431 62.8844V61.8593L132.117 61.113Z" fill="#FFEE58"/>
<path d="M134.764 62.1153L134.784 79.1228L135.508 79.6137C135.508 79.6137 135.803 79.424 135.77 78.9024C135.736 78.3809 135.77 62.6977 135.77 62.6977C135.77 62.6977 135.835 61.4474 134.764 62.1153Z" fill="#FFEE58"/>
<path d="M133.431 81.0589L132.589 80.7776C132.589 80.7776 134.783 79.6283 134.783 79.1223L135.708 79.339C135.708 79.339 135.268 80.4109 133.431 81.0589Z" fill="#F4DF45"/>
<path d="M133.431 82.0846L132.59 81.7829V80.7776L133.431 81.0589V82.0846Z" fill="#FFEE58"/>
<path d="M136.09 55.5383L138.117 54.583L139.168 55.0177L137.449 56.0103L136.09 55.5383Z" fill="#F4DF45"/>
<path d="M140.2 53.2859L141.893 52.3655L143.17 52.6775L141.451 53.6696L140.2 53.2859Z" fill="#F4DF45"/>
<path d="M139.119 57.1403L140.2 56.5503L141.459 57.1908L139.168 58.5469L139.119 57.1403Z" fill="#F4DF45"/>
<path d="M141.459 53.6592L140.2 53.2859V56.5502L141.459 57.1907V53.6592Z" fill="#F4DF45"/>
<path d="M137.449 79.7646V83.1281L136.562 82.8643V80.2768L137.449 79.7646Z" fill="#FFEE58"/>
<path d="M141.459 80.7777L140.653 80.5832V77.915L141.459 77.4038V80.7777Z" fill="#FFEE58"/>
<path d="M129.897 89.7111L127.576 89.2405L128.563 89.1357L129.897 89.7111Z" fill="#F7F072"/>
<path d="M143.267 42.7004L147.202 43.5302C147.202 43.5302 145.899 43.3235 145.537 43.3249C145.175 43.3258 143.267 42.7004 143.267 42.7004Z" fill="#F7F072"/>
<path d="M121.563 123.562C126.908 111.001 125.481 98.3675 118.375 95.3435C111.269 92.3194 101.175 100.05 95.8296 112.611C90.4843 125.172 91.9117 137.805 99.0178 140.83C106.124 143.854 116.218 136.123 121.563 123.562Z" fill="#F7F072"/>
<path d="M124.711 124.254C130.057 111.694 128.629 99.0599 121.523 96.0358C114.417 93.0118 104.323 100.743 98.9778 113.303C93.6325 125.864 95.0599 138.498 102.166 141.522C109.272 144.546 119.366 136.815 124.711 124.254Z" fill="#FCD947"/>
<path d="M127.933 109.483C127.933 121.338 120.725 135.11 111.833 140.244V97.3126C120.725 92.1786 127.933 97.6279 127.933 109.483Z" fill="#FAD733"/>
<path d="M122.698 123.397C127.207 112.802 126.003 102.145 120.009 99.5947C114.014 97.0438 105.5 103.565 100.991 114.16C96.4825 124.755 97.6865 135.412 103.681 137.963C109.675 140.514 118.189 133.993 122.698 123.397Z" fill="#FE9B00"/>
<path d="M126.062 110.563C126.062 122.458 119.334 132.555 111.834 136.885V100.693C118.476 96.1053 126.062 99.643 126.062 110.563Z" fill="#E17900"/>
<path d="M115.73 109.693C115.73 109.693 115.675 109.71 115.627 109.693C115.48 109.803 115.264 109.766 115.11 109.87C115.53 110.145 115.612 112.974 115.612 113.09C115.612 113.208 116.202 117.574 110.853 119.698L110.879 120.583C110.879 120.583 114.771 118.747 115.51 117.217C115.51 117.217 116.595 115.955 116.596 113.915C116.597 111.875 116.855 110.164 115.73 109.693Z" fill="#FFEE58"/>
<path d="M116.411 118.085C116.411 118.085 116.348 118.105 116.293 118.085C116.126 118.211 115.88 118.169 115.705 118.287C116.183 118.601 116.277 121.824 116.277 121.957C116.277 122.091 116.949 127.066 110.854 129.487L110.882 130.495C110.882 130.495 115.318 128.403 116.16 126.659C116.16 126.659 117.396 125.222 117.397 122.897C117.398 120.572 117.692 118.622 116.411 118.085Z" fill="#FFEE58"/>
<path d="M118.811 118.231C118.097 117.781 117.025 117.769 115.596 118.192C116.752 117.06 117.617 115.928 118.191 114.795C118.766 113.662 119.053 112.521 119.053 111.374C119.053 109.998 118.641 109.094 117.817 108.658C116.993 108.223 115.844 108.4 114.292 109.296L112.082 110.603V107.074L110.364 108.066V111.595L106.345 113.915V114.94L107.679 114.17C108.007 113.981 108.257 113.935 108.428 114.032C108.598 114.13 108.684 114.37 108.684 114.752V130.957C108.684 131.167 108.597 131.404 108.423 131.668C108.248 131.933 107.973 132.174 107.597 132.392L106.345 133.114V134.14L110.364 131.82V135.183L112.082 134.191V130.828L114.017 129.711C115.22 129.016 116.295 128.126 117.243 127.041C118.189 125.956 118.867 124.908 119.274 123.897C119.68 122.887 119.884 121.88 119.884 120.876C119.883 119.563 119.526 118.681 118.811 118.231ZM115.181 110.187C115.656 110.163 116.019 110.352 116.268 110.754C116.518 111.156 116.643 111.844 116.643 112.818C116.643 114.392 116.381 115.677 115.858 116.67C115.335 117.664 114.633 118.416 113.751 118.925L110.879 120.583V113.375C110.879 112.974 110.978 112.637 111.176 112.363C111.375 112.089 111.888 111.714 112.715 111.236C113.883 110.561 114.706 110.211 115.181 110.187ZM116.519 126.167C115.938 127.218 115.039 128.095 113.822 128.798L111.986 129.857C111.569 130.098 111.28 130.174 111.12 130.084C110.959 129.995 110.879 129.768 110.879 129.403V121.608L113.997 119.808C115.056 119.196 115.887 119.116 116.489 119.566C117.09 120.017 117.391 120.934 117.391 122.32C117.391 123.834 117.1 125.116 116.519 126.167Z" fill="#FDD43A"/>
<path d="M118.811 118.196C118.097 117.746 117.025 117.733 115.596 118.157C116.751 117.025 117.617 115.893 118.191 114.76C118.766 113.626 119.052 112.486 119.052 111.339C119.052 109.963 118.641 109.058 117.817 108.623C117.356 108.38 116.781 108.345 116.093 108.518V104.723L114.374 105.715V109.247C114.333 109.269 114.294 109.291 114.253 109.314L113.114 109.972V110.975C114.073 110.448 114.762 110.173 115.181 110.152C115.656 110.128 116.018 110.317 116.268 110.718C116.517 111.121 116.642 111.808 116.642 112.783C116.642 114.357 116.381 115.641 115.858 116.635C115.335 117.629 114.633 118.38 113.751 118.889L113.115 119.256V120.282L113.997 119.772C115.057 119.161 115.887 119.08 116.489 119.53C117.09 119.981 117.392 120.899 117.392 122.284C117.392 123.798 117.101 125.08 116.52 126.131C115.938 127.182 115.04 128.059 113.822 128.762L113.115 129.171V130.197L114.017 129.675C114.138 129.606 114.256 129.533 114.374 129.459V132.833L116.093 131.841V128.171C116.495 127.811 116.878 127.424 117.242 127.006C118.189 125.921 118.867 124.873 119.273 123.862C119.68 122.852 119.884 121.845 119.884 120.841C119.883 119.527 119.526 118.646 118.811 118.196Z" fill="#FFBF03"/>
<path d="M110.363 108.066L109.004 107.594V110.809L110.363 111.595V108.066Z" fill="#FFEE58"/>
<path d="M110.363 111.595L109.004 110.809L105.032 113.169L106.345 113.915L110.363 111.595Z" fill="#F4DF45"/>
<path d="M105.032 113.169V114.231L106.345 114.94V113.915L105.032 113.169Z" fill="#FFEE58"/>
<path d="M107.678 114.171L107.698 131.178L108.422 131.669C108.422 131.669 108.717 131.479 108.684 130.958C108.651 130.436 108.684 114.753 108.684 114.753C108.684 114.753 108.749 113.503 107.678 114.171Z" fill="#FFEE58"/>
<path d="M106.345 133.114L105.503 132.833C105.503 132.833 107.698 131.684 107.697 131.178L108.622 131.394C108.622 131.394 108.182 132.467 106.345 133.114Z" fill="#F4DF45"/>
<path d="M106.345 134.14L105.504 133.838V132.833L106.345 133.114V134.14Z" fill="#FFEE58"/>
<path d="M109.004 107.594L111.031 106.639L112.082 107.074L110.363 108.066L109.004 107.594Z" fill="#F4DF45"/>
<path d="M113.114 105.341L114.807 104.421L116.084 104.733L114.366 105.726L113.114 105.341Z" fill="#F4DF45"/>
<path d="M112.033 109.196L113.114 108.606L114.374 109.247L112.082 110.603L112.033 109.196Z" fill="#F4DF45"/>
<path d="M114.374 105.715L113.114 105.341V108.606L114.374 109.247V105.715Z" fill="#F4DF45"/>
<path d="M110.363 131.82V135.184L109.476 134.92V132.332L110.363 131.82Z" fill="#FFEE58"/>
<path d="M114.374 132.834L113.567 132.639V129.971L114.374 129.46V132.834Z" fill="#FFEE58"/>
<path d="M102.812 141.767L100.491 141.296L101.478 141.192L102.812 141.767Z" fill="#F7F072"/>
<path d="M116.181 94.7563L120.116 95.5861C120.116 95.5861 118.813 95.3794 118.452 95.3808C118.09 95.3817 116.181 94.7563 116.181 94.7563Z" fill="#F7F072"/>
<path opacity="0.63" d="M94.7563 136.885L130.112 113.915C130.112 113.915 140.184 132.655 126.063 140.244C111.941 147.833 96.0831 153.728 94.7563 136.885Z" fill="url(#paint1_linear_108_751)"/>
<defs>
<linearGradient id="paint0_linear_108_751" x1="28.0131" y1="120.792" x2="212.482" y2="120.792" gradientUnits="userSpaceOnUse">
<stop offset="0.2946" stop-color="#4A67A1"/>
<stop offset="0.8589" stop-color="#4A98A1"/>
</linearGradient>
<linearGradient id="paint1_linear_108_751" x1="52.6228" y1="179.336" x2="187.734" y2="84.1838" gradientUnits="userSpaceOnUse">
<stop offset="0.2946" stop-color="#4A67A1"/>
<stop offset="0.8589" stop-color="#4A98A1"/>
<stop offset="0.9994" stop-color="#4A98A1"/>
</linearGradient>
</defs>
</svg>
