<svg width="236" height="236" viewBox="0 0 236 236" fill="none" xmlns="http://www.w3.org/2000/svg">
<path d="M145.481 121.453C137.737 115.733 118.518 116.331 106.59 117.588C105.111 117.824 103.809 118.01 102.737 118.144L107.212 150.982C119.616 149.375 138.013 145.537 145.533 136.61C148.113 133.555 149.109 130.19 148.583 126.336C148.321 124.401 147.303 122.798 145.481 121.453Z" fill="url(#paint0_linear_108_2547)"/>
<path d="M177.463 106.782C172.937 73.5946 140.745 49.8107 107.576 54.3386C86.8423 57.1638 69.6879 70.656 60.8453 88.4715C55.5161 99.1587 53.1913 111.418 54.8922 123.872C59.4166 157.059 91.4784 181.434 124.666 176.908C141.771 174.58 156.471 164.838 166.085 151.406C175.118 138.763 179.66 122.86 177.463 106.782ZM127.62 161.487C127.845 163.076 126.72 164.552 125.133 164.762C123.545 164.985 122.067 163.864 121.843 162.275L120.799 154.539C119.79 154.766 118.777 154.972 117.783 155.182C118.136 157.733 118.681 160.405 119.066 163.149C119.306 164.757 118.199 165.232 116.594 165.232C116.594 165.232 116.594 165.232 116.579 165.232C114.99 166.652 113.531 165.555 113.306 163.969L112.471 158.595C112.325 157.551 112.165 156.815 112.038 155.883C110.978 156.059 109.935 156.375 108.94 156.504C101.398 157.53 95.7982 157.83 95.1879 157.843C93.5833 157.894 92.2189 156.682 92.1716 155.075C92.1225 153.456 93.4058 152.125 94.9799 152.079C95.0763 152.079 97.5634 151.974 101.415 151.621L97.0342 119.419L92.6534 87.2626C92.623 87.1189 92.6382 86.9904 92.6382 86.8467C90.0869 87.2474 87.872 87.6633 86.1711 88.0167C84.646 88.3548 83.0584 87.3607 82.7203 85.7883C82.3821 84.2142 83.3932 82.6604 84.9673 82.3205C86.396 82.0331 91.9653 80.8783 99.0732 80.0414L97.6445 69.5655C97.4349 67.9762 98.5592 66.4985 100.149 66.2905C101.738 66.0639 103.214 67.1866 103.422 68.7776L104.883 79.4801C106.519 79.3533 108.205 79.2552 109.891 79.1893L108.67 70.2536C108.462 68.6474 109.569 67.1714 111.174 66.9634C112.762 66.7386 114.222 67.8629 114.447 69.4657L115.763 79.1436C123.706 79.3194 131.328 80.6213 136.08 84.1195C139.146 86.3817 140.879 89.3676 141.198 92.9926C141.569 97.1484 140.331 100.966 137.507 104.321C135.196 107.065 131.955 109.296 128.344 111.111C136.321 111.608 144.071 113.148 148.949 116.758C152.061 119.052 153.876 122.021 154.357 125.551C155.11 131.058 153.651 136.031 149.992 140.364C148.756 141.842 147.295 143.174 145.659 144.41C140.476 148.324 133.544 151.117 126.482 153.109L127.62 161.487Z" fill="url(#paint1_linear_108_2547)"/>
<path d="M133.047 100.572C134.855 98.4216 135.617 96.1137 135.392 93.5302C135.213 91.5825 134.335 90.0777 132.616 88.813C126.073 83.9944 110.386 84.5658 98.3174 86.0554C98.358 86.1923 98.4002 86.3344 98.4205 86.4865L101.936 112.274C102.915 112.149 104.096 112.002 105.447 111.853C113.551 110.536 127.336 107.371 133.047 100.572Z" fill="url(#paint2_linear_108_2547)"/>
<path d="M147.344 117.834C142.468 114.226 134.702 112.684 126.732 112.18C130.352 110.375 133.593 108.145 135.899 105.4C138.721 102.039 139.966 98.23 139.592 94.0725C139.267 90.4441 137.541 87.4599 134.476 85.1875C129.716 81.6877 122.1 80.4027 114.161 80.2167L112.841 70.5338C112.625 68.9411 111.157 67.8151 109.564 68.0315C107.968 68.2513 106.852 69.729 107.069 71.3217L108.288 80.2658C106.59 80.3283 104.916 80.423 103.28 80.5498L101.821 69.8575C101.604 68.2614 100.135 67.1421 98.5372 67.3586C96.9479 67.5716 95.8253 69.0459 96.0434 70.642L97.4721 81.1196C90.3591 81.9565 84.783 83.0961 83.356 83.3987C81.7819 83.7335 80.7759 85.2822 81.1123 86.8648C81.4522 88.4321 83.0381 89.433 84.5682 89.0966C86.2556 88.7415 88.479 88.3273 91.0235 87.9232C91.0269 88.0584 91.0218 88.1988 91.0404 88.3391L99.8121 152.701C95.9571 153.063 93.4717 153.161 93.3787 153.163C91.803 153.215 90.5079 154.568 90.5603 156.179C90.6194 157.787 91.9704 159.041 93.5783 158.991C94.1903 158.969 99.7901 158.751 107.326 157.724C108.327 157.587 109.373 157.432 110.435 157.266C110.56 158.184 110.714 159.226 110.856 160.27L111.69 166.268C111.92 167.854 113.385 168.961 114.97 168.746C114.981 168.741 114.987 168.741 114.987 168.741C116.589 168.513 117.692 167.04 117.464 165.443C117.076 162.705 116.529 158.798 116.182 156.243C117.173 156.044 118.175 155.836 119.185 155.606L120.238 163.336C120.456 164.93 121.927 166.048 123.527 165.83C125.119 165.613 126.235 164.144 126.017 162.548L124.876 154.172C134.16 151.566 143.222 147.575 148.387 141.442C152.034 137.111 153.499 132.125 152.751 126.616C152.274 123.094 150.46 120.132 147.344 117.834ZM96.8177 87.5546C96.7975 87.4058 96.7535 87.2621 96.7129 87.1252C108.782 85.6356 124.47 85.0641 131.01 89.8845C132.729 91.1475 133.61 92.6539 133.786 94.6017C134.014 97.1834 133.255 99.4913 131.443 101.642C125.731 108.442 111.948 111.607 103.843 112.924C102.492 113.073 101.308 113.219 100.333 113.345L96.8177 87.5546ZM143.931 137.68C136.408 146.609 118.011 150.444 105.608 152.052L101.133 119.214C102.206 119.08 103.508 118.894 104.987 118.658C116.916 117.403 136.133 116.803 143.876 122.523C145.699 123.869 146.719 125.47 146.982 127.406C147.507 131.261 146.512 134.627 143.931 137.68Z" fill="#ECAF1F"/>
<path d="M190.397 106.187C185.085 67.2236 146.171 37.8096 107.206 43.1186C84.1945 46.2482 64.9047 60.9171 54.0721 80.4318C46.5296 93.9578 43.0636 109.814 45.2463 125.778C50.557 164.741 88.8137 193.643 127.779 188.332C149.3 185.395 167.755 172.525 179.083 155.033C188.277 140.866 192.77 123.632 190.397 106.187ZM169.038 152.29C159.12 166.544 143.506 176.766 124.987 179.3C89.8602 184.082 57.3961 159.4 52.5977 124.275C50.7666 110.793 53.2706 97.7147 59.0327 86.434C68.3082 68.3142 85.9766 54.8541 107.625 51.8987C142.737 47.1172 175.199 71.7988 179.999 106.911C182.26 123.517 177.943 139.519 169.038 152.29Z" fill="#FFF48A"/>
<path d="M148.947 116.762C144.074 113.158 136.309 111.611 128.337 111.112C131.958 109.304 135.198 107.073 137.506 104.33C140.328 100.969 141.572 97.1581 141.197 93.0022C140.872 89.3738 139.146 86.3897 136.079 84.1173C131.321 80.6174 123.702 79.3291 115.764 79.1448L114.445 69.4585C114.229 67.8675 112.76 66.7448 111.169 66.9578C109.573 67.1776 108.457 68.6553 108.673 70.2447L109.892 79.1904C108.195 79.253 106.521 79.351 104.883 79.4762L103.427 68.7822C103.207 67.1878 101.739 66.0685 100.142 66.2832C98.5524 66.4996 97.4298 67.9706 97.6479 69.5684L99.0766 80.0459C91.9652 80.8812 86.3874 82.0241 84.9605 82.3268C83.3864 82.6599 82.3804 84.2086 82.7185 85.7894C83.0567 87.3585 84.6426 88.3611 86.1744 88.0229C87.8635 87.6662 90.0834 87.2519 92.628 86.8495C92.6297 86.9848 92.6263 87.1234 92.6449 87.2672L101.418 151.624C97.5633 151.989 95.0779 152.087 94.9849 152.089C93.4091 152.143 92.114 153.492 92.1648 155.105C92.2256 156.711 93.5748 157.968 95.1844 157.915C95.7965 157.893 101.395 157.675 108.932 156.649C109.933 156.514 110.979 156.356 112.041 156.191C112.165 157.11 112.319 158.154 112.461 159.195L113.294 165.194C113.524 166.78 114.988 167.886 116.574 167.669C116.586 167.666 116.591 167.666 116.591 167.666C118.194 167.438 119.296 165.968 119.068 164.372C118.681 161.632 118.133 157.726 117.785 155.171C118.776 154.972 119.778 154.762 120.789 154.534L121.843 162.264C122.061 163.858 123.532 164.976 125.129 164.756C126.722 164.538 127.84 163.074 127.622 161.478L126.48 153.1C135.764 150.496 144.827 146.499 149.992 140.37C153.639 136.037 155.105 131.049 154.354 125.544C153.877 122.021 152.063 119.063 148.947 116.762ZM98.4205 86.486C98.4002 86.3339 98.3563 86.1918 98.3174 86.0549C110.386 84.5653 126.073 83.9939 132.616 88.8125C134.336 90.0772 135.213 91.582 135.392 93.5297C135.617 96.1132 134.856 98.421 133.047 100.572C127.336 107.37 113.551 110.537 105.447 111.852C104.096 112.001 102.915 112.148 101.936 112.273L98.4205 86.486ZM145.535 136.61C138.015 145.537 119.616 149.375 107.214 150.981L102.739 118.144C103.811 118.01 105.114 117.824 106.592 117.587C118.52 116.331 137.739 115.733 145.483 121.452C147.304 122.798 148.323 124.399 148.585 126.335C149.111 130.19 148.115 133.557 145.535 136.61Z" fill="#FEF6A1"/>
<path d="M192.835 105.161C187.168 63.6155 148.752 34.4061 107.206 40.0718C83.0549 43.3586 63.0753 57.7233 51.6982 77.3191C43.4828 91.4419 39.7446 108.306 42.1015 125.702C47.7672 167.264 86.1845 196.47 127.748 190.806C150.984 187.627 170.354 174.228 181.923 155.756C191.055 141.204 195.339 123.487 192.835 105.161ZM179.083 155.035C167.755 172.529 149.3 185.397 127.779 188.334C88.8136 193.645 50.5569 164.743 45.2463 125.779C43.0635 109.815 46.5296 93.9595 54.072 80.4335C64.9046 60.9188 84.1944 46.2481 107.206 43.1185C146.169 37.8079 185.085 67.2236 190.397 106.187C192.769 123.632 188.277 140.866 179.083 155.035Z" fill="#EAC421"/>
<path d="M179.999 106.909C175.199 71.7974 142.737 47.1158 107.625 51.8973C85.9767 54.8527 68.3101 68.3128 59.0329 86.4326C53.2708 97.7133 50.7685 110.791 52.5979 124.273C57.3963 159.399 89.8604 184.08 124.987 179.299C143.508 176.764 159.12 166.542 169.038 152.289C177.944 139.519 182.26 123.518 179.999 106.909ZM166.085 151.406C156.471 164.838 141.772 174.58 124.666 176.908C91.4801 181.434 59.4167 157.059 54.8922 123.873C53.1913 111.418 55.5161 99.1589 60.8454 88.4716C69.688 70.6562 86.8424 57.1639 107.576 54.3387C140.745 49.8126 172.937 73.5947 177.462 106.782C179.66 122.86 175.118 138.763 166.085 151.406Z" fill="#EEAF10"/>
<path opacity="0.6" d="M181.923 155.756C170.352 174.23 150.983 187.629 127.748 190.806C86.1846 196.472 47.7673 167.264 42.1016 125.702C39.7447 108.306 43.4813 91.4403 51.6983 77.3191C52.422 78.2963 53.2082 79.3395 54.0738 80.4335C55.5178 82.295 57.1713 84.3002 59.0328 86.4339C59.6094 87.1069 60.2197 87.7815 60.847 88.4713C69.0624 97.5861 80.8571 108.595 97.0325 119.427C99.1037 120.824 101.254 122.22 103.469 123.583C113.724 129.956 125.55 136.179 139.142 141.813C141.278 142.695 143.442 143.578 145.657 144.413C152.094 146.902 158.897 149.259 166.086 151.408C167.065 151.731 168.044 152.02 169.04 152.29C172.315 153.252 175.649 154.169 179.085 155.035C180.013 155.292 180.961 155.533 181.923 155.756Z" fill="url(#paint3_linear_108_2547)"/>
<path opacity="0.3" d="M116.584 57.2361C116.584 57.2361 185.053 65.2604 168.47 141.219C168.47 141.219 173.818 86.6552 116.584 57.2361Z" fill="#FFF48A"/>
<path d="M178.153 201.984C169.887 214.771 142.909 213.056 100.39 213.68C57.8661 214.303 50.748 201.984 51.0574 190.681C51.3719 179.385 59.7901 178.246 59.7901 178.246C59.7901 173.449 61.4995 167.611 69.9194 164.98C70.3218 164.853 70.7344 164.738 71.1706 164.628C80.6743 162.205 85.3662 170.015 85.3662 170.015C86.2808 167.271 88.095 164.77 89.9802 162.782C92.5907 160.013 95.3247 158.212 95.9418 158.063H96.6333C100.111 143.763 121.949 152.538 121.949 152.538C119.393 141.61 126.223 131.339 144.253 133.948C162.278 136.555 157.619 157.537 157.619 157.537C158.031 157.718 158.429 157.902 158.807 158.088C161.836 159.566 163.886 161.164 165.261 162.724C169.111 167.08 167.702 171.107 167.702 171.107C179.088 170.796 186.417 189.195 178.153 201.984Z" fill="#CDEEF3"/>
<path d="M160.654 164.856C154.464 166.395 135.135 175.838 127.66 184.486L124.884 187.326C124.884 187.326 119.205 193.875 112.208 190.716L124.696 179.541L154.618 160.523C157.451 161.903 159.367 163.399 160.654 164.856Z" fill="#CDEEF3"/>
<path d="M97.531 169.393C90.0443 169.86 85.6805 175.473 85.6805 175.473C84.0371 168.199 75.7355 165.772 69.9193 164.982C70.3217 164.855 70.7343 164.74 71.1705 164.63C80.6742 162.207 85.366 170.017 85.366 170.017C86.2807 167.273 88.0949 164.772 89.9801 162.784L97.531 169.393Z" fill="#CDEEF3"/>
<path d="M130.382 190.945C130.382 190.945 129.368 191.026 127.926 190.975C126.15 190.92 123.723 190.671 121.734 189.841C120.889 189.493 120.12 189.033 119.518 188.439C116.276 185.251 116.106 182.08 116.106 182.08H116.107L117.817 179.379C117.869 179.34 118.077 179.385 118.403 179.519C120.471 180.358 127.346 184.606 130.382 190.945Z" fill="#1E2E2E"/>
<path opacity="0.22" d="M130.382 190.945C130.382 190.945 129.368 191.026 127.926 190.975C124.439 187.127 118.944 183.621 116.146 182.364C116.146 182.364 116.131 182.256 116.109 182.08L117.818 179.379C117.871 179.34 118.079 179.385 118.405 179.519C120.471 180.358 127.346 184.606 130.382 190.945Z" fill="#1E2E2E"/>
<path d="M166.438 154.318C165.007 157.089 161.859 160.134 157.494 163.407C148.944 169.825 124.838 181.388 124.838 181.388L123.863 179.571L123.383 178.67C123.398 178.624 123.411 178.572 123.428 178.514L123.895 176.947L124.453 175.074L115.56 174.588L118.329 179.547L116.848 181.454L116.26 182.215L116.141 182.366C116.141 182.366 100.639 176.433 87.7129 169.435C78.3613 164.374 73.1335 158.753 72.721 154.377C72.5604 152.701 73.1116 151.214 74.3999 150.001C79.063 145.631 98.5692 150.192 102.678 153.888L133.351 152.565C145.112 144.885 160.794 142.812 165.361 147.142C167.599 149.257 167.811 151.665 166.438 154.318Z" fill="#141717"/>
<path d="M134.87 143.473L135.335 140.672L133.1 140.712L131.465 140.739L134.364 134.764L131.355 123.952L128.386 140.795L121.827 140.912L116.572 141.012L116.094 141.022L109.096 141.145L102.681 141.264L99.7173 125.452L97.3384 135.3C97.5548 135.902 97.7865 136.533 98.0333 137.16C98.0333 137.16 98.0333 137.167 98.0384 137.17C98.5845 138.594 99.1813 140.046 99.719 141.314L101.356 148.928L102.14 152.56L99.9641 150.534C95.5665 147.508 91.7251 142.337 89.566 139.077C88.396 137.311 87.718 136.103 87.718 136.103C88.374 122.905 96.3916 108.478 96.3916 108.478C97.7662 107.386 103.002 105.026 106.57 103.504C108.484 102.686 109.919 102.106 110.019 102.087L115.717 118.995C116.02 113.701 121.827 102.136 121.827 102.136C121.827 102.136 122.815 102.437 124.279 102.96C127.86 104.239 134.317 106.852 136.336 109.643C138.914 113.212 142.634 131.799 143.295 135.201C143.367 135.545 143.405 135.737 143.405 135.737C142.348 138.582 137.585 144.033 134.16 147.734L134.87 143.473Z" fill="#141717"/>
<path opacity="0.26" d="M102.14 152.562L99.9639 150.536C95.5663 147.51 91.7249 142.339 89.5658 139.08C93.9922 143.765 100.473 148.345 100.473 148.345C100.473 148.345 100.823 148.578 101.355 148.93L102.14 152.562Z" fill="url(#paint4_linear_108_2547)"/>
<path opacity="0.26" d="M143.404 135.74C142.348 138.586 137.585 144.037 134.159 147.738L134.87 143.475C137.801 141.132 141.274 138.095 143.295 135.204C143.369 135.547 143.404 135.74 143.404 135.74Z" fill="url(#paint5_linear_108_2547)"/>
<path opacity="0.26" d="M109.097 141.146L102.683 141.264L99.7189 125.452L97.34 135.301C97.5564 135.903 97.7881 136.533 98.0349 137.161C96.9055 135.27 96.4152 134.031 96.5183 131.24C96.662 127.158 100.013 122.262 100.013 122.262C100.451 124.663 101.91 128.517 104.242 134.063C105.604 137.301 107.598 139.671 109.097 141.146Z" fill="url(#paint6_linear_108_2547)"/>
<path opacity="0.26" d="M135.335 135.426C135.335 135.426 135.125 138.165 133.099 140.713L131.464 140.74L134.364 134.765L131.355 123.952L128.386 140.795L121.827 140.912C123.489 139.888 126.49 137.017 127.855 132.717C129.211 128.426 131.375 120.469 131.375 120.469C131.375 120.469 136.31 131.317 135.335 135.426Z" fill="url(#paint7_linear_108_2547)"/>
<path d="M111.137 97.7151L111.162 97.9585C112.611 98.8529 114.258 99.4261 116.094 99.4024C117.516 99.3838 118.784 99.0169 119.905 98.4184L119.979 97.7134L111.137 97.7151Z" fill="url(#paint8_linear_108_2547)"/>
<path d="M132.034 83.4296C132.034 87.6734 127.273 87.6497 127.273 87.6497C127.273 87.6497 125.216 95.5929 119.907 98.4232C118.786 99.0183 117.518 99.3852 116.096 99.4038C114.256 99.4258 112.611 98.8543 111.164 97.9616C106.176 94.8777 103.537 87.9219 103.537 87.9219C99.8001 88.3852 99.2388 84.2428 99.7021 82.2308C99.8458 81.6222 100.079 81.2079 100.351 81.1707C101.146 81.0642 101.799 82.241 102.14 83.0086C102.166 83.1354 102.186 83.2639 102.203 83.4008L103.363 86.3613L103.657 87.1171C103.657 87.1171 103.657 87.0816 103.657 87.0258C103.623 86.0976 103.383 78.6177 103.657 76.4299C103.949 74.0966 105.956 71.9849 106.717 73.7974C107.48 75.6099 112.696 78.08 115.426 77.9127C118.15 77.747 119.497 75.5541 119.497 75.5541C119.984 76.041 118.818 76.7934 118.818 76.7934C121.538 76.6683 124.94 71.3728 127.146 73.7957C127.481 74.166 127.738 74.663 127.934 75.2328C128.173 76.0021 128.315 76.8373 128.398 77.6523C128.541 79.2703 128.453 80.9831 128.34 82.2072C128.34 82.2156 128.34 82.2207 128.34 82.2207C128.254 83.1608 128.159 83.8066 128.151 83.8827C128.541 83.1405 128.835 82.3204 129.047 81.448C129.892 80.7447 131.126 80.3186 131.705 81.5224C131.913 81.9383 132.034 82.5605 132.034 83.4296Z" fill="url(#paint9_linear_108_2547)"/>
<path opacity="0.2" d="M118.816 86.6524C118.368 86.2821 118.796 83.4264 121.672 82.4576C124.544 81.4888 125.838 84.9075 122.867 86.0741C120.836 86.8654 118.816 86.6524 118.816 86.6524Z" fill="#E26B44"/>
<path d="M128.34 82.2229C128.25 83.2272 128.144 83.895 128.144 83.895C128.536 83.1494 128.835 82.3226 129.043 81.4502C128.747 81.6937 128.501 81.9709 128.34 82.2229Z" fill="url(#paint10_linear_108_2547)"/>
<path d="M128.397 77.6575C128.541 79.2721 128.453 80.9866 128.34 82.209C128.367 82.0095 128.619 79.9011 128.397 77.6575Z" fill="url(#paint11_linear_108_2547)"/>
<path d="M128.397 77.6575C128.541 79.2721 128.453 80.9866 128.34 82.209C128.367 82.0095 128.619 79.9011 128.397 77.6575Z" fill="url(#paint12_linear_108_2547)"/>
<path d="M105.562 80.8529C105.361 80.486 106.629 78.9948 109.432 79.4479C112.236 79.9044 113.15 81.6341 111.898 81.8758C110.645 82.121 109.522 81.2029 108.164 80.8377C106.428 80.3711 105.562 80.8529 105.562 80.8529Z" fill="#573627"/>
<path d="M119.776 81.9014C118.873 81.8152 118.916 80.3155 121.574 79.5378C123.983 78.831 125.452 79.0643 126.362 80.1464C126.362 80.1464 124.701 79.93 123.251 80.6317C121.804 81.3333 121.203 82.035 119.776 81.9014Z" fill="#573627"/>
<path opacity="0.3" d="M100.4 83.0884C100.547 83.0884 102.296 84.8129 102.779 86.5882C102.779 86.5882 102.238 87.0245 101.393 86.5882C100.547 86.1503 101.175 85.1004 101.175 85.1004L100.4 83.0884Z" fill="#E47553"/>
<path opacity="0.3" d="M130.526 82.6604C130.283 82.75 128.34 84.0113 127.902 86.3919C127.902 86.3919 128.803 86.9752 129.422 86.3919C130.043 85.8103 129.422 84.9345 129.422 84.9345L130.526 82.6604Z" fill="#E47553"/>
<path opacity="0.2" d="M107.128 85.9134C106.541 85.5617 106.377 82.6604 109.256 82.6604C111.782 82.6604 113.189 86.238 112.406 86.632C111.625 87.0242 108.125 86.5018 107.128 85.9134Z" fill="#E26B44"/>
<path d="M123.87 85.6652C123.621 85.7768 123.275 85.9256 122.867 86.0727C122.113 86.3398 121.156 86.607 120.209 86.6898C119.732 86.7304 119.256 86.7253 118.816 86.6509C118.295 86.5613 118.901 83.8172 122.265 83.2796C125.63 82.7504 124.795 85.2273 123.87 85.6652Z" fill="white"/>
<path d="M112.406 86.6324C112.207 86.7473 111.772 86.7964 111.238 86.7879C110.416 86.7778 109.356 86.6391 108.509 86.4481C107.83 86.2942 107.292 86.1049 107.128 85.9155C106.267 84.9027 106.84 83.31 109.319 83.3506C111.804 83.3878 112.887 86.3551 112.406 86.6324Z" fill="white"/>
<path d="M112.538 86.5764C112.52 85.7615 112.327 83.5703 109.612 83.3657C106.681 83.1391 106.32 85.0226 107.13 85.9136C107.13 85.9136 106.604 83.4367 109.821 83.971C112.613 84.4309 112.538 86.5764 112.538 86.5764Z" fill="#66402A"/>
<path d="M118.645 86.2957C118.556 85.3202 119.837 83.4823 122.169 82.9666C125.532 82.2261 125.036 85.4672 123.665 85.753C123.665 85.753 125.376 82.8567 122.01 83.4992C119.409 83.9997 118.645 86.2957 118.645 86.2957Z" fill="#66402A"/>
<path d="M119.67 100.658C119.67 100.658 118.233 102.669 115.56 102.623C112.947 102.576 111.556 101.078 111.493 101.014L111.488 101.007C111.186 101.166 110.019 102.089 110.019 102.089C110.019 102.089 113.198 112.757 115.717 118.996C115.717 118.996 118.574 108.26 121.827 102.138L119.67 100.658Z" fill="#CDEEF3"/>
<path d="M115.399 91.5541C114.195 91.5541 113.756 90.6191 113.75 90.609C113.72 90.5363 113.75 90.4484 113.823 90.4145C113.898 90.3807 113.982 90.4145 114.018 90.4872C114.035 90.5244 114.459 91.407 115.7 91.2413C116.932 91.079 117.058 90.5278 117.058 90.5227C117.071 90.445 117.146 90.3892 117.227 90.4044C117.306 90.4162 117.36 90.494 117.345 90.5718C117.343 90.6039 117.203 91.3377 115.739 91.5304C115.619 91.5457 115.507 91.5541 115.399 91.5541Z" fill="#E47553"/>
<path d="M115.554 94.1274C113.299 94.1274 112.565 93.2347 112.53 93.189C112.481 93.1248 112.491 93.0335 112.555 92.9828C112.618 92.9337 112.709 92.9456 112.758 93.0064C112.775 93.0284 113.725 94.1359 116.78 93.7554C118.806 93.5018 119.222 93.2567 119.303 93.1789C119.269 93.1299 119.269 93.0639 119.304 93.0132C119.352 92.9489 119.44 92.9303 119.506 92.9777C119.572 93.0233 119.629 93.1214 119.604 93.233C119.568 93.375 119.485 93.7115 116.816 94.0429C116.352 94.102 115.93 94.1274 115.554 94.1274Z" fill="#DF5939"/>
<path d="M111.443 86.1401C111.421 86.3785 111.353 86.5983 111.236 86.7877C111.055 86.7843 110.859 86.7775 110.656 86.7606C110.225 86.7319 109.76 86.6761 109.314 86.6017C109.035 86.5577 108.763 86.502 108.507 86.4462C108.46 86.2788 108.44 86.0996 108.452 85.917C108.513 85.0919 109.229 84.473 110.056 84.5356C110.886 84.5948 111.503 85.3134 111.443 86.1401Z" fill="#4B7885"/>
<path d="M122.897 85.7783C122.897 85.878 122.889 85.9744 122.869 86.0742C122.64 86.1536 122.399 86.2331 122.142 86.3075C121.709 86.436 121.242 86.5493 120.769 86.6237C120.579 86.6558 120.399 86.6778 120.211 86.693C120.015 86.4394 119.898 86.1249 119.898 85.78C119.898 84.9532 120.568 84.2803 121.399 84.2803C122.223 84.2786 122.897 84.9515 122.897 85.7783Z" fill="#4B7885"/>
<path d="M117.993 104.666L116.39 102.571L115.318 102.613C115.101 102.76 113.421 105.004 113.421 105.004L115.27 107.19C115.27 107.19 114.229 114.584 114.307 114.817C114.388 115.049 115.717 118.996 115.717 118.996L117.213 112.901L116.084 107.154L117.993 104.666Z" fill="url(#paint13_linear_108_2547)"/>
<path d="M116.39 102.569L119.058 105.976L121.829 102.138L119.67 100.659C119.67 100.659 118.637 101.758 116.39 102.569Z" fill="#CDFBFF"/>
<path d="M112.21 106.509C112.21 106.509 116.001 104.936 115.318 102.611L112.21 106.509Z" fill="#CAEAE9"/>
<path d="M119.058 105.976C119.058 105.976 116.106 105.186 116.39 102.569L119.058 105.976Z" fill="#CAEAE9"/>
<path d="M115.318 102.613C115.636 102.655 112.21 106.51 112.21 106.51L110.582 103.751L110.021 102.089L111.49 101.007C111.49 101.007 112.682 102.282 115.318 102.613Z" fill="#CDFBFF"/>
<path d="M129.047 81.4501C128.835 82.3242 128.541 83.1426 128.15 83.8848C128.159 83.8087 128.254 83.1612 128.34 82.2228V82.2093C128.367 82.0115 128.619 79.9014 128.397 77.6544C128.321 76.787 128.176 75.9501 127.934 75.2349C127.738 74.6651 127.479 74.1681 127.146 73.7978C125.717 72.2321 123.795 73.8891 121.879 75.2907L121.873 75.2924C121.687 75.431 121.502 75.5629 121.318 75.6914C120.459 76.2883 119.605 76.7583 118.818 76.7955C118.818 76.7955 119.984 76.0431 119.497 75.5562C119.497 75.5562 118.15 77.7491 115.426 77.9148C114.995 77.9401 114.499 77.9046 113.974 77.8082C113.798 77.7795 113.625 77.744 113.444 77.7C113.441 77.7 113.441 77.7 113.441 77.7C112.756 77.5445 112.026 77.3129 111.314 77.0288C111.162 76.9663 111.013 76.9088 110.863 76.8445C108.903 75.9958 107.131 74.8004 106.713 73.7995C106.71 73.7843 106.702 73.7657 106.693 73.7538C106.588 73.5137 106.456 73.3463 106.313 73.2432C105.405 72.6075 103.903 74.4369 103.653 76.432C103.364 78.7635 103.653 87.1175 103.653 87.1175L102.201 83.4013C102.186 83.266 102.165 83.1375 102.138 83.009C101.888 81.6716 101.295 80.6876 101.585 75.8487C101.594 75.7337 101.601 75.612 101.614 75.4936C101.962 71.3766 104.101 66.3703 108.48 63.5011C108.644 63.3861 108.815 63.2813 108.991 63.1815C110.438 62.321 112.11 61.6869 114.031 61.3792C114.124 61.3657 114.219 61.3505 114.313 61.3369C114.974 61.2439 115.664 61.1865 116.381 61.1712C116.775 61.1628 117.164 61.1848 117.543 61.222C117.649 61.2304 117.752 61.2439 117.855 61.2575C118.905 61.3995 119.901 61.7207 120.833 62.1755C120.961 62.2364 121.085 62.304 121.212 62.3717C123.57 63.6482 125.511 65.8411 126.908 68.4178C129.121 72.4756 129.987 77.4971 129.047 81.4501Z" fill="url(#paint14_linear_108_2547)"/>
<g opacity="0.34">
<path d="M118.503 74.0649C117.62 75.8959 115.99 77.0304 114.127 77.7524C114.078 77.7744 114.024 77.7879 113.973 77.8099C113.798 77.7811 113.625 77.7456 113.444 77.7017C113.892 77.5461 114.313 77.3669 114.673 77.1911C116.515 76.3051 117.94 75.0945 118.567 73.0842C119.766 69.2564 118.687 65.021 117.546 61.2202C117.653 61.2287 117.756 61.2422 117.859 61.2557C118.427 63.1088 118.892 64.994 119.147 66.9096C119.457 69.2513 119.555 71.8804 118.503 74.0649Z" fill="#4D392B"/>
<path d="M114.317 61.3354C114.014 62.1538 113.794 63.0059 113.647 63.8885C113.282 66.1101 113.29 68.3656 113.257 70.6092C113.23 72.3879 113.216 76.1431 111.316 77.029C111.163 76.9665 111.015 76.909 110.864 76.8447C113.463 76.0839 112.952 70.7377 112.988 68.719C113.033 66.1811 113.25 63.6839 114.034 61.3777C114.127 61.3642 114.222 61.3507 114.317 61.3354Z" fill="#4D392B"/>
<path d="M107.447 66.6796C106.676 68.9739 106.318 71.417 106.695 73.7537C106.59 73.5136 106.458 73.3462 106.314 73.2431C106.064 71.0823 106.416 68.8201 107.102 66.7607C107.476 65.6533 107.937 64.556 108.484 63.5009C108.648 63.386 108.818 63.2812 108.994 63.1814C108.37 64.3057 107.853 65.4808 107.447 66.6796Z" fill="#4D392B"/>
<path d="M121.879 75.2924L121.873 75.2941C121.687 75.4327 121.502 75.5646 121.318 75.6931C122.4 73.7149 122.652 71.2718 122.434 68.9402C122.226 66.6492 121.682 64.3498 120.836 62.1738C120.965 62.2347 121.088 62.3023 121.215 62.37C122.128 64.7455 122.693 67.285 122.789 69.7687C122.862 71.6471 122.627 73.6101 121.879 75.2924Z" fill="#4D392B"/>
</g>
<path opacity="0.35" d="M129.047 81.45C128.835 82.3242 128.541 83.1425 128.15 83.8847C128.159 83.8087 128.254 83.1611 128.34 82.2227V82.2092C128.367 82.0114 128.619 79.9013 128.397 77.6543C128.321 76.787 128.176 75.95 127.934 75.2348C127.738 74.6651 127.479 74.168 127.146 73.7977C125.717 72.2321 123.795 73.889 121.879 75.2906L121.873 75.2923C121.687 75.431 121.502 75.5628 121.318 75.6913C120.459 76.2882 119.605 76.7582 118.818 76.7954C118.818 76.7954 119.984 76.043 119.497 75.5561C119.497 75.5561 118.15 77.749 115.426 77.9147C114.995 77.94 114.499 77.9045 113.974 77.8082C113.798 77.7794 113.625 77.7439 113.444 77.7C113.441 77.7 113.441 77.7 113.441 77.7C112.756 77.5444 112.026 77.3128 111.314 77.0287C111.162 76.9662 111.013 76.9087 110.863 76.8444C108.903 75.9957 107.131 74.8003 106.713 73.7994C106.71 73.7842 106.702 73.7656 106.693 73.7537C106.588 73.5137 106.456 73.3463 106.313 73.2431C105.405 72.6074 103.903 74.4368 103.653 76.4319C103.364 78.7634 103.653 87.1175 103.653 87.1175L102.201 83.4012C102.186 83.2659 102.165 83.1374 102.138 83.0089C101.888 81.6715 101.295 80.6875 101.585 75.8486C101.594 75.7336 101.601 75.6119 101.614 75.4935C103.143 73.0842 104.774 71.9193 105.792 72.1949C107.009 72.5246 108.754 75.365 113.735 76.1884C118.718 77.0152 119.896 74.4402 119.896 74.4402C120.686 74.2441 120.564 75.3177 120.564 75.3177C122.747 74.4571 125.773 70.8338 126.911 68.4177C129.121 72.4755 129.987 77.4971 129.047 81.45Z" fill="url(#paint15_linear_108_2547)"/>
<path opacity="0.2" d="M102.203 83.4009L103.362 86.3614C102.532 84.7349 100.862 82.9039 99.7036 82.2326C99.8473 81.624 100.081 81.2097 100.353 81.1725C101.148 81.066 101.8 82.2428 102.142 83.0104C102.165 83.1355 102.187 83.264 102.203 83.4009Z" fill="#E26B44"/>
<path opacity="0.2" d="M131.706 81.5241C129.725 82.0144 127.516 86.0046 127.516 86.0046C127.516 86.0046 127.516 86.0046 128.145 82.8581C128.776 79.7133 127.501 74.2809 125.961 75.3157C124.422 76.3521 120.081 79.1993 114.931 79.1131C109.78 79.0252 107.013 75.6538 105.454 75.2345C103.898 74.8186 103.804 87.5094 103.804 87.5094C103.768 87.3555 103.717 87.1915 103.657 87.0258C103.623 86.0976 103.383 78.6177 103.657 76.4299C103.949 74.0966 105.956 71.9849 106.717 73.7974C107.479 75.6099 112.695 78.08 115.426 77.9127C118.15 77.747 119.497 75.5541 119.497 75.5541C119.984 76.041 118.818 76.7934 118.818 76.7934C121.538 76.6683 124.94 71.3728 127.146 73.7957C127.481 74.166 127.738 74.663 127.934 75.2328C128.172 76.0021 128.315 76.8373 128.397 77.6523C128.541 79.2703 128.453 80.9831 128.34 82.2072C128.34 82.2156 128.34 82.2207 128.34 82.2207C128.254 83.1608 128.159 83.8066 128.151 83.8827C128.541 83.1405 128.835 82.3204 129.047 81.448C129.892 80.7464 131.126 80.3203 131.706 81.5241Z" fill="#E26B44"/>
<path d="M122.994 108.747L124.649 113.894C122.552 114.986 117.122 122.861 116.036 124.278C116.194 126.556 116.385 134.337 116.574 141.012L116.095 141.022C115.887 134.394 115.624 126.86 115.559 124.643L106.715 111.806C106.715 111.806 109.488 108.889 109.581 108.696C109.677 108.502 105.452 106.605 105.452 106.605L106.57 103.504C108.484 102.686 109.919 102.106 110.019 102.087L115.717 118.995C116.019 113.701 121.827 102.136 121.827 102.136C121.827 102.136 122.814 102.437 124.279 102.96L125.959 108.6L122.994 108.747Z" fill="#222728"/>
<path d="M135.338 140.672L134.163 147.736L132.033 160.496H103.851L100.923 146.907L99.7189 141.316L102.681 141.259L105.508 141.211L128.384 140.795L131.464 140.74L135.338 140.672Z" fill="#B2B2B2"/>
<path d="M99.7189 141.316L100.011 140.672L134.364 139.527L135.338 140.672L99.7189 141.316Z" fill="#CDCDCD"/>
<path opacity="0.2" d="M114.317 95.725C114.168 95.7115 116.562 94.6041 117.616 95.9178C117.616 95.9178 116.189 95.8671 114.317 95.725Z" fill="#E26B44"/>
<path d="M109.279 85.1713C109.279 85.4384 109.06 85.6582 108.793 85.6582C108.526 85.6582 108.31 85.4384 108.31 85.1713C108.31 84.9058 108.526 84.686 108.793 84.686C109.06 84.686 109.279 84.9058 109.279 85.1713Z" fill="white"/>
<path d="M122.799 84.6862C122.799 84.9533 122.581 85.1714 122.316 85.1714C122.044 85.1714 121.827 84.9533 121.827 84.6862C121.827 84.4191 122.044 84.2026 122.316 84.2026C122.583 84.2026 122.799 84.4191 122.799 84.6862Z" fill="white"/>
<path opacity="0.28" d="M118.73 86.6677C118.838 86.8435 118.79 85.381 120.334 84.4832C122.522 83.2067 124.701 83.3521 123.667 85.7547C123.667 85.7547 124.69 84.7047 124.218 83.7613C123.744 82.8195 121.993 83.0207 120.972 83.6243C119.95 84.2262 118.239 85.8798 118.73 86.6677Z" fill="#B0B2B2"/>
<path opacity="0.17" d="M112.462 86.576C112.606 86.3191 112.153 85.2032 111.115 84.7128C110.077 84.2242 107.373 83.5547 107.128 85.9116C107.128 85.9116 106.502 84.4423 107.743 83.8945C108.984 83.3484 110.332 83.7407 111.096 84.2022C111.862 84.6621 112.435 85.3333 112.488 85.9538C112.538 86.576 112.462 86.576 112.462 86.576Z" fill="#B0B2B2"/>
<path d="M119.906 98.4235L119.666 100.657C119.666 100.657 119.43 100.993 118.963 101.387C118.29 101.959 117.14 102.649 115.56 102.622C112.947 102.574 111.556 101.08 111.495 101.01L111.478 100.836L111.162 97.9602C112.611 98.8529 114.254 99.4244 116.094 99.4024C117.517 99.3872 118.785 99.0186 119.906 98.4235Z" fill="url(#paint16_linear_108_2547)"/>
<path opacity="0.2" d="M119.906 98.423L119.666 100.656C119.666 100.656 119.43 100.993 118.963 101.387C117.225 101.105 113.784 100.663 111.478 100.837L111.162 97.9614C112.611 98.8541 114.254 99.4256 116.094 99.4036C117.517 99.3867 118.785 99.0181 119.906 98.423Z" fill="#E26B44"/>
<path opacity="0.59" d="M116.072 160.496H103.851L100.923 146.907L99.7189 141.314L102.681 141.259L105.508 141.211C106.09 144.758 108.299 154.457 116.072 160.496Z" fill="#B2B2B2"/>
<path opacity="0.26" d="M137.668 156.898C133.735 159.451 130.623 163.485 128.305 167.433C125.557 167.917 116.806 169.601 112.538 170.096C110.421 166.988 108.323 164.462 106.024 162.341H128.289C128.289 162.341 129.701 160.494 130.09 160.494H103.851C101.755 158.743 100.356 157.994 97.729 156.702C91.2314 153.501 83.5452 152.615 83.0769 152.56C86.9893 153.126 99.3944 157.109 106.085 165.546C110.88 171.591 114.88 178.646 116.753 181.451L118.334 179.544L115.632 174.766L124.453 175.072C124.453 175.072 123.45 178.132 123.33 178.513C123.315 178.57 124.45 180.611 124.45 180.611C124.45 180.611 126.118 171.346 133.493 163.216C140.863 155.079 153.51 151.843 153.51 151.843C153.51 151.843 146.512 151.17 137.668 156.898Z" fill="url(#paint17_linear_108_2547)"/>
<path d="M125.232 181.204C125.232 181.204 125.258 184.3 122.267 187.611C121.709 188.221 120.982 188.722 120.167 189.114C116.714 190.801 111.722 190.717 111.722 190.717C114.324 184.348 120.83 179.781 122.818 178.837C123.131 178.684 123.334 178.628 123.384 178.668L125.232 181.204Z" fill="#1E2E2E"/>
<path d="M121.197 181.453C121.197 181.453 122.962 184.194 123.246 183.884C123.53 183.577 121.829 181.127 121.197 181.453Z" fill="#778887"/>
<path d="M119.338 183.188C119.136 183.255 121.452 186.074 121.883 185.77C122.318 185.472 119.91 182.992 119.338 183.188Z" fill="#778887"/>
<path d="M117.797 185.176C117.797 185.176 118.936 187.466 119.338 187.317C119.739 187.173 118.427 185.224 117.797 185.176Z" fill="#778887"/>
<path opacity="0.17" d="M125.232 181.204C125.232 181.204 125.258 184.3 122.267 187.611C121.709 188.221 120.982 188.722 120.167 189.114C123.193 184.356 123.092 180.523 122.816 178.837C123.129 178.684 123.332 178.628 123.383 178.668L125.232 181.204Z" fill="#1E2E2E"/>
<path opacity="0.16" d="M116.752 181.453C116.752 181.453 116.549 181.767 116.261 182.214L116.143 182.364C116.143 182.364 100.64 176.431 87.7146 169.433C78.363 164.373 73.1352 158.751 72.7227 154.375C75.5361 157.561 83.0498 164.089 92.6634 166.637C104.715 169.832 110.741 172.002 110.741 172.002L116.752 181.453Z" fill="url(#paint18_linear_108_2547)"/>
<path d="M121.734 123.952C121.516 124.174 121.829 125.188 121.829 125.188L128.384 125.082L128.041 124.052L121.734 123.952Z" fill="#222728"/>
<path d="M111.512 106.509C111.591 106.749 114.484 113.649 115.602 117.49C115.602 117.49 115.979 114.597 117.993 110.09C118.48 108.996 119.673 106.757 119.673 106.757C119.673 106.757 115.984 114.748 115.719 118.993L111.512 106.509Z" fill="#A2C8C6"/>
<path d="M91.0707 172.692C91.9989 171.67 105.065 169.046 108.416 180.415L91.0707 172.692Z" fill="#CDEEF3"/>
<path d="M124.881 192.81C125.036 192.081 126.206 182.212 134.222 185.032C134.222 185.032 137.866 194.122 137.866 193.684C137.867 193.248 124.881 192.81 124.881 192.81Z" fill="#CDEEF3"/>
<path d="M85.4455 36.9593L83.5214 33.2346C83.4842 33.1602 83.4132 33.1027 83.3337 33.0773C83.2543 33.052 83.1647 33.0587 83.0886 33.101L77.1642 36.3151L75.4345 35.7622L76.0956 34.2084C76.1633 34.0461 76.0889 33.8601 75.9249 33.7908C75.7659 33.7198 75.5749 33.7959 75.5089 33.9582L74.8225 35.5661L72.5197 34.834C72.3489 34.7799 72.1748 34.8729 72.1173 35.0403C72.0666 35.2094 72.1579 35.3869 72.3269 35.4427L74.5756 36.1562L73.71 38.1885L69.5744 40.4338C69.4188 40.5183 69.363 40.7111 69.4442 40.8632L71.4393 44.5389C70.8915 45.2558 69.1652 48.0134 71.5002 51.7855C72.824 53.926 74.5723 54.9557 76.8412 54.932C78.8346 54.91 81.2643 54.0849 84.4936 52.3333C90.1407 49.2697 93.95 46.7031 91.5068 41.5598C89.4729 37.2805 86.3078 36.9627 85.4455 36.9593ZM75.1826 36.3523L76.3864 36.7361L74.6078 37.7015L75.1826 36.3523ZM90.9269 41.8354C92.9676 46.135 90.6107 48.2873 84.1859 51.7737C77.8303 55.2211 74.3136 55.1264 72.0395 51.4507C69.5913 47.4977 71.9465 44.9024 72.0497 44.7942C72.1426 44.6945 72.1612 44.5474 72.097 44.424L70.156 40.8429L83.1072 33.8179L84.9721 37.4293C85.0312 37.5443 85.1547 37.6136 85.2849 37.6001C85.4252 37.5916 88.8084 37.3634 90.9269 41.8354Z" fill="#767676"/>
<path d="M175.772 95.4056C175.427 94.9559 174.797 94.6177 174.117 94.3658C174.45 94.288 174.76 94.1697 175.015 93.9955C175.378 93.7487 175.603 93.4139 175.679 92.9997C175.744 92.6429 175.654 92.2963 175.419 91.9971C175.067 91.5423 174.391 91.2193 173.656 90.9944L173.782 90.0882C173.808 89.9039 173.683 89.7416 173.502 89.7145C173.324 89.6926 173.157 89.8177 173.133 89.9969L173.022 90.822C172.89 90.7899 172.758 90.7645 172.626 90.7374L172.763 89.7281C172.79 89.5522 172.661 89.3848 172.482 89.3612C172.306 89.3358 172.141 89.4609 172.117 89.6402L171.982 90.6208C171.31 90.516 170.774 90.4788 170.632 90.472C170.458 90.4585 170.299 90.5937 170.286 90.7746C170.277 90.9573 170.413 91.1111 170.595 91.1229C170.749 91.1331 170.954 91.15 171.184 91.1754L170.33 97.4092C169.983 97.3483 169.763 97.2942 169.757 97.2942C169.579 97.2468 169.403 97.3567 169.361 97.5343C169.319 97.7084 169.424 97.8843 169.601 97.9265C169.659 97.9417 170.195 98.0686 170.928 98.17C171.016 98.1818 171.103 98.1937 171.192 98.2055C171.18 98.285 171.17 98.3678 171.158 98.454L171.081 99.039C171.057 99.2166 171.184 99.3806 171.361 99.4076C171.542 99.4313 171.703 99.3011 171.728 99.1287C171.769 98.8226 171.813 98.4946 171.845 98.2647C171.912 98.2714 171.987 98.2782 172.058 98.2833L171.96 98.9917C171.936 99.1675 172.061 99.3349 172.237 99.3569C172.416 99.3823 172.582 99.2572 172.607 99.0796L172.714 98.3002C173.652 98.2917 174.601 98.1497 175.247 97.7118C175.711 97.3939 175.985 96.9543 176.061 96.4015C176.112 96.0481 176.011 95.7116 175.772 95.4056ZM175.037 92.883C174.991 93.1214 174.864 93.3091 174.65 93.4579C173.999 93.8992 172.722 93.8823 171.853 93.7926C171.711 93.7707 171.593 93.7521 171.488 93.7385L171.83 91.2633C172.988 91.4442 174.43 91.7942 174.902 92.4028C175.027 92.555 175.067 92.7089 175.037 92.883ZM174.875 97.1691C174.105 97.6966 172.726 97.7033 171.595 97.5934C171.588 97.5901 171.584 97.5884 171.584 97.5884C171.581 97.5901 171.581 97.5901 171.576 97.5884C171.363 97.5647 171.16 97.5444 170.969 97.5157L171.397 94.3929C171.496 94.4098 171.606 94.4233 171.731 94.4368C172.883 94.6313 174.689 95.0725 175.26 95.8046C175.389 95.9686 175.439 96.136 175.416 96.3119C175.365 96.6771 175.189 96.9577 174.875 97.1691Z" fill="#767676"/>
<path d="M176.674 85.1952L171.566 84.4919C169.958 84.2704 168.47 85.3981 168.248 87.006L166.279 101.328C166.061 102.936 167.192 104.424 168.796 104.644L173.909 105.349C175.512 105.567 176.998 104.439 177.221 102.831L177.468 101.034L179.188 88.5108C179.407 86.9012 178.28 85.415 176.674 85.1952ZM168.85 87.4186L178.496 88.7458L176.787 101.195L167.139 99.871L168.85 87.4186ZM171.474 85.1394L176.584 85.8411C177.725 86 178.554 86.9722 178.56 88.0915L168.967 86.7761C169.278 85.7008 170.335 84.9839 171.474 85.1394ZM173.992 104.696L168.884 103.996C167.636 103.826 166.756 102.667 166.93 101.418L167.05 100.517L176.695 101.844L176.575 102.745C176.4 103.993 175.245 104.874 173.992 104.696Z" fill="#767676"/>
<path d="M172.883 86.6506L175.328 86.9854C175.507 87.0158 175.669 86.8873 175.698 86.7064C175.722 86.5339 175.595 86.3666 175.419 86.3395L172.971 86.0047C172.79 85.9794 172.624 86.1045 172.601 86.2837C172.575 86.4595 172.702 86.6286 172.883 86.6506Z" fill="#767676"/>
<path d="M171.736 101.933C171.216 101.862 170.739 102.224 170.671 102.74C170.599 103.256 170.96 103.732 171.474 103.803C171.993 103.874 172.469 103.513 172.541 102.999C172.609 102.48 172.25 102.003 171.736 101.933Z" fill="#767676"/>
<path d="M191.75 96.6722C191.74 96.6739 191.517 96.6638 191.168 96.63L192.026 90.3978C192.254 90.435 192.455 90.4722 192.609 90.5044C192.785 90.5432 192.955 90.43 192.994 90.2541C193.035 90.0783 192.925 89.9041 192.744 89.8653C192.607 89.8365 192.085 89.7317 191.405 89.6488L191.54 88.6682C191.567 88.4907 191.441 88.3233 191.265 88.2996C191.084 88.2743 190.92 88.4011 190.898 88.5803L190.754 89.5829C190.626 89.5744 190.487 89.5643 190.352 89.5609L190.465 88.7325C190.489 88.5515 190.365 88.3892 190.186 88.3639C190.007 88.3385 189.843 88.467 189.817 88.6445L189.692 89.5542C188.925 89.5744 188.188 89.7012 187.721 90.0428C187.418 90.2676 187.239 90.5771 187.205 90.9389C187.166 91.3548 187.291 91.7386 187.574 92.0768C187.772 92.3135 188.037 92.5079 188.341 92.6753C187.613 92.7311 186.918 92.89 186.465 93.2248C186.15 93.4581 185.966 93.754 185.919 94.1073C185.841 94.6568 185.988 95.1573 186.351 95.5885C186.855 96.187 187.731 96.5792 188.631 96.8362L188.526 97.6207C188.499 97.7983 188.627 97.964 188.801 97.9876C188.982 98.0096 189.15 97.8862 189.172 97.7053L189.268 96.9985C189.341 97.0171 189.41 97.029 189.479 97.0425C189.449 97.2707 189.401 97.5988 189.361 97.9031C189.332 98.0806 189.457 98.2463 189.637 98.2734C189.812 98.297 189.981 98.1736 190.007 97.9944L190.091 97.4111C190.103 97.3232 190.113 97.2352 190.125 97.1608C190.216 97.1727 190.304 97.1862 190.391 97.1964C191.128 97.2995 191.672 97.3198 191.733 97.3215C191.912 97.3282 192.063 97.1896 192.069 97.0053C192.071 96.8312 191.933 96.6739 191.75 96.6722ZM188.074 91.6558C187.903 91.4546 187.832 91.2415 187.856 90.9981C187.87 90.8222 187.953 90.6836 188.106 90.5686C188.727 90.1104 190.215 90.1645 191.376 90.3065L191.036 92.7767C190.933 92.7649 190.812 92.7514 190.675 92.7345C189.812 92.5857 188.576 92.256 188.074 91.6558ZM189.915 96.4643C189.91 96.4626 189.91 96.4626 189.91 96.4609C189.904 96.4609 189.9 96.4626 189.897 96.4626C188.776 96.2648 187.45 95.8843 186.852 95.1725C186.607 94.88 186.514 94.5622 186.566 94.202C186.588 94.0262 186.683 93.8791 186.848 93.7523C187.594 93.2028 189.459 93.2637 190.617 93.3871C190.741 93.4074 190.852 93.4226 190.947 93.4378L190.514 96.5539C190.326 96.5336 190.127 96.5031 189.915 96.4643Z" fill="#767676"/>
<path d="M193.459 83.8526L188.352 83.1526C186.744 82.9328 185.254 84.0606 185.034 85.6668L183.068 99.9908C182.843 101.599 183.973 103.085 185.58 103.306L190.688 104.008C192.298 104.23 193.782 103.1 194.005 101.494L195.972 87.1699C196.195 85.5653 195.069 84.0758 193.459 83.8526ZM185.636 86.0827L195.279 87.4032L193.569 99.8573L183.923 98.5317L185.636 86.0827ZM188.26 83.8002L193.37 84.5035C194.509 84.6608 195.338 85.6363 195.346 86.7522L185.751 85.4402C186.059 84.3615 187.119 83.6446 188.26 83.8002ZM190.778 103.361L185.67 102.659C184.419 102.485 183.541 101.33 183.714 100.08L183.836 99.181L193.481 100.505L193.358 101.403C193.187 102.655 192.031 103.531 190.778 103.361Z" fill="#767676"/>
<path d="M189.163 85.2421L191.608 85.5803C191.787 85.6039 191.953 85.4788 191.98 85.3013C192.002 85.1204 191.877 84.9581 191.698 84.9327L189.251 84.5963C189.075 84.5709 188.908 84.6977 188.881 84.8735C188.862 85.0544 188.984 85.2201 189.163 85.2421Z" fill="#767676"/>
<path d="M188.592 100.603C188.074 100.53 187.599 100.894 187.528 101.411C187.457 101.927 187.819 102.4 188.336 102.473C188.855 102.544 189.33 102.182 189.401 101.666C189.469 101.152 189.106 100.672 188.592 100.603Z" fill="#767676"/>
<path d="M183.803 88.8148L180.512 88.3617C180.97 88.0912 181.408 87.8206 181.521 87.6921C181.638 87.5569 181.627 87.3472 181.49 87.2272C181.357 87.1088 181.152 87.119 181.034 87.2559C180.911 87.3709 180.069 87.8731 179.353 88.2721C179.265 88.3143 179.205 88.4006 179.189 88.4986C179.169 88.5984 179.203 88.6981 179.265 88.7708L180.66 90.3568C180.713 90.4176 180.785 90.4548 180.862 90.465C180.953 90.4768 181.047 90.4498 181.119 90.3855C181.255 90.2672 181.269 90.0609 181.152 89.9239L180.337 89.0008L183.712 89.4624C183.89 89.486 184.055 89.3592 184.081 89.1817C184.108 89.0025 183.983 88.8368 183.803 88.8148Z" fill="#767676"/>
<path d="M182.27 101.43C181.687 100.858 181.01 100.147 180.924 100.001C180.843 99.8422 180.65 99.7763 180.488 99.8524C180.325 99.9335 180.26 100.128 180.336 100.289C180.408 100.439 180.755 100.819 181.127 101.207L177.835 100.752C177.657 100.727 177.49 100.853 177.468 101.034C177.443 101.212 177.568 101.377 177.749 101.401L181.12 101.863L180.089 102.536C179.937 102.634 179.898 102.837 179.992 102.99C180.045 103.072 180.131 103.121 180.222 103.134C180.297 103.148 180.376 103.131 180.444 103.085L182.216 101.935C182.297 101.883 182.353 101.79 182.365 101.692C182.375 101.597 182.337 101.501 182.27 101.43Z" fill="#767676"/>
<path d="M56.7113 99.0474C56.6859 99.0237 56.6588 99.0001 56.6284 98.9798C54.0162 96.8731 50.4639 95.999 46.9861 96.9475C46.4957 97.0794 46.0274 97.2467 45.5743 97.4395C45.5709 97.4395 45.5709 97.4412 45.5709 97.4412C45.5675 97.4446 45.5658 97.4446 45.5624 97.4446C40.6795 99.5327 37.9473 104.965 39.381 110.233C40.1994 113.248 42.2249 115.624 44.7948 116.969C44.7965 116.976 44.7982 116.983 44.805 116.983C44.8337 117.003 44.8591 117.013 44.8895 117.022C47.2075 118.212 49.9601 118.579 52.667 117.842C58.4291 116.273 61.8393 110.313 60.272 104.554C59.665 102.309 58.3834 100.427 56.7113 99.0474ZM56.0569 99.5056L56.4019 106.272C55.1845 105.763 53.8793 105.459 52.5977 105.303L52.4438 100.985C52.437 100.779 52.2663 100.613 52.0566 100.613L50.2019 100.621C49.9905 100.623 49.8147 100.794 49.8147 101.004L49.7944 105.156C47.9582 105.176 46.4078 105.406 45.5979 105.57C45.7011 101.827 45.8397 98.7515 46.0105 98.0921C46.3892 97.9366 46.7815 97.8013 47.1856 97.6897C50.3794 96.8207 53.6392 97.6018 56.0569 99.5056ZM45.5793 106.363C46.188 106.245 47.8128 105.974 49.7927 105.946L49.764 112.058C49.764 112.169 49.813 112.278 49.8992 112.349C49.9804 112.425 50.092 112.457 50.2019 112.443L52.4945 112.13C52.5114 112.127 52.5283 112.122 52.5452 112.117C52.7143 112.075 52.8344 111.916 52.8293 111.731L52.6264 106.091C53.9283 106.257 55.2454 106.575 56.4424 107.133L56.6758 111.682L45.412 116.099C45.4407 113.179 45.4965 109.581 45.5793 106.363ZM51.8537 106.013L52.0482 111.414L50.5366 111.62L50.562 105.947C50.9847 105.956 51.4192 105.976 51.8537 106.013ZM50.5688 105.159L50.584 101.391L51.6863 101.384L51.8267 105.227C51.3972 105.19 50.9779 105.168 50.5688 105.159ZM40.1216 110.032C38.8586 105.389 41.0803 100.611 45.1837 98.4759C45.0383 99.5935 44.9098 102.003 44.7864 107.313C44.7052 110.927 44.6596 114.557 44.6427 116.004C42.4971 114.717 40.8283 112.633 40.1216 110.032ZM52.4641 117.101C50.2407 117.703 47.987 117.509 46.0088 116.694L57.2117 112.3C57.3673 112.237 57.4636 112.086 57.4535 111.921L56.8668 100.216C58.1044 101.426 59.0479 102.967 59.5314 104.755C60.9855 110.108 57.8136 115.647 52.4641 117.101Z" fill="#767676"/>
<path d="M121.031 150.884C120.743 150.605 120.258 150.438 119.747 150.334C119.996 150.255 120.226 150.137 120.398 149.978C120.613 149.787 120.725 149.553 120.737 149.285C120.753 149.046 120.664 148.836 120.485 148.662C120.211 148.394 119.725 148.24 119.215 148.16V147.523C119.215 147.42 119.13 147.333 119.024 147.333C118.921 147.333 118.838 147.421 118.838 147.523V148.115C118.731 148.106 118.618 148.098 118.508 148.089V147.379C118.508 147.278 118.429 147.19 118.32 147.19C118.216 147.19 118.134 147.279 118.134 147.379V148.072C117.664 148.064 117.294 148.089 117.198 148.098C117.093 148.106 117.02 148.194 117.025 148.306C117.03 148.41 117.125 148.48 117.225 148.473C117.338 148.473 117.487 148.465 117.656 148.454C117.656 148.465 117.653 148.473 117.653 148.48V152.717C117.401 152.712 117.238 152.695 117.233 152.695C117.128 152.686 117.034 152.757 117.025 152.862C117.01 152.974 117.09 153.062 117.194 153.077C117.233 153.077 117.597 153.109 118.096 153.109C118.158 153.109 118.231 153.109 118.302 153.109C118.302 153.175 118.302 153.236 118.302 153.309V153.708C118.302 153.812 118.39 153.89 118.495 153.89C118.598 153.89 118.686 153.811 118.686 153.697C118.681 153.522 118.677 153.26 118.681 153.096C118.75 153.096 118.812 153.085 118.88 153.077V153.588C118.88 153.692 118.963 153.779 119.073 153.779C119.179 153.779 119.259 153.691 119.259 153.588V153.036C119.884 152.95 120.507 152.778 120.892 152.424C121.168 152.179 121.306 151.868 121.306 151.501C121.3 151.266 121.21 151.058 121.031 150.884ZM120.217 148.931C120.317 149.029 120.361 149.139 120.358 149.266C120.349 149.433 120.283 149.577 120.145 149.697C119.717 150.086 118.796 150.165 118.258 150.182C118.172 150.182 118.094 150.182 118.028 150.182V148.476C118.028 148.47 118.028 148.461 118.028 148.451C118.819 148.463 119.84 148.566 120.217 148.931ZM120.632 152.135C120.065 152.644 118.845 152.734 118.028 152.734V150.566C118.099 150.566 118.187 150.566 118.283 150.566C119.068 150.591 120.314 150.718 120.76 151.156C120.87 151.261 120.919 151.373 120.919 151.499C120.919 151.751 120.823 151.958 120.632 152.135Z" fill="#1E1E1E"/>
<path d="M120.059 146.479C119.592 146.217 119.078 146.042 118.532 145.952C118.292 145.915 118.043 145.888 117.793 145.888C117.056 145.888 116.361 146.064 115.744 146.364C115.732 146.364 115.717 146.376 115.708 146.381C115.358 146.559 115.035 146.772 114.736 147.029C114.728 147.037 114.717 147.042 114.706 147.053C114.393 147.332 114.116 147.651 113.886 148.001C113.882 148.001 113.882 148.001 113.877 148.001C113.874 148.01 113.87 148.026 113.867 148.035C113.632 148.393 113.443 148.782 113.316 149.198C113.312 149.212 113.304 149.222 113.304 149.237C113.194 149.611 113.126 150.008 113.111 150.405C113.106 150.47 113.106 150.525 113.106 150.581C113.106 150.963 113.155 151.339 113.241 151.689C113.241 151.697 113.241 151.697 113.241 151.697C113.346 152.127 113.514 152.541 113.735 152.923C113.735 152.931 113.735 152.931 113.735 152.931C113.744 152.938 113.752 152.957 113.761 152.965C113.948 153.283 114.175 153.586 114.437 153.849C114.442 153.856 114.442 153.856 114.447 153.865C114.454 153.871 114.462 153.882 114.471 153.89C114.472 153.89 114.472 153.89 114.477 153.89C114.733 154.15 115.02 154.374 115.328 154.566V154.573C115.338 154.573 115.343 154.582 115.348 154.582C115.348 154.582 115.355 154.582 115.355 154.588C115.363 154.588 115.363 154.588 115.37 154.598C116.08 155.026 116.914 155.273 117.8 155.273C118.172 155.273 118.535 155.226 118.885 155.148C119.418 155.019 119.917 154.805 120.363 154.509C121.643 153.674 122.495 152.221 122.495 150.583C122.488 148.813 121.504 147.277 120.059 146.479ZM116.2 146.583C116.459 146.479 116.729 146.402 117.008 146.343C116.785 146.449 116.567 146.566 116.361 146.703V146.709C116.3 146.655 116.248 146.615 116.2 146.583ZM115.801 146.758C115.857 146.797 115.948 146.862 116.043 146.939C115.864 147.075 115.702 147.228 115.551 147.394L115.177 147.164C115.37 147.014 115.578 146.877 115.801 146.758ZM114.329 148.025C114.491 147.81 114.67 147.602 114.868 147.42L115.294 147.682C115.155 147.862 115.027 148.05 114.912 148.248L114.329 148.025ZM114.109 148.353L114.736 148.591C114.662 148.752 114.592 148.911 114.537 149.085H113.755C113.85 148.83 113.97 148.581 114.109 148.353ZM113.498 150.216C113.524 149.961 113.566 149.705 113.632 149.467H114.43C114.369 149.707 114.33 149.961 114.317 150.216V150.224H113.5V150.216H113.498ZM113.488 150.598H114.305C114.305 150.838 114.325 151.066 114.364 151.3L113.568 151.442C113.514 151.171 113.488 150.884 113.488 150.598ZM113.989 152.605C113.852 152.358 113.745 152.086 113.661 151.807L114.442 151.663C114.496 151.888 114.567 152.101 114.657 152.316L113.989 152.605ZM114.188 152.936L114.817 152.659C114.888 152.803 114.968 152.936 115.057 153.067L114.599 153.471C114.447 153.305 114.308 153.122 114.188 152.936ZM115.384 154.149C115.199 154.029 115.027 153.893 114.865 153.743L115.279 153.376C115.385 153.51 115.5 153.64 115.622 153.768L115.384 154.149ZM116.187 154.58C116.021 154.516 115.862 154.436 115.71 154.347L115.904 154.027C116.033 154.139 116.163 154.243 116.307 154.34L116.187 154.58ZM116.554 154.705C116.55 154.705 116.55 154.705 116.55 154.705L116.635 154.539C116.85 154.666 117.085 154.779 117.328 154.866C117.057 154.835 116.799 154.784 116.554 154.705ZM118.84 154.766C118.033 154.747 117.291 154.517 116.657 154.118C115.708 153.52 115.01 152.548 114.772 151.418C114.711 151.131 114.682 150.837 114.682 150.541C114.682 148.341 116.369 146.525 118.52 146.336C120.551 146.679 122.104 148.453 122.104 150.581C122.106 152.595 120.711 154.301 118.84 154.766Z" fill="#1E1E1E"/>
<path d="M107.155 149.097C107.155 149.215 107.128 149.308 107.082 149.381C106.922 149.643 106.509 149.658 106.093 149.596H106.09C105.542 149.508 104.989 149.283 104.989 149.283C104.989 149.283 107.155 151.091 106.815 151.626C106.783 151.667 106.747 151.704 106.702 151.731C106.649 151.753 106.592 151.769 106.528 151.772C105.904 151.838 104.632 151.136 104.556 151.099C104.629 151.18 105.936 152.68 105.927 153.366C105.927 153.422 105.916 153.478 105.89 153.525C105.855 153.591 105.799 153.632 105.721 153.644C105.721 153.644 105.716 153.644 105.713 153.644C105.584 153.669 105.42 153.638 105.226 153.566C105.216 153.561 105.207 153.561 105.197 153.561C104.492 153.309 103.542 152.644 103.653 152.844C103.814 153.118 105.731 154.416 105.317 155.06C105.292 155.103 105.256 155.143 105.205 155.172C104.431 155.757 100.179 153.231 99.6327 152.159C99.4467 151.804 99.4569 151.603 99.5499 151.49C99.7206 151.273 100.184 151.373 100.245 151.383C100.236 151.378 100.224 151.363 100.206 151.342C99.9421 151.089 98.6909 149.826 98.8938 149.101C98.9192 149.001 98.9615 148.915 99.0071 148.833C99.2945 148.358 99.9117 148.275 100.245 148.27C100.38 148.27 100.466 148.275 100.466 148.275C100.466 148.275 98.0654 146.825 98.7197 145.562C98.7721 145.462 98.8296 145.391 98.8972 145.334C99.3656 144.951 100.189 145.472 100.454 145.663C100.497 145.695 100.524 145.716 100.534 145.719C99.7274 144.896 99.7206 144.287 100.028 143.989C100.243 143.771 100.617 143.71 100.979 143.836C101.858 144.12 107.155 147.474 107.155 149.097Z" fill="url(#paint19_linear_108_2547)"/>
<g opacity="0.2">
<path d="M107.082 149.381C106.921 149.643 106.509 149.658 106.093 149.596H106.089C105.741 149.489 105.324 149.318 104.815 149.063C102.983 148.123 101.45 146.706 100.459 145.659C100.501 145.692 100.527 145.712 100.537 145.715C99.7305 144.892 99.7237 144.283 100.031 143.986C101.098 145.604 103.714 148.473 107.082 149.381Z" fill="#E26B44"/>
<path d="M106.702 151.731C106.649 151.753 106.592 151.768 106.527 151.771L104.556 151.098L104.554 151.092C104.554 151.092 102.449 149.355 100.248 148.266C100.383 148.266 100.47 148.271 100.47 148.271C100.47 148.271 98.0687 146.821 98.723 145.558C98.7754 145.458 98.8329 145.387 98.9005 145.33C99.9285 146.684 103.526 150.052 106.702 151.731Z" fill="#E26B44"/>
<path d="M105.927 153.364C105.927 153.42 105.916 153.476 105.89 153.523C105.855 153.589 105.799 153.63 105.721 153.642C105.721 153.642 105.716 153.642 105.713 153.642C105.577 153.637 105.412 153.61 105.226 153.564C105.216 153.559 105.207 153.559 105.197 153.559C104.798 153.454 104.287 153.241 103.653 152.842C103.653 152.842 101.731 151.904 100.206 151.337C99.9421 151.084 98.691 149.821 98.8938 149.095C98.9192 148.996 98.9615 148.909 99.0071 148.828C100.28 149.912 103.941 152.462 105.927 153.364Z" fill="#E26B44"/>
<path d="M105.32 155.058C105.295 155.101 105.259 155.141 105.209 155.17C104.434 155.755 100.182 153.229 99.636 152.157C99.45 151.802 99.4602 151.601 99.5532 151.488C100.994 152.833 103.753 154.451 105.32 155.058Z" fill="#E26B44"/>
</g>
<path opacity="0.27" d="M130.215 140.795C130.215 140.795 130.952 150.329 130.034 155.838H131.857L133.776 140.67L130.215 140.795Z" fill="#B2B2B2"/>
<path opacity="0.16" d="M166.438 154.318C165.007 157.089 161.859 160.134 157.494 163.408C148.944 169.826 124.838 181.389 124.838 181.389L123.863 179.571L127.929 171.237C127.929 171.237 130.178 171.584 139.411 169.346C147.887 167.295 162.26 158.332 166.438 154.318Z" fill="url(#paint20_linear_108_2547)"/>
<path d="M121.734 123.952L124.565 122.263L128.042 124.05L121.734 123.952Z" fill="url(#paint21_linear_108_2547)"/>
<path d="M110.77 86.3704C110.77 86.5158 110.733 86.6494 110.658 86.761C110.227 86.7322 109.762 86.6764 109.316 86.602C109.294 86.5259 109.28 86.4515 109.28 86.3704C109.28 85.9612 109.613 85.6265 110.026 85.6265C110.435 85.6265 110.77 85.9612 110.77 86.3704Z" fill="#192528"/>
<path d="M122.143 86.2281C122.143 86.2551 122.143 86.2805 122.14 86.3058C121.707 86.4343 121.241 86.5476 120.767 86.622C120.693 86.507 120.651 86.3769 120.651 86.2298C120.651 85.8223 120.987 85.4841 121.398 85.4841C121.805 85.4824 122.143 85.8206 122.143 86.2281Z" fill="#192528"/>
<path d="M154.364 54.8104L157.974 36.8326C158.018 36.6212 157.901 36.4065 157.702 36.3254L156.885 35.9957C157.707 34.5146 160.062 29.7855 158.856 26.1234C158.314 24.4681 157.118 23.2592 155.302 22.5271C153.485 21.7916 151.764 21.8272 150.183 22.6252C146.683 24.3954 144.931 29.3764 144.446 30.9724L143.06 30.4111C142.843 30.3249 142.603 30.4128 142.495 30.614C139.166 36.7717 134.116 46.0759 133.806 46.5493C133.728 46.6559 133.696 46.7928 133.733 46.9247C133.764 47.065 133.865 47.18 133.997 47.2341L153.737 55.2094C153.744 55.2094 153.745 55.2111 153.745 55.2111C153.975 55.3057 154.237 55.1942 154.332 54.9642C154.351 54.9135 154.359 54.8611 154.364 54.8104ZM150.585 23.43C151.929 22.752 153.404 22.7283 154.966 23.3607C156.521 23.9879 157.541 25.0142 158.001 26.404C159.112 29.7686 156.743 34.3996 156.041 35.6558L145.288 31.3123C145.707 29.9208 147.38 25.0531 150.585 23.43ZM134.816 46.5933C135.996 44.5035 140.294 36.5722 143.095 31.3968L157.017 37.0219L153.573 54.1729L134.816 46.5933Z" fill="#767676"/>
<path d="M149.222 37.9319C147.872 37.4314 146.296 41.3844 146.122 41.8375C145.521 43.3896 145.026 45.3306 146.079 45.755C146.592 45.9613 147.136 45.6738 147.699 44.8944C148.086 44.3601 148.499 43.5706 148.866 42.6694C149.148 41.966 150.496 38.4476 149.222 37.9319ZM147.466 43.5536C146.92 44.5816 146.538 44.8775 146.418 44.9113C146.353 44.8031 146.281 44.3246 146.603 43.1969C147.17 41.2525 148.342 39.2456 148.872 38.85C148.976 39.5077 148.414 41.7665 147.466 43.5536Z" fill="#767676"/>
<defs>
<linearGradient id="paint0_linear_108_2547" x1="140.98" y1="61.0934" x2="110.489" y2="186.8" gradientUnits="userSpaceOnUse">
<stop stop-color="#FFD83B"/>
<stop offset="1" stop-color="#F4C62F"/>
</linearGradient>
<linearGradient id="paint1_linear_108_2547" x1="129.984" y1="58.4236" x2="99.4939" y2="184.129" gradientUnits="userSpaceOnUse">
<stop stop-color="#FFD83B"/>
<stop offset="1" stop-color="#F4C62F"/>
</linearGradient>
<linearGradient id="paint2_linear_108_2547" x1="125.012" y1="57.2196" x2="94.5212" y2="182.929" gradientUnits="userSpaceOnUse">
<stop stop-color="#FFD83B"/>
<stop offset="1" stop-color="#F4C62F"/>
</linearGradient>
<linearGradient id="paint3_linear_108_2547" x1="120.645" y1="94.0422" x2="97.6369" y2="188.899" gradientUnits="userSpaceOnUse">
<stop stop-color="#FFD83B"/>
<stop offset="1" stop-color="#F4C62F"/>
</linearGradient>
<linearGradient id="paint4_linear_108_2547" x1="94.4546" y1="158.171" x2="97.0601" y2="135.155" gradientUnits="userSpaceOnUse">
<stop stop-color="#2D3434"/>
<stop offset="1" stop-color="#242B2A"/>
</linearGradient>
<linearGradient id="paint5_linear_108_2547" x1="137.238" y1="155.375" x2="140.17" y2="129.48" gradientUnits="userSpaceOnUse">
<stop stop-color="#2D3434"/>
<stop offset="1" stop-color="#242B2A"/>
</linearGradient>
<linearGradient id="paint6_linear_108_2547" x1="101.104" y1="151.133" x2="105.144" y2="115.445" gradientUnits="userSpaceOnUse">
<stop stop-color="#2D3434"/>
<stop offset="1" stop-color="#242B2A"/>
</linearGradient>
<linearGradient id="paint7_linear_108_2547" x1="126.912" y1="153.053" x2="131.562" y2="111.974" gradientUnits="userSpaceOnUse">
<stop stop-color="#2D3434"/>
<stop offset="1" stop-color="#242B2A"/>
</linearGradient>
<linearGradient id="paint8_linear_108_2547" x1="114.607" y1="106.152" x2="115.878" y2="94.9231" gradientUnits="userSpaceOnUse">
<stop stop-color="#F0B885"/>
<stop offset="1" stop-color="#F18E68"/>
</linearGradient>
<linearGradient id="paint9_linear_108_2547" x1="116.14" y1="74.3382" x2="115.168" y2="100.432" gradientUnits="userSpaceOnUse">
<stop stop-color="#F0B885"/>
<stop offset="1" stop-color="#F18E68"/>
</linearGradient>
<linearGradient id="paint10_linear_108_2547" x1="130.826" y1="70.9753" x2="125.386" y2="98.6622" gradientUnits="userSpaceOnUse">
<stop stop-color="#F0B885"/>
<stop offset="1" stop-color="#F18E68"/>
</linearGradient>
<linearGradient id="paint11_linear_108_2547" x1="130.156" y1="70.8392" x2="124.714" y2="98.5377" gradientUnits="userSpaceOnUse">
<stop stop-color="#F0B885"/>
<stop offset="1" stop-color="#F18E68"/>
</linearGradient>
<linearGradient id="paint12_linear_108_2547" x1="125.604" y1="104.359" x2="131.539" y2="51.9357" gradientUnits="userSpaceOnUse">
<stop stop-color="#573627"/>
<stop offset="1" stop-color="#4E2A1E"/>
</linearGradient>
<linearGradient id="paint13_linear_108_2547" x1="114.646" y1="118.835" x2="115.739" y2="104.406" gradientUnits="userSpaceOnUse">
<stop stop-color="#226E74"/>
<stop offset="1" stop-color="#175A5E"/>
</linearGradient>
<linearGradient id="paint14_linear_108_2547" x1="118.813" y1="61.2842" x2="115.265" y2="78.5366" gradientUnits="userSpaceOnUse">
<stop stop-color="#573627"/>
<stop offset="1" stop-color="#4E2A1E"/>
</linearGradient>
<linearGradient id="paint15_linear_108_2547" x1="117.812" y1="66.4264" x2="114.919" y2="80.4916" gradientUnits="userSpaceOnUse">
<stop stop-color="#573627"/>
<stop offset="1" stop-color="#4E2A1E"/>
</linearGradient>
<linearGradient id="paint16_linear_108_2547" x1="114.939" y1="103.376" x2="115.57" y2="97.9857" gradientUnits="userSpaceOnUse">
<stop stop-color="#F0B885"/>
<stop offset="1" stop-color="#F18E68"/>
</linearGradient>
<linearGradient id="paint17_linear_108_2547" x1="112.976" y1="199.169" x2="120.272" y2="134.72" gradientUnits="userSpaceOnUse">
<stop stop-color="#2D3434"/>
<stop offset="1" stop-color="#242B2A"/>
</linearGradient>
<linearGradient id="paint18_linear_108_2547" x1="72.724" y1="168.369" x2="116.752" y2="168.369" gradientUnits="userSpaceOnUse">
<stop stop-color="#2D3434"/>
<stop offset="1" stop-color="#242B2A"/>
</linearGradient>
<linearGradient id="paint19_linear_108_2547" x1="101.383" y1="160.794" x2="103.764" y2="139.756" gradientUnits="userSpaceOnUse">
<stop stop-color="#F0B885"/>
<stop offset="1" stop-color="#F18E68"/>
</linearGradient>
<linearGradient id="paint20_linear_108_2547" x1="123.863" y1="167.853" x2="166.438" y2="167.853" gradientUnits="userSpaceOnUse">
<stop stop-color="#2D3434"/>
<stop offset="1" stop-color="#242B2A"/>
</linearGradient>
<linearGradient id="paint21_linear_108_2547" x1="121.734" y1="123.157" x2="128.042" y2="123.157" gradientUnits="userSpaceOnUse">
<stop stop-color="#226E74"/>
<stop offset="1" stop-color="#175A5E"/>
</linearGradient>
</defs>
</svg>
