<svg width="24" height="25" viewBox="0 0 24 25" fill="none" xmlns="http://www.w3.org/2000/svg">
<g clip-path="url(#clip0_2163_1027)">
<mask id="mask0_2163_1027" style="mask-type:alpha" maskUnits="userSpaceOnUse" x="0" y="0" width="24" height="25">
<rect y="0.5" width="24" height="24" fill="#D9D9D9"/>
</mask>
<g mask="url(#mask0_2163_1027)">
<path d="M5.05768 21C4.55254 21 4.12498 20.825 3.775 20.475C3.425 20.125 3.25 19.6974 3.25 19.1923V5.80773C3.25 5.30259 3.425 4.87502 3.775 4.52502C4.12498 4.17502 4.55254 4.00002 5.05768 4.00002H14.2115V5.5H5.05768C4.96792 5.5 4.8942 5.52885 4.8365 5.58655C4.7788 5.64425 4.74995 5.71798 4.74995 5.80773V19.1923C4.74995 19.282 4.7788 19.3557 4.8365 19.4134C4.8942 19.4711 4.96792 19.5 5.05768 19.5H18.4423C18.532 19.5 18.6057 19.4711 18.6634 19.4134C18.7211 19.3557 18.75 19.282 18.75 19.1923V10.0384H20.2499V19.1923C20.2499 19.6974 20.0749 20.125 19.7249 20.475C19.3749 20.825 18.9474 21 18.4423 21H5.05768ZM7.11538 17.25H8.61533V10.75H7.11538V17.25ZM11 17.25H12.5V7.75002H11V17.25ZM14.8846 17.25H16.3846V13.75H14.8846V17.25ZM17.25 8.99998V6.99998H15.25V5.5H17.25V3.5H18.75V5.5H20.75V6.99998H18.75V8.99998H17.25Z" fill="white"/>
</g>
</g>
<defs>
<clipPath id="clip0_2163_1027">
<rect width="24" height="24" fill="white" transform="translate(0 0.5)"/>
</clipPath>
</defs>
</svg>
