<svg width="28" height="34" viewBox="0 0 28 34" fill="none" xmlns="http://www.w3.org/2000/svg">
<path fill-rule="evenodd" clip-rule="evenodd" d="M20.2 4.19995H23.4C25.1673 4.19995 26.6 5.63264 26.6 7.39995V29.7999C26.6 31.5673 25.1673 33 23.4 33H4.2C2.43269 33 1 31.5673 1 29.7999V7.39995C1 5.63264 2.43269 4.19995 4.2 4.19995H7.4" fill="#0057FF"/>
<path d="M20.2 4.19995H23.4C25.1673 4.19995 26.6 5.63264 26.6 7.39995V29.7999C26.6 31.5673 25.1673 32.9999 23.4 32.9999H4.2C2.43269 32.9999 1 31.5673 1 29.7999V7.39995C1 5.63264 2.43269 4.19995 4.2 4.19995H7.4" stroke="#F5F5F5" stroke-linecap="round" stroke-linejoin="round"/>
<path fill-rule="evenodd" clip-rule="evenodd" d="M8.9999 1H18.5999C19.4836 1 20.1999 1.71634 20.1999 2.6V5.8C20.1999 6.68366 19.4836 7.4 18.5999 7.4H8.9999C8.11625 7.4 7.3999 6.68366 7.3999 5.8V2.6C7.3999 1.71634 8.11625 1 8.9999 1Z" fill="#0E0F18" stroke="#3E3F46" stroke-linecap="round"/>
<path d="M20.1999 20.2H7.3999" stroke="#F5F5F5" stroke-linecap="round" stroke-linejoin="round"/>
<path d="M20.1999 13.8H7.3999" stroke="#F5F5F5" stroke-linecap="round" stroke-linejoin="round"/>
<path d="M20.1999 26.6H7.3999" stroke="#F5F5F5" stroke-linecap="round" stroke-linejoin="round"/>
</svg>
