<svg width="40" height="40" viewBox="0 0 40 40" fill="none" xmlns="http://www.w3.org/2000/svg">
<path opacity="0.6" d="M35.2982 20.0392C34.9299 20.0392 34.6286 20.3367 34.6286 20.7001C34.6286 28.3666 28.3011 34.6452 20.5006 34.6452C12.7001 34.6452 6.37262 28.3996 6.37262 20.7332C6.37262 13.3641 12.1644 7.34994 19.4963 6.85427L18.8936 7.3169C18.5923 7.54821 18.5254 7.9778 18.7597 8.2752C18.8936 8.44043 19.0945 8.53956 19.2954 8.53956C19.4293 8.53956 19.5967 8.50652 19.6971 8.40738L21.9737 6.68904C22.1411 6.55686 22.2415 6.35859 22.2415 6.12728C22.2415 5.89596 22.1076 5.69769 21.9402 5.59855L19.6636 4.11153C19.3623 3.91326 18.9271 3.97935 18.7262 4.3098C18.5254 4.6072 18.5923 5.03679 18.9271 5.23506L19.3958 5.53246C11.3609 6.06119 5 12.6702 5 20.7332C5 29.1597 11.9301 36 20.4671 36C29.0042 36 35.9677 29.1597 35.9677 20.7332C35.9677 20.3697 35.6664 20.0392 35.2982 20.0392Z" fill="#F5F5F5"/>
<path d="M34.7625 18.0235C35.2247 18.0235 35.5995 17.6536 35.5995 17.1973C35.5995 16.7411 35.2247 16.3712 34.7625 16.3712C34.3003 16.3712 33.9255 16.7411 33.9255 17.1973C33.9255 17.6536 34.3003 18.0235 34.7625 18.0235Z" fill="#848484"/>
<path d="M33.6912 14.9502C34.1535 14.9502 34.5282 14.5804 34.5282 14.1241C34.5282 13.6678 34.1535 13.298 33.6912 13.298C33.229 13.298 32.8542 13.6678 32.8542 14.1241C32.8542 14.5804 33.229 14.9502 33.6912 14.9502Z" fill="#848484"/>
<path d="M31.6824 12.0753C32.1447 12.0753 32.5194 11.7055 32.5194 11.2492C32.5194 10.793 32.1447 10.4231 31.6824 10.4231C31.2202 10.4231 30.8455 10.793 30.8455 11.2492C30.8455 11.7055 31.2202 12.0753 31.6824 12.0753Z" fill="#848484"/>
<path d="M28.9039 9.59708C29.3661 9.59708 29.7408 9.22721 29.7408 8.77095C29.7408 8.31469 29.3661 7.94482 28.9039 7.94482C28.4416 7.94482 28.0669 8.31469 28.0669 8.77095C28.0669 9.22721 28.4416 9.59708 28.9039 9.59708Z" fill="#848484"/>
<path d="M25.5894 7.87869C26.0517 7.87869 26.4264 7.50882 26.4264 7.05257C26.4264 6.59631 26.0517 6.22644 25.5894 6.22644C25.1272 6.22644 24.7524 6.59631 24.7524 7.05257C24.7524 7.50882 25.1272 7.87869 25.5894 7.87869Z" fill="#848484"/>
<path d="M26.4264 17.4287C26.4264 17.0652 26.1251 16.7348 25.7234 16.7348H16.6507L18.1907 15.2147C18.4585 14.9503 18.4585 14.5207 18.1907 14.2564C18.0568 14.1242 17.8894 14.0581 17.6885 14.0581C17.5211 14.0581 17.3202 14.1242 17.1863 14.2564L14.4746 16.933C14.2067 17.1974 14.2067 17.627 14.4746 17.8913L17.1863 20.601C17.3202 20.7332 17.4876 20.7993 17.6885 20.7993C17.8894 20.7993 18.0568 20.7332 18.1907 20.601C18.3246 20.4688 18.3916 20.3036 18.3916 20.1053C18.3916 19.9071 18.3246 19.7419 18.1907 19.6097L16.6507 18.0566H25.7234C26.0916 18.1226 26.4264 17.7922 26.4264 17.4287Z" fill="#848484"/>
<path d="M23.2125 27.7718C23.4134 27.7718 23.5808 27.7057 23.7147 27.5736L26.4265 24.8639C26.6943 24.5995 26.6943 24.1699 26.4265 23.9056L23.7147 21.2289C23.4469 20.9645 23.0117 20.9645 22.7438 21.2289C22.476 21.4933 22.476 21.9229 22.7438 22.1872L24.2839 23.7073H15.1777C14.8094 23.7073 14.4746 24.0047 14.4746 24.4012C14.4746 24.7647 14.7759 25.0952 15.1777 25.0952H24.2504L22.7104 26.6483C22.5764 26.7805 22.5095 26.9457 22.5095 27.144C22.5095 27.3422 22.5764 27.5075 22.7104 27.6397C22.8443 27.7057 23.0117 27.7718 23.2125 27.7718Z" fill="#848484"/>
</svg>
