<svg width="31" height="32" viewBox="0 0 31 32" fill="none" xmlns="http://www.w3.org/2000/svg">
<path d="M30.2982 16.0392C29.9299 16.0392 29.6286 16.3366 29.6286 16.7001C29.6286 24.3666 23.3011 30.6452 15.5006 30.6452C7.70009 30.6452 1.37262 24.3996 1.37262 16.7332C1.37262 9.36414 7.16443 3.34994 14.4963 2.85427L13.8936 3.3169C13.5923 3.54821 13.5254 3.9778 13.7597 4.2752C13.8936 4.44043 14.0945 4.53956 14.2954 4.53956C14.4293 4.53956 14.5967 4.50652 14.6971 4.40738L16.9737 2.68904C17.1411 2.55686 17.2415 2.35859 17.2415 2.12728C17.2415 1.89596 17.1076 1.69769 16.9402 1.59855L14.6636 0.111527C14.3623 -0.0867433 13.9271 -0.0206532 13.7262 0.309797C13.5254 0.607203 13.5923 1.03679 13.9271 1.23506L14.3958 1.53246C6.36094 2.06118 0 8.6702 0 16.7332C0 25.1597 6.93008 32 15.4671 32C24.0042 32 30.9677 25.1597 30.9677 16.7332C30.9677 16.3697 30.6664 16.0392 30.2982 16.0392Z" fill="#F5F5F5"/>
<path d="M29.7625 14.0235C30.2247 14.0235 30.5995 13.6536 30.5995 13.1973C30.5995 12.7411 30.2247 12.3712 29.7625 12.3712C29.3003 12.3712 28.9255 12.7411 28.9255 13.1973C28.9255 13.6536 29.3003 14.0235 29.7625 14.0235Z" fill="#0057FF"/>
<path d="M28.6912 10.9503C29.1535 10.9503 29.5282 10.5805 29.5282 10.1242C29.5282 9.66797 29.1535 9.2981 28.6912 9.2981C28.229 9.2981 27.8542 9.66797 27.8542 10.1242C27.8542 10.5805 28.229 10.9503 28.6912 10.9503Z" fill="#0057FF"/>
<path d="M26.6824 8.07535C27.1447 8.07535 27.5194 7.70548 27.5194 7.24922C27.5194 6.79297 27.1447 6.4231 26.6824 6.4231C26.2202 6.4231 25.8455 6.79297 25.8455 7.24922C25.8455 7.70548 26.2202 8.07535 26.6824 8.07535Z" fill="#0057FF"/>
<path d="M23.9039 5.59708C24.3661 5.59708 24.7408 5.22721 24.7408 4.77095C24.7408 4.31469 24.3661 3.94482 23.9039 3.94482C23.4416 3.94482 23.0669 4.31469 23.0669 4.77095C23.0669 5.22721 23.4416 5.59708 23.9039 5.59708Z" fill="#0057FF"/>
<path d="M20.5894 3.87869C21.0517 3.87869 21.4264 3.50882 21.4264 3.05257C21.4264 2.59631 21.0517 2.22644 20.5894 2.22644C20.1272 2.22644 19.7524 2.59631 19.7524 3.05257C19.7524 3.50882 20.1272 3.87869 20.5894 3.87869Z" fill="#0057FF"/>
<path d="M21.4264 13.4287C21.4264 13.0652 21.1251 12.7348 20.7234 12.7348H11.6507L13.1907 11.2147C13.4585 10.9503 13.4585 10.5207 13.1907 10.2564C13.0568 10.1242 12.8894 10.0581 12.6885 10.0581C12.5211 10.0581 12.3202 10.1242 12.1863 10.2564L9.47455 12.933C9.20672 13.1974 9.20672 13.627 9.47455 13.8913L12.1863 16.601C12.3202 16.7332 12.4876 16.7993 12.6885 16.7993C12.8894 16.7993 13.0568 16.7332 13.1907 16.601C13.3246 16.4688 13.3916 16.3036 13.3916 16.1053C13.3916 15.9071 13.3246 15.7419 13.1907 15.6097L11.6507 14.0566H20.7234C21.0916 14.1226 21.4264 13.7922 21.4264 13.4287Z" fill="#0057FF"/>
<path d="M18.2125 23.7718C18.4134 23.7718 18.5808 23.7057 18.7147 23.5736L21.4265 20.8639C21.6943 20.5995 21.6943 20.1699 21.4265 19.9056L18.7147 17.2289C18.4469 16.9645 18.0117 16.9645 17.7438 17.2289C17.476 17.4933 17.476 17.9229 17.7438 18.1872L19.2839 19.7073H10.1777C9.8094 19.7073 9.47461 20.0047 9.47461 20.4012C9.47461 20.7647 9.77592 21.0952 10.1777 21.0952H19.2504L17.7104 22.6483C17.5764 22.7805 17.5095 22.9457 17.5095 23.144C17.5095 23.3422 17.5764 23.5075 17.7104 23.6397C17.8443 23.7057 18.0117 23.7718 18.2125 23.7718Z" fill="#0057FF"/>
</svg>
