<svg width="20" height="21" viewBox="0 0 20 21" fill="none" xmlns="http://www.w3.org/2000/svg">
<path d="M10.2907 4.68688C10.1893 4.68688 10.0955 4.68688 10.0022 4.68688C6.95666 4.68688 3.91107 4.68688 0.865477 4.68571C0.757101 4.68571 0.646395 4.68221 0.540933 4.66007C0.193082 4.58666 -0.0230873 4.28484 0.00196734 3.92242C0.0252739 3.58331 0.293883 3.31819 0.641734 3.29489C0.728551 3.28906 0.815951 3.29081 0.90335 3.29081C3.94137 3.29081 6.97996 3.29081 10.018 3.29081C10.1048 3.29081 10.191 3.29081 10.2237 3.29081C10.4328 2.85498 10.5791 2.42031 10.8279 2.05614C11.6325 0.876826 12.7821 0.34427 14.1904 0.539463C15.6553 0.742813 16.6196 1.61098 17.063 3.02628C17.1306 3.24187 17.2139 3.30305 17.4324 3.29722C18.0355 3.28032 18.6391 3.28906 19.2422 3.29256C19.6949 3.29489 19.9955 3.5769 19.9944 3.98884C19.9932 4.39613 19.6873 4.6828 19.2375 4.68629C18.6053 4.69095 17.9725 4.69154 17.3403 4.68455C17.1947 4.6828 17.1341 4.71951 17.0892 4.87275C16.7046 6.18491 15.8563 7.05308 14.5226 7.3718C13.2151 7.68469 12.0812 7.30596 11.1501 6.34048C10.7603 5.93611 10.5045 5.449 10.353 4.90771C10.3326 4.83895 10.314 4.7702 10.2907 4.68688ZM15.8062 3.99933C15.8184 2.85148 14.903 1.91339 13.754 1.89707C12.587 1.88018 11.6331 2.80836 11.6226 3.97136C11.6127 5.11688 12.5596 6.0777 13.7028 6.08178C14.8576 6.08527 15.7939 5.15825 15.8062 3.99933Z" fill="white"/>
<path d="M10.2842 17.706C10.1793 17.706 10.0925 17.706 10.0057 17.706C6.96007 17.706 3.91447 17.706 0.86946 17.7048C0.746517 17.7048 0.618913 17.7083 0.501215 17.6792C0.197646 17.6034 -0.00570464 17.315 0.000122023 16.9951C0.00594868 16.6741 0.217456 16.4061 0.532679 16.3385C0.645133 16.3146 0.763415 16.3111 0.878782 16.3111C3.93894 16.3099 6.99911 16.3082 10.0587 16.3146C10.2451 16.3152 10.3116 16.261 10.3605 16.0792C10.7643 14.5806 12.158 13.5236 13.7155 13.5195C15.2631 13.5155 16.6481 14.5549 17.0629 16.0541C17.1223 16.268 17.2109 16.3192 17.4172 16.3152C18.0348 16.3023 18.653 16.3076 19.2706 16.3123C19.5818 16.3146 19.8195 16.4538 19.9407 16.7463C20.0497 17.0097 20.0071 17.2602 19.8166 17.477C19.6674 17.6465 19.4746 17.7083 19.2514 17.7071C18.6116 17.7037 17.9719 17.7089 17.3327 17.7037C17.1987 17.7025 17.1346 17.7305 17.0944 17.8796C16.6702 19.4551 15.3015 20.5051 13.7015 20.4969C12.1073 20.4882 10.7614 19.4359 10.3384 17.8674C10.325 17.8184 10.3063 17.7712 10.2842 17.706ZM15.8073 17.019C15.8166 15.8683 14.8773 14.9179 13.7266 14.915C12.577 14.9121 11.6301 15.8519 11.6231 17.0021C11.6162 18.1441 12.5461 19.0886 13.6875 19.0997C14.8616 19.1114 15.7974 18.1931 15.8073 17.019Z" fill="white"/>
<path d="M1.91585 11.1967C1.53129 11.1967 1.14673 11.1978 0.762167 11.1961C0.312932 11.1943 0.00353606 10.9135 4.00681e-05 10.5074C-0.00403859 10.0879 0.303609 9.80351 0.766829 9.80176C1.1444 9.80002 1.52196 9.80118 1.85234 9.80118C2.06151 9.3671 2.20776 8.92427 2.46297 8.55777C3.29793 7.3569 4.47492 6.82901 5.91701 7.0679C7.32998 7.30213 8.25758 8.16156 8.68817 9.53141C8.75285 9.73825 8.82335 9.80817 9.05001 9.80759C12.4365 9.79827 15.8235 9.8006 19.21 9.80118C19.6877 9.80118 20.0006 10.0861 19.9948 10.5114C19.9896 10.868 19.7163 11.1623 19.3585 11.1932C19.2793 11.2002 19.1989 11.1967 19.1191 11.1967C15.7542 11.1967 12.3893 11.1984 9.02437 11.192C8.83501 11.1914 8.75402 11.2334 8.70041 11.4286C8.27856 12.9633 6.89356 14.0004 5.30754 13.987C3.74483 13.9742 2.37207 12.9004 1.97062 11.3761C1.9543 11.3214 1.93682 11.266 1.91585 11.1967ZM7.43311 10.5056C7.44185 9.36069 6.51599 8.41619 5.37397 8.4057C4.20805 8.39463 3.2554 9.32981 3.24957 10.4911C3.24374 11.6296 4.18067 12.5834 5.31454 12.5921C6.48453 12.6009 7.42379 11.6762 7.43311 10.5056Z" fill="white"/>
</svg>
